<?xml version="1.0" encoding="UTF-8"?><svg id="Layer_2" xmlns="http://www.w3.org/2000/svg" viewBox="0 0 195.98 249.92"><defs><style>.cls-1{fill:#fbaf34;}.cls-2{fill:#97012e;}</style></defs><g id="Layer_1-2"><g><path class="cls-1" d="M.07,160.99C.07,108.75,.1,56.51,0,4.26,0,1.18,.17,0,3.91,0c62.72,.16,125.44,.16,188.16,0,3.73,0,3.92,1.17,3.91,4.26-.1,51.58-.07,103.15-.07,154.73-1.55,6.55-1.4,13.39-4.19,19.78-6.59,15.12-17.06,27.16-29.23,37.89-10.88,9.6-23.26,17.05-35.96,23.94-8.33,4.51-17.1,7.91-26.54,9.32h-4c-24.3-4.44-43.79-17.94-62.59-32.9-10.82-8.62-19.24-19.14-26.05-31.06-3.06-5.36-5.44-10.94-6-17.23-.23-2.59-.18-5.29-1.28-7.75Z"/><path class="cls-2" d="M98.06,14.94c26.14,0,52.29,.08,78.43-.09,4.07-.03,5.38,1,5.36,5.24-.16,41.96-.04,83.93-.11,125.9-.04,23.94-11.68,42.15-29.02,57.35-15.31,13.42-32.84,23.17-51.71,30.63-1.89,.75-3.66,1.26-5.76,.42-24.22-9.71-46.48-22.38-63.83-42.39-11.57-13.36-17.33-28.85-17.26-46.66,.17-41.63,.12-83.26-.04-124.9-.02-4.33,1.02-5.66,5.51-5.62,26.14,.22,52.29,.11,78.43,.11Z"/><path class="cls-1" d="M54.19,96.95c0-13.32,.12-26.64-.08-39.96-.05-3.77,.78-5.6,4.93-5.13,4.42,.5,10.16-1.82,13.01,.93,2.89,2.78,.9,8.53,.92,12.96,.1,21.48,.02,42.96,.08,64.44,0,3.15,.2,6.33,.72,9.43,2.19,12.87,11.34,20.53,24.26,20.52,12.99,0,22.05-7.62,24.23-20.55,.52-3.1,.68-6.29,.68-9.44,.05-24.31,.11-48.62-.06-72.93-.03-3.96,.74-5.48,5.11-5.43,13.8,.17,13.8-.02,13.8,13.71,0,22.98,.08,45.96-.03,68.94-.07,14.51-4.35,27.38-16.54,36.27-14.75,10.75-30.91,12.01-47.19,4.3-16.15-7.66-23.53-21.48-23.81-39.1-.2-12.98-.04-25.98-.04-38.96Z"/></g></g></svg>