<?xml version="1.0" encoding="UTF-8"?><svg id="Layer_2" xmlns="http://www.w3.org/2000/svg" viewBox="0 0 934.27 26.65"><defs><style>.cls-1{fill:#1e1e1e;}</style></defs><g id="_Ñëîé_1"><g><path class="cls-1" d="M931.27,16.33H3c-1.66,0-3-1.34-3-3s1.34-3,3-3H931.27c1.66,0,3,1.34,3,3s-1.34,3-3,3Z"/><g><g><path class="cls-1" d="M96.52,26.65c-.77,0-1.54-.29-2.12-.88L73.75,5.12c-1.17-1.17-1.17-3.07,0-4.24,1.17-1.17,3.07-1.17,4.24,0l20.65,20.65c1.17,1.17,1.17,3.07,0,4.24-.59,.59-1.35,.88-2.12,.88Z"/><path class="cls-1" d="M75.87,26.65c-.77,0-1.54-.29-2.12-.88-1.17-1.17-1.17-3.07,0-4.24L94.4,.88c1.17-1.17,3.07-1.17,4.24,0,1.17,1.17,1.17,3.07,0,4.24l-20.65,20.65c-.59,.59-1.35,.88-2.12,.88Z"/></g><g><path class="cls-1" d="M223.5,26.65c-.77,0-1.54-.29-2.12-.88l-20.65-20.65c-1.17-1.17-1.17-3.07,0-4.24,1.17-1.17,3.07-1.17,4.24,0l20.65,20.65c1.17,1.17,1.17,3.07,0,4.24-.59,.59-1.35,.88-2.12,.88Z"/><path class="cls-1" d="M202.85,26.65c-.77,0-1.54-.29-2.12-.88-1.17-1.17-1.17-3.07,0-4.24L221.38,.88c1.17-1.17,3.07-1.17,4.24,0,1.17,1.17,1.17,3.07,0,4.24l-20.65,20.65c-.59,.59-1.35,.88-2.12,.88Z"/></g><g><path class="cls-1" d="M350.48,26.65c-.77,0-1.54-.29-2.12-.88l-20.65-20.65c-1.17-1.17-1.17-3.07,0-4.24,1.17-1.17,3.07-1.17,4.24,0l20.65,20.65c1.17,1.17,1.17,3.07,0,4.24-.59,.59-1.35,.88-2.12,.88Z"/><path class="cls-1" d="M329.83,26.65c-.77,0-1.54-.29-2.12-.88-1.17-1.17-1.17-3.07,0-4.24L348.36,.88c1.17-1.17,3.07-1.17,4.24,0,1.17,1.17,1.17,3.07,0,4.24l-20.65,20.65c-.59,.59-1.35,.88-2.12,.88Z"/></g><g><path class="cls-1" d="M477.46,26.65c-.77,0-1.54-.29-2.12-.88l-20.65-20.65c-1.17-1.17-1.17-3.07,0-4.24,1.17-1.17,3.07-1.17,4.24,0l20.65,20.65c1.17,1.17,1.17,3.07,0,4.24-.59,.59-1.35,.88-2.12,.88Z"/><path class="cls-1" d="M456.81,26.65c-.77,0-1.54-.29-2.12-.88-1.17-1.17-1.17-3.07,0-4.24L475.34,.88c1.17-1.17,3.07-1.17,4.24,0,1.17,1.17,1.17,3.07,0,4.24l-20.65,20.65c-.59,.59-1.35,.88-2.12,.88Z"/></g><g><path class="cls-1" d="M604.44,26.65c-.77,0-1.54-.29-2.12-.88l-20.65-20.65c-1.17-1.17-1.17-3.07,0-4.24,1.17-1.17,3.07-1.17,4.24,0l20.65,20.65c1.17,1.17,1.17,3.07,0,4.24-.59,.59-1.35,.88-2.12,.88Z"/><path class="cls-1" d="M583.79,26.65c-.77,0-1.54-.29-2.12-.88-1.17-1.17-1.17-3.07,0-4.24L602.32,.88c1.17-1.17,3.07-1.17,4.24,0,1.17,1.17,1.17,3.07,0,4.24l-20.65,20.65c-.59,.59-1.35,.88-2.12,.88Z"/></g><g><path class="cls-1" d="M731.42,26.65c-.77,0-1.54-.29-2.12-.88l-20.65-20.65c-1.17-1.17-1.17-3.07,0-4.24,1.17-1.17,3.07-1.17,4.24,0l20.65,20.65c1.17,1.17,1.17,3.07,0,4.24-.59,.59-1.35,.88-2.12,.88Z"/><path class="cls-1" d="M710.77,26.65c-.77,0-1.54-.29-2.12-.88-1.17-1.17-1.17-3.07,0-4.24L729.3,.88c1.17-1.17,3.07-1.17,4.24,0,1.17,1.17,1.17,3.07,0,4.24l-20.65,20.65c-.59,.59-1.35,.88-2.12,.88Z"/></g><g><path class="cls-1" d="M858.4,26.65c-.77,0-1.54-.29-2.12-.88l-20.65-20.65c-1.17-1.17-1.17-3.07,0-4.24,1.17-1.17,3.07-1.17,4.24,0l20.65,20.65c1.17,1.17,1.17,3.07,0,4.24-.59,.59-1.35,.88-2.12,.88Z"/><path class="cls-1" d="M837.75,26.65c-.77,0-1.54-.29-2.12-.88-1.17-1.17-1.17-3.07,0-4.24L856.28,.88c1.17-1.17,3.07-1.17,4.24,0,1.17,1.17,1.17,3.07,0,4.24l-20.65,20.65c-.59,.59-1.35,.88-2.12,.88Z"/></g></g></g></g></svg>