<?xml version="1.0" encoding="UTF-8"?><svg id="Layer_2" xmlns="http://www.w3.org/2000/svg" viewBox="0 0 433.11 546.58"><defs><style>.cls-1{fill:#fff;}</style></defs><g id="Layer_1-2"><g><path d="M351.51,59.11c-6.84,14.71-13.25,29.34-20.61,43.47-1.14,2.19-6.63,2.11-11.36,3.44,1.29-3.54,1.9-5.21,2.79-7.66-8.65,0-16.88-.19-25.08,.1-2.94,.11-4.8,6.01-2.75,8.27,5.79,6.41,11.71,12.69,17.88,19.34,7.66-7.24,16.11-12.67,26.01-15.62,30.94-9.21,58.97,3.56,74.8,33.98,9.68,18.59,14.2,38.67,17.01,59.18,6.01,43.72,3.01,86.67-11.86,128.49-15.94,44.81-41.47,83.61-73.92,118.08-36.41,38.67-79.06,69.22-124.83,95.67-1.48,.86-4.25,1.05-5.66,.23-42.44-24.44-82.29-52.43-116.93-87.31-41.89-42.18-73.58-90.55-88.86-148.66C-1.15,274.79-1.94,239.04,3,203.06c2.49-18.18,6.44-36,14.08-52.84,4.88-10.75,11.54-20.16,20.01-28.4C70.18,89.68,103.45,57.71,136.14,25.16,153.24,8.12,173.58,.7,197.22,.04c22.42-.63,42.23,6.24,60.16,19.29,1.88,1.37,3.84,2.65,5.71,4.03,7.89,5.81,16.46,9.57,26.5,8.13,16.13-2.31,29.83,2.21,41.93,13.18,5.99,5.43,13.15,9.57,19.98,14.44ZM21.81,164.78c-.03,.05-.28,.44-.44,.86-.48,1.24-1,2.47-1.36,3.74-12.34,43.95-14.46,88.33-3.89,132.84,14.33,60.34,47.26,109.9,90.9,152.89,30.19,29.73,64.36,54.24,100.44,76.3,6.69,4.09,11.24,4.21,17.99,.1,49.43-30.09,94.8-64.91,131.38-110.25,28.49-35.32,49.55-74.48,60.19-118.81,8.12-33.83,8.36-67.98,3.02-102.22-2.8-17.98-7.11-35.54-15.65-51.83-18.51-35.31-57.41-41.98-85.84-14.76-1.44,1.38-4.05,2.16-6.12,2.17-61,.11-121.99,.09-182.99,.1q-10.83,0-14.15,10.58c-.4,1.27-.78,2.54-1.24,3.79-5.9,16.06-9.29,32.26-6.77,49.67,1.83,12.62,1.66,25.54,2.4,38.52-3.44,1.01-6.55,1.92-9.71,2.85-7.82-13.02-15.39-25.75-23.14-38.37-.89-1.44-2.73-3.12-4.23-3.22-5.54-.38-11.13-.15-17.22-.15,12.2,15.94,24.2,31.63,36.22,47.33-2.29,2.68-4.43,5.19-6.72,7.87-19.23-8.98-38.31-18.03-57.54-26.75-3.44-1.56-4.35-3.49-3.81-6.84,1.9-11.83,3.76-23.66,5.55-35.5,.26-1.74,.61-3.77-.02-5.28-2.22-5.33-4.84-10.5-7.25-15.58Zm97.88-38.8h103.84c.22-.37,.45-.73,.67-1.1-1.79-1.48-3.93-2.69-5.29-4.49-3.14-4.18-7.09-5.31-12.14-4.96-5.89,.4-11.84,.09-19.07,.09,12.42-13.69,17.74-28.4,11.43-45.25-6.36-16.98-19.68-25.27-37.22-27.04-1.36-4.33,.9-4.69,4.08-4.43,30.86,2.59,50.8,32.24,41.65,61.97-.46,1.48-.78,3-1.29,4.99,1.98,0,3.31,.15,4.6-.03,4.86-.66,8.48,1.05,11.73,4.78,4.15,4.76,8.83,9.06,13.38,13.47,1.02,.99,2.41,2.26,3.66,2.28,10.9,.18,21.81,.1,33.86,.1-6.12-7.2-11.48-13.51-16.85-19.82,.41-.51,.81-1.02,1.22-1.53,2.36,1.15,5.01,1.93,7.02,3.53,5.48,4.34,11.08,8.64,15.9,13.66,5.21,5.43,11.1,4.3,18.27,3.81-3.91-4.21-7.17-7.71-10.42-11.2-7.41-7.95-7.57-8.03-2.76-17.83,1.59-3.25,1.17-5.11-1.28-7.71-4.7-5-7.02-11.08-6.04-17.98,3.4-1.21,4.36,.02,5.13,2.93,2.55,9.61,9.01,14.28,19,14.31,6.83,.02,13.67-.13,20.49,.07,2.89,.08,4.47-.79,5.63-3.53,2.73-6.43,5.65-12.79,8.85-18.99,1.45-2.81,1.15-4.34-1.48-6.1-6.5-4.36-13.02-8.72-19.12-13.61-4.82-3.86-9.83-5.85-16.01-5.1-19.58,2.4-36.5-3.24-51.93-15.6-11.46-9.18-25.08-14.5-39.92-15.63-23.55-1.79-45.56,1.87-63.35,19.19-18.5,18.01-36.96,36.05-55.43,54.08-1.13,1.1-2.15,2.32-3.93,4.26h33.13v38.41Zm-9.43-28.68c-11.47,0-21.95-.07-32.42,.09-1.28,.02-2.77,1.02-3.76,1.98-10.91,10.52-21.87,20.99-32.55,31.74-10.62,10.68-13.15,25.99-6.93,39.18,6.19,13.13,19.72,21.13,33.97,20.09,14.51-1.06,26.59-10.86,30.97-25.14,2.53-8.27,4.64-16.69,7.6-24.79,5.12-13.98,2.05-28.3,3.12-43.15Z"/><path class="cls-1" d="M21.81,164.78c2.4,5.09,5.03,10.25,7.25,15.58,.63,1.51,.28,3.54,.02,5.28-1.79,11.84-3.66,23.68-5.55,35.5-.54,3.35,.37,5.28,3.81,6.84,19.23,8.72,38.31,17.77,57.54,26.75,2.28-2.67,4.43-5.18,6.72-7.87-12.01-15.7-24.02-31.39-36.22-47.33,6.1,0,11.68-.23,17.22,.15,1.5,.1,3.34,1.78,4.23,3.22,7.75,12.62,15.32,25.35,23.14,38.37,3.17-.93,6.28-1.84,9.71-2.85-.73-12.98-.57-25.89-2.4-38.52-2.53-17.41,.87-33.61,6.77-49.67,.46-1.25,.84-2.52,1.24-3.79q3.31-10.58,14.15-10.58c61,0,121.99,.02,182.99-.1,2.07,0,4.68-.79,6.12-2.17,28.43-27.21,67.33-20.54,85.84,14.76,8.54,16.29,12.85,33.85,15.65,51.83,5.33,34.25,5.1,68.4-3.02,102.22-10.65,44.34-31.7,83.49-60.19,118.81-36.57,45.34-81.95,80.16-131.38,110.25-6.75,4.11-11.3,3.99-17.99-.1-36.08-22.06-70.26-46.57-100.44-76.3-43.65-42.99-76.58-92.55-90.9-152.89-10.57-44.51-8.45-88.88,3.89-132.84,.36-1.28,.88-2.5,1.36-3.74,.16-.42,.42-.81,.44-.86Zm176.73,66.2c-1.27,5.88-2.38,10.55-3.26,15.26-.55,2.94-2.03,4.47-4.99,5.29-6.41,1.77-12.71,3.91-19.05,5.94-7.4,2.36-14.79,4.75-22.02,7.08,.3,3.64,.55,6.68,.9,10.89-12.15-4.87-22.87-10.45-35.5-10.5-12.57-.05-23.05,6.25-35.13,10.15,.44-4.32,.78-7.56,1.13-11.03-19.35-6.42-38.47-12.77-58.49-19.42,.71,10.6,1.34,20.15,1.87,28.08,8.62,2.84,16.17,4.76,23.24,7.78,15.45,6.6,30.84,7.12,45.87-.33,14.92-7.4,29.29-7.29,44,.25,9.29,4.77,19.38,6.3,29.63,4.39,6.94-1.29,13.68-3.71,20.64-5.66-.27,2.08-.59,4.58-.94,7.32,2.92-.4,5.29-.72,8.84-1.2-1.6,3.78-2.03,8.01-4.07,9.03-7.1,3.54-14.55,6.86-22.24,8.61-10.05,2.29-20.12,1.1-29.64-3.71-16.22-8.2-32.59-8.18-48.94-.09-2.82,1.39-5.77,2.71-8.82,3.4-11.59,2.65-22.76,1.55-33.45-4.04-6.33-3.31-13.03-5.5-20.96-4.05,1.16,2.36,2.47,4.91,4.5,5.79,4.99,2.15,10.53,3.06,15.47,5.3,15.54,7.07,30.97,7.22,46.25-.3,14.5-7.14,28.69-7.01,43.17,.08,15.11,7.4,30.45,7.41,45.75,.27,2.52-1.18,5.11-2.22,8.65-3.76-1.47,6.74-2.67,12.55-4.06,18.31-.19,.78-1.23,1.51-2.05,1.95-15.26,8.33-30.57,9.92-46.7,1.77-14.97-7.56-30.69-7.77-45.76-.35-15.24,7.51-29.92,7.67-44.95-.17-3.83-2-8.21-2.94-13.22-4.67,.85,2.75,1.24,4.18,1.73,5.57,11.14,31.74,27.72,60.45,48.59,86.72,35.41,44.56,79.49,78.9,127.85,108.18,3.15,1.91,5.36,1.8,8.48-.09,26.25-15.93,51.38-33.41,74.68-53.44,36.75-31.6,67.83-67.76,89.07-111.69,5.31-10.99,9.68-22.43,14.48-33.66l-1.35-1.46c-5.02,1.94-10.17,3.6-15.03,5.88-12.31,5.78-24.9,6.85-37.11,.81-18.38-9.11-36.17-9.2-54.57-.04-14.93,7.43-29.51,3.91-43.43-3.74-.75-.41-1.47-1.41-1.66-2.26-2.47-11.14-4.84-22.31-7.35-34.02,2.97,.37,5.33,.66,8.41,1.04-1.51-6.63-2.99-12.72-4.21-18.85-.32-1.62-.48-4.04,.44-5.03,8.56-9.27,17.37-18.32,26.17-27.5,7.23,5.26,13.36,9.72,19.91,14.47,9.97-9.82,19.64-19.36,29.92-29.49,9.39,9.47,18.96,19.13,28.68,28.93,6.03-4.39,12.05-8.77,18.4-13.4,14.06,13.87,27.98,27.6,41.92,41.36,.09-.34,.25-.78,.31-1.23,3.68-28.69,2.24-57.18-3.58-85.46-3.3-16.07-8.18-31.5-18.03-45.05-16.65-22.9-48.74-17.36-61.14,.13-1.9,2.68-3.85,3.47-6.97,3.46-33.66-.1-67.33-.01-100.99-.12-3.14-.01-5.23,.84-7.16,3.37-17.13,22.55-34.36,45.01-51.58,67.49-6.97,9.1-13.97,18.17-21,27.3,2.5,2.92,4.73,5.53,7.03,8.22,17.67-7.98,35.08-15.83,53.4-24.1Zm-72.83-81.93c-.21,1.4-.46,2.53-.53,3.67-1.57,25.57-3.18,51.13-4.66,76.7-.53,9.26-.39,9.27,8.52,11.75,.14,.04,.32-.06,.94-.2,18.15-30.28,36.46-60.84,55.09-91.92h-59.36Zm170.29,135.97c-3.45,4.45-3.67,8.09-.77,10.72,3.07,2.78,9.8,2.87,13.04,.18,3.22-2.68,3.05-6.02-.53-10.91,2.58-4.37,2.47-7.45-.36-9.74-2.95-2.39-8.36-2.42-11.14,.13-3.18,2.92-2.59,6.15-.24,9.62Zm79,0c2.36-3.58,2.92-6.8-.31-9.69-2.79-2.5-8.41-2.52-11.15,0-3.29,3.04-2.73,6.41-.2,9.75-3.1,3.31-4.49,6.84-.89,10.55,3,3.08,10.29,3,13.39,.04,2.83-2.7,2.57-6.21-.85-10.66Zm-32.74-11.07c-3.5,.58-6.74,.15-7.96,1.52-3.03,3.4-5.77,7.38-7.46,11.59-1.94,4.85,1.29,9.57,6.17,10.56,5.87,1.19,11.12-1.19,12.39-5.63,1.55-5.39-1.09-9.29-7.88-11.42,1.33-1.86,2.63-3.68,4.73-6.62Zm-76.88,.7c.14,1.72-.17,4.15,.43,4.39,4.22,1.73,2.43,5.24,2.64,8.04,.24,3.25,.06,6.53,.06,9.9h5.96v-22.33h-9.08Z"/><path class="cls-1" d="M119.7,125.98v-38.41h-33.13c1.78-1.94,2.8-3.16,3.93-4.26,18.47-18.04,36.94-36.08,55.43-54.08,17.79-17.32,39.8-20.98,63.35-19.19,14.84,1.13,28.47,6.45,39.92,15.63,15.43,12.36,32.35,18,51.93,15.6,6.18-.76,11.18,1.23,16.01,5.1,6.1,4.88,12.62,9.25,19.12,13.61,2.63,1.76,2.93,3.29,1.48,6.1-3.2,6.21-6.12,12.57-8.85,18.99-1.17,2.74-2.74,3.62-5.63,3.53-6.83-.2-13.66-.05-20.49-.07-9.99-.02-16.44-4.7-19-14.31-.77-2.91-1.74-4.14-5.13-2.93-.99,6.91,1.33,12.98,6.04,17.98,2.45,2.6,2.87,4.46,1.28,7.71-4.81,9.8-4.65,9.88,2.76,17.83,3.26,3.5,6.51,7,10.42,11.2-7.16,.48-13.06,1.62-18.27-3.81-4.82-5.02-10.42-9.33-15.9-13.66-2.01-1.59-4.66-2.37-7.02-3.53-.41,.51-.81,1.02-1.22,1.53,5.37,6.31,10.73,12.62,16.85,19.82-12.05,0-22.96,.08-33.86-.1-1.24-.02-2.63-1.28-3.66-2.28-4.55-4.4-9.23-8.71-13.38-13.47-3.25-3.73-6.87-5.45-11.73-4.78-1.29,.18-2.62,.03-4.6,.03,.51-1.99,.83-3.51,1.29-4.99,9.15-29.73-10.79-59.38-41.65-61.97-3.17-.27-5.44,.1-4.08,4.43,17.54,1.77,30.86,10.06,37.22,27.04,6.31,16.85,.99,31.56-11.43,45.25,7.23,0,13.17,.31,19.07-.09,5.05-.35,9,.79,12.14,4.96,1.36,1.8,3.5,3.01,5.29,4.49-.22,.37-.45,.73-.67,1.1H119.7ZM254.29,51.9c.44-.33,.88-.66,1.33-.99-1.73-3.6,2.12-8.29-2.77-11.26-6.82-4.13-13.53-8.46-20.5-12.31-11.65-6.44-24.28-8.76-37.49-7.85-1.06,.07-2.03,1.39-3.05,2.13,1.01,.78,1.91,1.79,3.05,2.28,1.02,.44,2.28,.34,3.43,.4,11.39,.55,21.84,4.01,31.27,10.39,5.36,3.63,10.5,7.6,15.79,11.33,2.92,2.05,5.96,3.93,8.94,5.89Zm24.23,10.38c4.61,.3,12.38-7.75,11.66-11.71h-11.66v11.71Zm40.9-2.61c-3.51-2.24-5.67-4.71-7.44-4.46-1.9,.27-4.57,2.92-4.87,4.86-.47,2.98,1.98,5.62,5.23,4.95,2.08-.43,3.77-2.74,7.07-5.35Z"/><path class="cls-1" d="M110.27,97.3c-1.07,14.85,1.99,29.17-3.12,43.15-2.97,8.11-5.07,16.53-7.6,24.79-4.37,14.28-16.46,24.08-30.97,25.14-14.24,1.04-27.78-6.96-33.97-20.09-6.22-13.2-3.69-28.5,6.93-39.18,10.68-10.75,21.64-21.22,32.55-31.74,1-.96,2.49-1.96,3.76-1.98,10.48-.16,20.96-.09,32.42-.09Zm-9.75,10.86c-4.99-.89-7.62-1.15-9.81,2.39-10.83,17.53-21.92,34.9-32.91,52.33-.24,.38-.24,.91-.41,1.61,1.04,.73,2.08,1.45,3.39,2.36,1.35-1.79,2.56-3.34,3.72-4.93,10.61-14.49,21.32-28.9,31.74-43.53,1.95-2.74,2.7-6.33,4.28-10.22Z"/><path d="M198.54,230.97c-18.31,8.26-35.72,16.12-53.4,24.1-2.3-2.69-4.53-5.3-7.03-8.22,7.02-9.13,14.03-18.2,21-27.3,17.22-22.48,34.45-44.94,51.58-67.49,1.92-2.53,4.02-3.38,7.16-3.37,33.66,.11,67.33,.02,100.99,.12,3.12,0,5.07-.78,6.97-3.46,12.4-17.49,44.49-23.03,61.14-.13,9.85,13.55,14.73,28.98,18.03,45.05,5.81,28.28,7.26,56.77,3.58,85.46-.06,.45-.22,.89-.31,1.23-13.94-13.75-27.87-27.49-41.92-41.36-6.35,4.62-12.38,9.01-18.4,13.4-9.72-9.8-19.29-19.46-28.68-28.93-10.28,10.13-19.96,19.66-29.92,29.49-6.54-4.76-12.67-9.21-19.91-14.47-8.8,9.18-17.61,18.22-26.17,27.5-.91,.99-.76,3.4-.44,5.03,1.22,6.14,2.7,12.22,4.21,18.85-3.08-.38-5.44-.67-8.41-1.04,2.51,11.72,4.89,22.88,7.35,34.02,.19,.85,.91,1.84,1.66,2.26,13.92,7.65,28.5,11.17,43.43,3.74,18.4-9.16,36.19-9.07,54.57,.04,12.21,6.05,24.8,4.98,37.11-.81,4.86-2.28,10.01-3.94,15.03-5.88l1.35,1.46c-4.8,11.23-9.17,22.67-14.48,33.66-21.24,43.93-52.33,80.1-89.07,111.69-23.3,20.03-48.44,37.5-74.68,53.44-3.12,1.89-5.33,2-8.48,.09-48.36-29.28-92.44-63.63-127.85-108.18-20.87-26.26-37.46-54.98-48.59-86.72-.49-1.39-.88-2.82-1.73-5.57,5,1.73,9.39,2.67,13.22,4.67,15.03,7.84,29.71,7.68,44.95,.17,15.08-7.43,30.79-7.21,45.76,.35,16.13,8.14,31.44,6.56,46.7-1.77,.81-.44,1.86-1.18,2.05-1.95,1.39-5.76,2.59-11.57,4.06-18.31-3.54,1.54-6.13,2.58-8.65,3.76-15.3,7.14-30.64,7.13-45.75-.27-14.48-7.09-28.67-7.22-43.17-.08-15.28,7.52-30.7,7.37-46.25,.3-4.94-2.24-10.47-3.15-15.47-5.3-2.03-.88-3.34-3.43-4.5-5.79,7.93-1.45,14.63,.74,20.96,4.05,10.69,5.59,21.86,6.68,33.45,4.04,3.04-.7,6-2.01,8.82-3.4,16.35-8.09,32.72-8.11,48.94,.09,9.52,4.81,19.59,6,29.64,3.71,7.69-1.75,15.14-5.07,22.24-8.61,2.04-1.02,2.47-5.25,4.07-9.03-3.55,.48-5.92,.8-8.84,1.2,.35-2.74,.67-5.24,.94-7.32-6.96,1.95-13.7,4.36-20.64,5.66-10.25,1.91-20.33,.37-29.63-4.39-14.71-7.54-29.07-7.65-44-.25-15.03,7.45-30.42,6.93-45.87,.33-7.07-3.02-14.62-4.94-23.24-7.78-.53-7.93-1.17-17.48-1.87-28.08,20.02,6.64,39.14,12.99,58.49,19.42-.36,3.47-.69,6.71-1.13,11.03,12.08-3.9,22.56-10.2,35.13-10.15,12.63,.05,23.35,5.63,35.5,10.5-.35-4.21-.6-7.25-.9-10.89,7.24-2.33,14.62-4.72,22.02-7.08,6.34-2.02,12.64-4.17,19.05-5.94,2.96-.82,4.44-2.35,4.99-5.29,.88-4.71,1.99-9.39,3.26-15.26Zm7.93,42.28c-4.62,22.18-9.07,43.57-13.62,65.41,3.82-.51,6.82-.92,10.36-1.39-4.82,23.16-9.48,45.54-14.37,69.09,7.82-3.12,14.72-5.44,21.2-8.61,4.68-2.28,8.63-1.94,13.16,.12,6.57,2.99,13.39,5.41,21.06,8.45-4.91-23.6-9.58-46.1-14.36-69.05,3.87,.5,6.89,.9,10.34,1.34-4.62-22.21-9.09-43.72-13.63-65.55,3.02,.39,5.22,.68,7.87,1.03-5.8-30.88-11.49-61.19-17.18-91.5-.53,.05-1.06,.09-1.58,.14-5.67,30.31-11.34,60.62-17.08,91.34,2.82-.3,5.04-.53,7.83-.83Zm46.19,77.81c-3.9-.61-7.06-1.11-10.73-1.69,5.29,24.79,10.41,48.81,15.68,73.51-10.03-4.91-19.36-9.47-29.48-14.42,.49,6.55,.91,12.12,1.27,16.8,7.54,2.18,14.8,3.23,21.06,6.3,15.72,7.73,30.87,7.74,46.4-.24,3.37-1.73,4.38-3.5,4.36-7.11-.15-26.48-.09-52.96-.09-79.44,0-1.86,0-3.72,0-5.83,5.37,1.78,6.64,4.8,6.61,9.4-.2,25.98,0,51.97-.18,77.95-.03,4.51,1.76,6.89,5.96,8.6,0-28.6-.33-56.75,.21-84.88,.15-7.74-1.9-12.79-8.56-16.59-2.63-1.5-4.4-1.88-7.19-.6-4.35,1.99-8.9,3.86-13.56,4.8-11.86,2.41-23.48,1.23-35.38-4.51,1.27,6.29,2.37,11.75,3.62,17.94Zm-68.59-17.86c-15.81,7.07-31.03,7.89-45.81,.95-5.68-2.66-9.4-2.22-13.56,1.81-2.29,2.22-5.23,3.36-5.19,7.67,.24,28.99,.12,57.99,.13,86.98,0,1.34,.22,2.68,.35,4.2,4.41-1.94,5.52-4.8,5.49-8.99-.19-25.83,.06-51.66-.23-77.48-.06-5.27,2.09-7.8,7.01-9.68,0,2.39,0,4.34,0,6.29,0,26.66-.04,53.32,.07,79.98,0,1.75,.56,4.43,1.75,5.1,13.2,7.39,27,10.02,41.69,4.49,8.92-3.36,17.94-6.44,27.89-9.99,.29-3.99,.7-9.54,1.17-15.99-10.1,4.91-19.37,9.43-29.32,14.27,5.3-24.88,10.41-48.86,15.64-73.4-3.88,.56-7.06,1.02-10.7,1.54,1.22-5.98,2.33-11.44,3.62-17.77Zm39.68,148.18c0-5.27,.11-10.05-.02-14.83-.53-18.94-1.2-37.87-1.67-56.81-.1-3.92-1.65-6.65-5.53-6.65-3.96,0-5.21,2.79-5.31,6.72-.51,20.27-1.3,40.52-1.94,60.79-.11,3.56-.02,7.12-.02,10.78h14.48Zm83.38-41.32c-2.11-4.03-4.95-4.19-8.68-2.25-16.9,8.81-33.7,8.24-50.77-.06-4.93-2.4-10.8-2.86-16.26-4.14-.35-.08-.83,.35-1.41,.62,.22,1.5,.43,2.93,.65,4.4,2.54,.43,4.89,.63,7.1,1.26,2.39,.68,4.75,1.58,6.96,2.69,21.27,10.7,42,9.01,62.39-2.52Zm-181.21-.19c14.68,9,30.63,12.25,47.32,8.22,9.89-2.39,19.29-6.8,29.33-10.45,.05-.82,.14-2.25,.33-5.31-6.66,2.03-12.94,3.09-18.43,5.76-16.79,8.18-33.3,8.23-49.81-.25-3.83-1.96-6.56-1.58-8.74,2.02Zm208.24-255.41c-.36-.4-.73-.8-1.09-1.2-3.42-.26-7.7,.64-10.01-1.09-2.45-1.84-3.03-6.18-4.94-10.61-.97,2.59-1.7,4.01-2.03,5.53-.92,4.25-2.8,6.86-7.77,5.84-1.54-.32-3.27,.25-4.91,.42-.07,.42-.14,.83-.2,1.25,2.72,2.06,5.44,4.11,8.23,6.22-1.05,3.58-2.04,6.96-3.43,11.66,4.33-2.64,7.34-5.91,10.39-5.94,2.92-.03,5.87,3.3,8.8,5.16,.53-.09,1.06-.17,1.59-.26-5.28-7.97-3.23-13.53,5.38-16.96Zm16.76,16.93c9.46,4.01,9.43,10.42,5.66,18.11,.47,0,.94-.02,1.41-.03,2.96-1.99,5.91-3.98,8.77-5.91,3.15,2.1,6.06,4.03,8.97,5.97,.33-2.63-.04-4.57-.84-6.3-1.57-3.4-1.01-5.81,2.43-7.68,1.69-.92,3.01-2.5,4.5-3.78,.07-.57,.14-1.13,.21-1.7-9.68,3.25-13.37-1.92-15.48-10.38-1.05,9.76-6.38,12.69-15.62,11.69Zm-65.54-.41c-9.39,1.7-14.23-1.88-15.24-11.03-2.14,3.78-2.63,8.21-5.06,9.96-2.43,1.76-6.8,.84-10.69,1.11,.56,1.03,.68,1.65,1.02,1.82,6.39,3.06,8.61,7.54,5.07,14.17-.28,.53,.06,1.4,.15,2.74,3.38-2.3,6.22-4.24,9.18-6.26,2.99,2.11,5.89,4.16,8.78,6.2,.86,.03,1.72,.07,2.59,.1-7.37-8.71-3.29-13.92,4.2-18.82Z"/><path d="M125.71,149.05h59.36c-18.63,31.09-36.94,61.64-55.09,91.92-.61,.14-.79,.24-.94,.2-8.91-2.48-9.05-2.49-8.52-11.75,1.48-25.57,3.08-51.14,4.66-76.7,.07-1.14,.32-2.27,.53-3.67Z"/><path d="M296.01,285.02c-2.35-3.47-2.94-6.7,.24-9.62,2.78-2.56,8.19-2.52,11.14-.13,2.82,2.29,2.94,5.37,.36,9.74,3.59,4.89,3.75,8.24,.53,10.91-3.24,2.69-9.97,2.6-13.04-.18-2.9-2.63-2.68-6.27,.77-10.72Z"/><path d="M375.01,285.02c3.42,4.45,3.68,7.97,.85,10.66-3.1,2.95-10.4,3.04-13.39-.04-3.6-3.71-2.21-7.23,.89-10.55-2.52-3.34-3.09-6.71,.2-9.75,2.74-2.53,8.35-2.51,11.15,0,3.23,2.89,2.67,6.11,.31,9.69Z"/><path d="M342.27,273.95c-2.11,2.95-3.4,4.76-4.73,6.62,6.79,2.12,9.42,6.03,7.88,11.42-1.27,4.43-6.53,6.82-12.39,5.63-4.88-.99-8.11-5.71-6.17-10.56,1.69-4.21,4.43-8.18,7.46-11.59,1.22-1.37,4.46-.93,7.96-1.52Zm-6.08,11.2c-1.57,2-3.29,3.24-3.17,4.29,.13,1.17,1.76,2.56,3.05,3.04,.54,.2,2.59-1.67,2.64-2.66,.06-1.22-1.26-2.5-2.51-4.66Z"/><path d="M265.39,274.66h9.08v22.33h-5.96c0-3.37,.19-6.65-.06-9.9-.21-2.8,1.59-6.31-2.64-8.04-.59-.24-.29-2.68-.43-4.39Z"/><path d="M254.29,51.9c-2.98-1.96-6.02-3.84-8.94-5.89-5.3-3.73-10.43-7.7-15.79-11.33-9.42-6.38-19.87-9.84-31.27-10.39-1.16-.06-2.42,.04-3.43-.4-1.13-.49-2.04-1.49-3.05-2.28,1.01-.74,1.99-2.06,3.05-2.13,13.21-.91,25.84,1.41,37.49,7.85,6.97,3.85,13.68,8.18,20.5,12.31,4.89,2.96,1.04,7.66,2.77,11.26-.44,.33-.88,.66-1.33,.99Z"/><path d="M278.52,62.29v-11.71h11.66c.72,3.96-7.05,12.01-11.66,11.71Z"/><path d="M319.42,59.68c-3.3,2.61-4.99,4.92-7.07,5.35-3.25,.67-5.7-1.97-5.23-4.95,.3-1.93,2.97-4.58,4.87-4.86,1.77-.25,3.93,2.21,7.44,4.46Z"/><path d="M100.52,108.16c-1.59,3.9-2.33,7.49-4.28,10.22-10.41,14.63-21.12,29.05-31.74,43.53-1.16,1.59-2.37,3.14-3.72,4.93-1.31-.91-2.34-1.63-3.39-2.36,.17-.69,.17-1.22,.41-1.61,10.98-17.44,22.08-34.8,32.91-52.33,2.18-3.53,4.81-3.28,9.81-2.39Z"/><path class="cls-1" d="M206.47,273.25c-2.79,.3-5.01,.53-7.83,.83,5.74-30.72,11.41-61.03,17.08-91.34,.53-.05,1.06-.09,1.58-.14,5.69,30.31,11.38,60.62,17.18,91.5-2.65-.35-4.85-.63-7.87-1.03,4.54,21.83,9.01,43.35,13.63,65.55-3.45-.45-6.47-.84-10.34-1.34,4.77,22.95,9.45,45.45,14.36,69.05-7.67-3.04-14.49-5.47-21.06-8.45-4.53-2.06-8.48-2.41-13.16-.12-6.48,3.16-13.38,5.48-21.2,8.61,4.9-23.55,9.56-45.93,14.37-69.09-3.54,.48-6.54,.88-10.36,1.39,4.55-21.85,9.01-43.24,13.62-65.41Z"/><path class="cls-1" d="M252.67,351.07c-1.25-6.2-2.35-11.66-3.62-17.94,11.9,5.74,23.52,6.92,35.38,4.51,4.66-.95,9.21-2.81,13.56-4.8,2.79-1.28,4.55-.9,7.19,.6,6.66,3.8,8.71,8.85,8.56,16.59-.54,28.13-.21,56.28-.21,84.88-4.2-1.7-5.99-4.09-5.96-8.6,.19-25.98-.01-51.97,.18-77.95,.03-4.6-1.24-7.62-6.61-9.4,0,2.11,0,3.97,0,5.83,0,26.48-.07,52.96,.09,79.44,.02,3.62-.99,5.38-4.36,7.11-15.53,7.99-30.68,7.97-46.4,.24-6.26-3.08-13.51-4.12-21.06-6.3-.35-4.69-.77-10.26-1.27-16.8,10.12,4.95,19.45,9.51,29.48,14.42-5.27-24.71-10.39-48.72-15.68-73.51,3.68,.58,6.84,1.07,10.73,1.69Zm1.22,1.97c-.72,7.7-.75,7.83,5.85,9.35,9.88,2.27,19.77,2.37,29.53-.68,6.17-1.93,6.33-2.31,4.95-9.27-13.19,6.35-26.54,6.71-40.33,.6Zm5.09,28.88c-1.26,6.82-1.29,6.99,4.93,8.02,8.8,1.45,17.55,1.17,26.09-1.7,5.49-1.85,5.89-2.81,3.85-8.91-11.26,5.51-22.95,5.99-34.87,2.59Zm5.72,34.69c8.66,1.68,16.62,.68,24.6-1.41,5.05-1.33,6.83-4.06,5.46-7.89-10.09,1.44-19.94,2.85-30.06,4.3v5.01Z"/><path class="cls-1" d="M184.07,333.2c-1.29,6.33-2.4,11.8-3.62,17.77,3.63-.52,6.81-.98,10.7-1.54-5.23,24.53-10.34,48.51-15.64,73.4,9.95-4.84,19.23-9.36,29.32-14.27-.47,6.44-.88,12-1.17,15.99-9.95,3.55-18.97,6.63-27.89,9.99-14.69,5.53-28.49,2.9-41.69-4.49-1.19-.67-1.75-3.35-1.75-5.1-.11-26.66-.07-53.32-.07-79.98,0-1.95,0-3.9,0-6.29-4.93,1.88-7.07,4.41-7.01,9.68,.29,25.82,.04,51.65,.23,77.48,.03,4.19-1.07,7.05-5.49,8.99-.13-1.52-.35-2.86-.35-4.2-.02-28.99,.1-57.99-.13-86.98-.04-4.31,2.9-5.45,5.19-7.67,4.16-4.04,7.88-4.48,13.56-1.81,14.78,6.93,30,6.12,45.81-.95Zm-45.32,19.19c-1.84,5.43,0,7.95,4.78,9.33,10.01,2.88,20.03,2.99,30.07,.6,6.41-1.52,6.55-2.04,5.34-9.11-13.42,5.85-26.79,5.62-40.2-.82Zm.11,26.86c-1.97,5.23-.23,7.75,4.57,9.17,8.63,2.54,17.3,2.92,26.08,1.48,5.93-.98,6.28-1.75,4.5-7.99-12.03,3.61-23.81,2.73-35.16-2.66Zm-1.27,27.89c.71,1.83,.97,5.49,2.62,6.29,8.84,4.28,18.3,5.01,27.96,3.2v-4.99c-10.14-1.49-19.82-2.92-30.58-4.5Z"/><path class="cls-1" d="M223.76,481.39h-14.48c0-3.66-.1-7.23,.02-10.78,.64-20.26,1.43-40.52,1.94-60.79,.1-3.93,1.34-6.72,5.31-6.72,3.88,0,5.43,2.73,5.53,6.65,.47,18.94,1.14,37.87,1.67,56.81,.13,4.77,.02,9.56,.02,14.83Z"/><path class="cls-1" d="M307.14,440.07c-20.39,11.52-41.12,13.22-62.39,2.52-2.22-1.11-4.58-2.02-6.96-2.69-2.22-.63-4.56-.83-7.1-1.26-.22-1.47-.43-2.9-.65-4.4,.58-.27,1.05-.7,1.41-.62,5.45,1.29,11.33,1.74,16.26,4.14,17.06,8.31,33.86,8.88,50.77,.06,3.73-1.95,6.57-1.79,8.68,2.25Z"/><path class="cls-1" d="M125.93,439.88c2.18-3.61,4.91-3.99,8.74-2.02,16.51,8.47,33.03,8.43,49.81,.25,5.49-2.68,11.77-3.74,18.43-5.76-.19,3.06-.27,4.49-.33,5.31-10.05,3.66-19.45,8.06-29.33,10.45-16.7,4.03-32.64,.77-47.32-8.22Z"/><path class="cls-1" d="M334.17,184.47c-8.6,3.43-10.66,8.99-5.38,16.96-.53,.09-1.06,.17-1.59,.26-2.94-1.85-5.89-5.19-8.8-5.16-3.05,.03-6.06,3.29-10.39,5.94,1.38-4.7,2.38-8.08,3.43-11.66-2.78-2.1-5.5-4.16-8.23-6.22,.07-.42,.14-.83,.2-1.25,1.64-.16,3.37-.73,4.91-.42,4.97,1.03,6.85-1.59,7.77-5.84,.33-1.51,1.06-2.94,2.03-5.53,1.91,4.43,2.49,8.77,4.94,10.61,2.31,1.73,6.6,.83,10.01,1.09,.36,.4,.73,.8,1.09,1.2Z"/><path class="cls-1" d="M350.93,201.4c9.24,1,14.57-1.94,15.62-11.69,2.12,8.45,5.8,13.63,15.48,10.38-.07,.57-.14,1.13-.21,1.7-1.49,1.28-2.82,2.86-4.5,3.78-3.44,1.87-4,4.28-2.43,7.68,.8,1.73,1.17,3.67,.84,6.3-2.91-1.94-5.82-3.87-8.97-5.97-2.85,1.92-5.81,3.91-8.77,5.91-.47,0-.94,.02-1.41,.03,3.77-7.69,3.8-14.09-5.66-18.11Z"/><path class="cls-1" d="M285.38,200.99c-7.49,4.9-11.57,10.11-4.2,18.82-.86-.03-1.72-.07-2.59-.1-2.9-2.04-5.79-4.09-8.78-6.2-2.97,2.02-5.81,3.96-9.18,6.26-.1-1.34-.44-2.21-.15-2.74,3.55-6.63,1.32-11.11-5.07-14.17-.34-.16-.46-.79-1.02-1.82,3.89-.28,8.26,.64,10.69-1.11,2.43-1.75,2.91-6.18,5.06-9.96,1.01,9.15,5.85,12.73,15.24,11.03Z"/><path class="cls-1" d="M336.19,285.15c1.25,2.17,2.57,3.45,2.51,4.66-.05,.99-2.1,2.86-2.64,2.66-1.28-.47-2.92-1.87-3.05-3.04-.11-1.04,1.6-2.29,3.17-4.29Z"/><path d="M253.88,353.04c13.79,6.11,27.14,5.75,40.33-.6,1.38,6.95,1.22,7.34-4.95,9.27-9.76,3.05-19.65,2.96-29.53,.68-6.6-1.52-6.57-1.65-5.85-9.35Z"/><path d="M258.97,381.91c11.92,3.4,23.61,2.91,34.87-2.59,2.05,6.1,1.65,7.06-3.85,8.91-8.54,2.87-17.29,3.16-26.09,1.7-6.22-1.03-6.19-1.2-4.93-8.02Z"/><path d="M264.69,416.6v-5.01c10.11-1.45,19.96-2.86,30.06-4.3,1.37,3.83-.41,6.57-5.46,7.89-7.97,2.09-15.94,3.09-24.6,1.41Z"/><path d="M138.75,352.39c13.41,6.44,26.77,6.67,40.2,.82,1.21,7.08,1.06,7.59-5.34,9.11-10.04,2.39-20.05,2.28-30.07-.6-4.79-1.38-6.62-3.9-4.78-9.33Z"/><path d="M138.86,379.25c11.34,5.39,23.12,6.27,35.16,2.66,1.79,6.23,1.44,7.01-4.5,7.99-8.78,1.45-17.46,1.06-26.08-1.48-4.81-1.41-6.55-3.94-4.57-9.17Z"/><path d="M137.6,407.14c10.76,1.58,20.44,3.01,30.58,4.5v4.99c-9.66,1.81-19.12,1.08-27.96-3.2-1.65-.8-1.91-4.45-2.62-6.29Z"/></g></g></svg>