<?xml version="1.0" encoding="UTF-8"?><svg id="Layer_2" xmlns="http://www.w3.org/2000/svg" viewBox="0 0 556.69 493.92"><defs><style>.cls-1{fill:#fff;}</style></defs><g id="Layer_1-2"><g><path d="M0,0H242.89V51.51c-.74,.29-1.76,.72-2.81,1.08-12.02,4.13-15.44,10.87-11.1,22.68,11.82,32.11,23.76,64.17,35.66,96.26,3.87,10.43,7.73,20.87,11.61,31.29,.62,1.66,1.37,3.26,2.49,5.88,5.45-14.65,10.54-28.29,15.61-41.94,11.16-30.04,22.3-60.09,33.46-90.14,4.84-13.03,2.28-18.71-10.6-24.11-1.19-.5-2.69-2.15-2.7-3.28-.14-16-.04-32,.02-47.99,0-.29,.26-.58,.54-1.17h241.18c.14,1.41,.39,2.82,.4,4.24,.04,14.5,.1,29-.05,43.5-.02,1.68-.86,4.18-2.12,4.89-11.91,6.73-19.6,17.08-24.42,29.4-11.48,29.39-22.53,58.95-33.63,88.48-30.65,81.62-61.25,163.25-91.83,244.9-1.74,4.66-3.1,9.46-4.58,14.21-1.54,4.96-.02,8.72,4.98,10.31,4.47,1.42,5.41,4.14,5.32,8.54-.29,14.16-.1,28.33-.12,42.5,0,.79-.14,1.59-.24,2.61H147.31c0-8.33,0-16.44,0-24.55,0-7.67,.13-15.34-.04-23-.06-2.7,.74-4.07,3.31-5.22,7.49-3.36,8.74-5.38,6.04-13.22-6.09-17.74-12.65-35.33-19.23-52.9C104.76,287.66,72.07,200.57,39.37,113.5c-4.14-11.03-8.19-22.13-12.89-32.93-5.13-11.81-12.47-21.97-24.38-28.08-.95-.49-2-1.94-2-2.95C-.03,33.22,0,16.91,0,0ZM11.7,10.93c0,10.87-.04,21.34,.07,31.8,.01,.96,.82,2.25,1.65,2.81,13.89,9.45,21.51,23.32,27.22,38.51,39.47,105.06,78.97,210.12,118.26,315.24,3.94,10.54,6.94,21.47,9.71,32.39,1.29,5.09,.52,11.17-4.22,14.06-5.88,3.58-6.03,8.35-5.69,13.93,.16,2.66,.03,5.33,.03,8,0,4.92,0,9.84,0,14.76h239.77c0-10.45,.08-20.58-.11-30.7-.02-1.13-1.31-2.64-2.41-3.29-5.87-3.47-8.42-8.82-7.43-15.19,1.14-7.34,2.71-14.75,5.24-21.71,9.56-26.25,19.62-52.32,29.43-78.48,31.41-83.76,62.73-167.55,94.23-251.27,5.41-14.37,13.09-27.34,26.32-36.15,.74-.49,1.58-1.51,1.59-2.3,.1-10.76,.07-21.53,.07-32.44h-219.71c0,10.01,.09,19.8-.05,29.59-.04,2.88,.91,4.37,3.57,5.71,10.14,5.14,14.15,13.41,12.19,24.76-.56,3.25-1.61,6.45-2.75,9.55-13.33,36.03-26.73,72.03-40.1,108.05-6.52,17.56-13.01,35.12-19.82,53.48-.98-2.28-1.69-3.75-2.26-5.27-13.07-35.24-26.16-70.47-39.18-105.73-7.08-19.19-14.43-38.29-20.89-57.69-3.99-11.97,.81-21.43,12-27.48,1.25-.67,2.87-2.18,2.9-3.34,.22-10.45,.13-20.9,.13-31.61H11.7Z"/><path d="M429.54,493.92c-6.18,.03-10.37-4-10.49-10.08-.12-6.25,4.27-10.82,10.43-10.85,5.85-.03,10.87,5.02,10.72,10.79-.15,5.84-4.64,10.11-10.67,10.14Zm-.04-1.79c4.53-.01,8.65-4.09,8.65-8.57,0-4.44-4.17-8.6-8.65-8.63-4.46-.03-8.52,4.11-8.52,8.66,0,4.82,3.73,8.56,8.52,8.54Z"/><path class="cls-1" d="M11.7,10.93H231.45c0,10.71,.09,21.16-.13,31.61-.02,1.15-1.65,2.66-2.9,3.34-11.19,6.05-15.98,15.5-12,27.48,6.46,19.4,13.81,38.5,20.89,57.69,13.01,35.26,26.11,70.49,39.18,105.73,.57,1.52,1.28,2.99,2.26,5.27,6.8-18.36,13.3-35.93,19.82-53.48,13.37-36.01,26.77-72.02,40.1-108.05,1.15-3.1,2.19-6.3,2.75-9.55,1.96-11.35-2.04-19.62-12.19-24.76-2.66-1.35-3.61-2.83-3.57-5.71,.14-9.79,.05-19.58,.05-29.59h219.71c0,10.91,.03,21.68-.07,32.44,0,.78-.85,1.81-1.59,2.3-13.24,8.81-20.91,21.77-26.32,36.15-31.5,83.72-62.82,167.51-94.23,251.27-9.81,26.16-19.87,52.23-29.43,78.48-2.53,6.96-4.1,14.37-5.24,21.71-.99,6.37,1.56,11.72,7.43,15.19,1.1,.65,2.39,2.16,2.41,3.29,.19,10.12,.11,20.25,.11,30.7H158.73c0-4.91,0-9.83,0-14.76,0-2.67,.14-5.34-.03-8-.34-5.57-.19-10.34,5.69-13.93,4.75-2.89,5.51-8.97,4.22-14.06-2.77-10.92-5.77-21.85-9.71-32.39C119.61,294.17,80.11,189.12,40.65,84.05c-5.71-15.19-13.33-29.06-27.22-38.51-.83-.56-1.64-1.85-1.65-2.81-.12-10.47-.07-20.94-.07-31.8ZM213.03,31.24H121.12c52.51,135.63,104.82,270.77,157.49,406.83,52.75-136.27,105.08-271.45,157.52-406.93h-91.38c.87,1.76,1.18,3.27,2.1,4.1,15.59,13.95,17.72,30.85,10.78,49.59-25.64,69.24-51.36,138.44-77.07,207.66-.51,1.37-1.15,2.7-2.01,4.7-.68-1.47-.98-2.04-1.21-2.65-17.41-46.92-34.83-93.84-52.23-140.77-8.73-23.54-17.71-47-26.06-70.67-6.38-18.06-3.66-34.43,11.24-47.73,.98-.87,1.52-2.24,2.74-4.11Zm312.03-.35c-22.21,0-43.2-.08-64.19,.18-1.31,.02-3.16,2.45-3.81,4.13-53.71,138.49-107.32,277.01-160.94,415.54-1.36,3.51-2.64,7.06-4.06,10.87h86.44c-1.52-2.96-2.23-5.48-3.8-7.22-6.8-7.52-9.99-16.13-8.1-26.17,.98-5.2,2.48-10.36,4.26-15.36,4.41-12.38,9.09-24.66,13.7-36.96,36.45-97.17,72.94-194.32,109.33-291.51,6.82-18.22,14.6-35.78,29.25-49.34,.82-.75,1.02-2.17,1.91-4.17ZM265.2,461.7c-.55-1.63-.96-3.03-1.48-4.38-22.76-58.76-45.54-117.51-68.29-176.27-31.76-82.02-63.52-164.04-95.17-246.11-1.24-3.21-2.75-4.21-6.12-4.15-12.33,.22-24.66,.09-36.99,.09-7.97,0-15.93,0-25.04,0,1.11,2.11,1.51,3.68,2.51,4.63,12.08,11.54,19.94,25.73,25.73,41.15,33.1,88.08,66.15,176.18,99.15,264.3,9.8,26.15,19.51,52.34,29.07,78.58,4.84,13.27,3.42,25.48-7.04,35.95-1.31,1.31-1.44,3.8-2.29,6.22h85.97Z"/><path class="cls-1" d="M429.5,492.13c-4.79,.01-8.51-3.72-8.52-8.54,0-4.56,4.06-8.7,8.52-8.66,4.48,.03,8.65,4.2,8.65,8.63,0,4.48-4.12,8.56-8.65,8.57Zm-3.72-2.71c.31,0,.61-.02,.92-.03,.43-1.56,.86-3.11,1.52-5.49,1.66,2.59,2.78,4.32,3.9,6.06,.61-2.21-.28-4,.05-5.52,1.47-6.8,.66-7.65-6.38-5.94v10.93Z"/><path d="M213.03,31.24c-1.23,1.87-1.76,3.24-2.74,4.11-14.9,13.31-17.61,29.67-11.24,47.73,8.36,23.67,17.33,47.13,26.06,70.67,17.4,46.93,34.81,93.85,52.23,140.77,.22,.6,.53,1.18,1.21,2.65,.86-2,1.5-3.32,2.01-4.7,25.7-69.21,51.43-138.42,77.07-207.66,6.94-18.74,4.81-35.64-10.78-49.59-.92-.83-1.23-2.34-2.1-4.1h91.38c-52.44,135.48-104.77,270.66-157.52,406.93C225.94,302.01,173.63,166.88,121.12,31.24h91.91Z"/><path d="M525.06,30.89c-.89,2-1.09,3.42-1.91,4.17-14.65,13.56-22.43,31.12-29.25,49.34-36.39,97.19-72.88,194.34-109.33,291.51-4.61,12.3-9.29,24.58-13.7,36.96-1.78,5-3.28,10.15-4.26,15.36-1.89,10.04,1.3,18.65,8.1,26.17,1.57,1.74,2.28,4.26,3.8,7.22h-86.44c1.42-3.81,2.7-7.36,4.06-10.87,53.61-138.52,107.23-277.05,160.94-415.54,.65-1.68,2.5-4.12,3.81-4.13,20.99-.26,41.98-.18,64.19-.18Z"/><path d="M265.2,461.7h-85.97c.85-2.42,.98-4.9,2.29-6.22,10.46-10.47,11.88-22.68,7.04-35.95-9.56-26.24-19.27-52.43-29.07-78.58C126.48,252.84,93.44,164.73,60.34,76.65c-5.79-15.42-13.65-29.61-25.73-41.15-.99-.95-1.39-2.52-2.51-4.63,9.1,0,17.07,0,25.04,0,12.33,0,24.67,.13,36.99-.09,3.37-.06,4.89,.94,6.12,4.15,31.65,82.07,63.41,164.09,95.17,246.11,22.75,58.76,45.53,117.51,68.29,176.27,.52,1.35,.93,2.74,1.48,4.38Z"/><path d="M425.78,489.42v-10.93c7.04-1.71,7.86-.86,6.38,5.94-.33,1.52,.56,3.31-.05,5.52-1.12-1.74-2.24-3.48-3.9-6.06-.66,2.38-1.09,3.94-1.52,5.49-.31,0-.61,.02-.92,.03Z"/></g></g></svg>