<?xml version="1.0" encoding="UTF-8"?><svg id="Layer_2" xmlns="http://www.w3.org/2000/svg" viewBox="0 0 72.13 72.13"><defs><style>.cls-1{fill:#a3b69f;}</style></defs><g id="Layer_1-2"><rect class="cls-1" width="72.13" height="72.13" rx="14.74" ry="14.74"/><path d="M14.83,30.17c0-13.47-.36-19.01-.65-20.67,.72,.07,2.3,.14,3.46,.14,1.73,0,5.83-.29,10.58-.29,9.36,0,20.31,1.15,27.43,8.42,3.6,3.74,6.84,9.65,6.84,18.22,0,9.22-3.53,15.99-7.56,20.23-3.46,3.53-10.22,8.35-22.75,8.35-3.02,0-5.76-.14-8.35-.36-3.46-.36-6.34-.72-9.43-.5,.14-3.02,.43-9.58,.43-20.31v-13.25Zm6.19,10.73c0,7.63,.07,13.54,.14,15.48,.07,1.44,.14,2.23,.43,2.45,1.01,.79,5.33,1.66,11.23,1.66s11.59-1.44,15.62-4.9c4.1-3.46,7.34-9.72,7.34-17.79,0-6.19-1.37-11.74-5.11-16.35-4.97-6.05-13.39-8.35-22.61-8.35-2.66,0-5.54,.29-6.62,.58-.22,.14-.29,.29-.29,.5-.14,1.37-.14,8.35-.14,15.77v10.94Z"/><path d="M23.5,26.61c.24-2.24,.43-4.29,.63-6.17,.08-.47,.16-.59,.28-.59,.16,0,.27,.31,.51,.67,.55,.94,2.48,4.76,3.54,6.68l8.69,17.1,7.67-15.18c2.08-3.66,3.22-5.98,4.44-8.42,.39-.71,.59-.86,.71-.86,.16,0,.24,.16,.35,1.1,.16,1.89,.35,3.97,.55,6.1,.87,9.28,1.93,20.76,2.48,23.04-.31-.08-.87-.08-1.69-.08-.98,0-1.89,.04-2.4,.12,.04-2.48-.9-15.02-1.34-22.37-3.34,6.92-7.55,15.02-10.85,21.98-.31,.71-.43,.71-.71,.08-3.93-8.38-7.39-15.22-10.54-22.14-.43,7-1.46,19.98-1.46,22.41-.43-.08-1.14-.08-1.49-.08-.94,0-1.69,.04-2.08,.12,.43-2.08,1.77-14.12,2.71-23.51Z"/></g></svg>