<svg xmlns="http://www.w3.org/200/svg" display="none">
  <symbol id="hamburger-svg" viewbox="0 0 448 512">
    <!--! Font Awesome Pro 6.2.0 by @fontawesome - https://fontawesome.com License - https://fontawesome.com/license (Commercial License) Copyright 2022 Fonticons, Inc. -->
    <path d="M0 64H448v64H0V64zM0 224H448v64H0V224zM448 384v64H0V384H448z"/></svg>
  </symbol>

  <symbol id="laptop-svg" viewBox="0 0 640 512"><!--! Font Awesome Pro 6.2.0 by @fontawesome - https://fontawesome.com License - https://fontawesome.com/license (Commercial License) Copyright 2022 Fonticons, Inc. -->
    <path d="M96 32H64V64 352h64V96H512V352h64V64 32H544 96zM0 384v48l48 48H592l48-48V384H0z"/>
  </symbol>

  <symbol id="ads-svg" viewBox="0 0 250.8 312.8" style="enable-background:new 0 0 250.8 312.8;" xml:space="preserve">
    <style type="text/css">
      .st0{fill:#3C8BD9;}
      .st1{fill:#FABC04;}
      .st2{fill:#34A852;}
      .st3{fill:#E1C025;}
      .st4{fill:#757575;}
    </style>
    <g>
      <path class="st0" d="M85.9,28.6c2.4-6.3,5.7-12.1,10.6-16.8c19.6-19.1,52-14.3,65.3,9.7c10,18.2,20.6,36,30.9,54   c17.2,29.9,34.6,59.8,51.6,89.8c14.3,25.1-1.2,56.8-29.6,61.1c-17.4,2.6-33.7-5.4-42.7-21c-15.1-26.3-30.3-52.6-45.4-78.8   c-0.3-0.6-0.7-1.1-1.1-1.6c-1.6-1.3-2.3-3.2-3.3-4.9c-6.7-11.8-13.6-23.5-20.3-35.2c-4.3-7.6-8.8-15.1-13.1-22.7   c-3.9-6.8-5.7-14.2-5.5-22C83.6,36.2,84.1,32.2,85.9,28.6"/>
      <path class="st1" d="M85.9,28.6c-0.9,3.6-1.7,7.2-1.9,11c-0.3,8.4,1.8,16.2,6,23.5C101,82,112,101,122.9,120c1,1.7,1.8,3.4,2.8,5   c-6,10.4-12,20.7-18.1,31.1c-8.4,14.5-16.8,29.1-25.3,43.6c-0.4,0-0.5-0.2-0.6-0.5c-0.1-0.8,0.2-1.5,0.4-2.3   c4.1-15,0.7-28.3-9.6-39.7c-6.3-6.9-14.3-10.8-23.5-12.1c-12-1.7-22.6,1.4-32.1,8.9c-1.7,1.3-2.8,3.2-4.8,4.2   c-0.4,0-0.6-0.2-0.7-0.5c4.8-8.3,9.5-16.6,14.3-24.9C45.5,98.4,65.3,64,85.2,29.7C85.4,29.3,85.7,29,85.9,28.6"/>
      <path class="st2" d="M11.8,158c1.9-1.7,3.7-3.5,5.7-5.1c24.3-19.2,60.8-5.3,66.1,25.1c1.3,7.3,0.6,14.3-1.6,21.3   c-0.1,0.6-0.2,1.1-0.4,1.7c-0.9,1.6-1.7,3.3-2.7,4.9c-8.9,14.7-22,22-39.2,20.9C20,225.4,4.5,210.6,1.8,191   c-1.3-9.5,0.6-18.4,5.5-26.6c1-1.8,2.2-3.4,3.3-5.2C11.1,158.8,10.9,158,11.8,158"/>
      <path class="st1" d="M11.8,158c-0.4,0.4-0.4,1.1-1.1,1.2c-0.1-0.7,0.3-1.1,0.7-1.6L11.8,158"/>
      <path class="st3" d="M81.6,201c-0.4-0.7,0-1.2,0.4-1.7c0.1,0.1,0.3,0.3,0.4,0.4L81.6,201"/>
      <path class="st4" d="M20.7,260.4C9.4,260.4,0,269.5,0,280.7s9.4,20.2,20.7,20.2c6.1,0,10.6-2,14.2-5.7c3.7-3.7,4.8-8.8,4.8-12.9   c0-1.3-0.1-2.5-0.3-3.5H20.7v5.5H34c-0.4,3.1-1.4,5.4-3,7c-1.9,1.9-5,4.1-10.3,4.1c-8.2,0-14.6-6.6-14.6-14.7S12.5,266,20.7,266   c4.4,0,7.7,1.7,10,4l3.9-3.9C31.3,262.9,26.9,260.4,20.7,260.4z M54.6,274.9c-7.1,0-13,5.5-13,13.2c0,7.6,5.8,13.2,13,13.2   s13-5.6,13-13.2S61.7,274.9,54.6,274.9 M54.6,296.1c-3.9,0-7.3-3.3-7.3-8s3.4-8,7.3-8s7.3,3.2,7.3,8   C61.9,292.8,58.5,296.1,54.6,296.1 M82.8,274.9c-7.2,0-13,5.5-13,13.2c0,7.6,5.8,13.2,13,13.2c7.1,0,13-5.6,13-13.2   S90,274.9,82.8,274.9 M82.8,296.1c-3.9,0-7.3-3.3-7.3-8s3.4-8,7.3-8s7.3,3.2,7.3,8C90.1,292.8,86.8,296.1,82.8,296.1 M110.9,274.9   c-6.5,0-12.4,5.7-12.4,13.1c0,7.3,5.9,13,12.4,13c3.1,0,5.5-1.4,6.8-3h0.2v1.9c0,5-2.6,7.7-6.9,7.7c-3.5,0-5.6-2.5-6.5-4.6l-5,2.1   c1.4,3.5,5.2,7.7,11.5,7.7c6.7,0,12.3-4,12.3-13.6v-23.4h-5.4v2.1h-0.2C116.4,276.3,114,274.9,110.9,274.9 M111.4,295.9   c-3.9,0-7.2-3.3-7.2-7.9s3.3-8,7.2-8c3.9,0,6.9,3.4,6.9,8S115.3,295.9,111.4,295.9 M127.5,262h5.7v38.6h-5.7V262z M148.5,274.9   c-6.8,0-12.5,5.3-12.5,13.2c0,7.4,5.6,13.2,13.1,13.2c6.1,0,9.6-3.7,11-5.8l-4.5-3c-1.5,2.2-3.6,3.6-6.5,3.6c-3,0-5.1-1.3-6.4-4   l17.7-7.3l-0.6-1.5C158.7,280.4,155.3,274.9,148.5,274.9 M141.7,287.7c-0.2-5.1,4-7.7,6.9-7.7c2.3,0,4.3,1.1,4.9,2.8L141.7,287.7z"/>
      <path class="st4" d="M170.4,300l13.2-35.1h5.1l13.2,35.1h-5l-3.4-9.5h-14.7l-3.4,9.5H170.4z M180.3,286.3H192l-5.7-15.8h-0.2   L180.3,286.3z"/>
      <path class="st4" d="M206.5,297.1c-2.2-2.5-3.3-5.5-3.3-9.1c0-3.5,1.1-6.5,3.3-9.1c2.3-2.5,4.9-3.7,8.1-3.7c1.8,0,3.4,0.4,4.8,1.1   c1.5,0.8,2.6,1.7,3.4,3h0.2l-0.2-3.3v-11.1h4.5V300H223v-3.3h-0.2c-0.8,1.2-1.9,2.2-3.4,3s-3.1,1.1-4.8,1.1   C211.4,300.8,208.7,299.6,206.5,297.1 M220.7,294.3c1.5-1.6,2.2-3.7,2.2-6.3c0-2.5-0.7-4.6-2.2-6.2c-1.4-1.6-3.2-2.4-5.4-2.4   s-4,0.8-5.4,2.4c-1.5,1.6-2.2,3.7-2.2,6.2s0.7,4.6,2.2,6.2s3.3,2.4,5.4,2.4C217.5,296.7,219.3,295.9,220.7,294.3"/>
      <path class="st4" d="M248.1,298.6c-1.8,1.4-4.1,2.2-6.9,2.2c-2.4,0-4.5-0.6-6.4-1.9c-1.8-1.3-3.1-2.9-3.9-5l4-1.7   c0.6,1.4,1.4,2.6,2.6,3.4c1.1,0.8,2.4,1.2,3.7,1.2c1.4,0,2.6-0.3,3.6-0.9s1.4-1.4,1.4-2.2c0-1.5-1.2-2.7-3.5-3.4l-4.1-1   c-4.7-1.2-7-3.4-7-6.8c0-2.2,0.9-3.9,2.7-5.3c1.8-1.3,4.1-2,6.8-2c2.1,0,4,0.5,5.8,1.5c1.7,1,2.9,2.4,3.6,4.1l-4,1.7   c-0.5-1-1.2-1.8-2.2-2.4s-2.2-0.9-3.5-0.9c-1.2,0-2.2,0.3-3.2,0.9c-0.9,0.6-1.4,1.3-1.4,2.2c0,1.4,1.3,2.4,3.9,2.9l3.6,0.9   c4.8,1.2,7.1,3.6,7.1,7.2C250.9,295.4,249.9,297.2,248.1,298.6"/>
    </g>
  </symbol>

  <symbol id="instagram-svg" viewBox="0 0 448 512"><!--! Font Awesome Pro 6.2.0 by @fontawesome - https://fontawesome.com License - https://fontawesome.com/license (Commercial License) Copyright 2022 Fonticons, Inc. -->
    <path d="M224.1 141c-63.6 0-114.9 51.3-114.9 114.9s51.3 114.9 114.9 114.9S339 319.5 339 255.9 287.7 141 224.1 141zm0 189.6c-41.1 0-74.7-33.5-74.7-74.7s33.5-74.7 74.7-74.7 74.7 33.5 74.7 74.7-33.6 74.7-74.7 74.7zm146.4-194.3c0 14.9-12 26.8-26.8 26.8-14.9 0-26.8-12-26.8-26.8s12-26.8 26.8-26.8 26.8 12 26.8 26.8zm76.1 27.2c-1.7-35.9-9.9-67.7-36.2-93.9-26.2-26.2-58-34.4-93.9-36.2-37-2.1-147.9-2.1-184.9 0-35.8 1.7-67.6 9.9-93.9 36.1s-34.4 58-36.2 93.9c-2.1 37-2.1 147.9 0 184.9 1.7 35.9 9.9 67.7 36.2 93.9s58 34.4 93.9 36.2c37 2.1 147.9 2.1 184.9 0 35.9-1.7 67.7-9.9 93.9-36.2 26.2-26.2 34.4-58 36.2-93.9 2.1-37 2.1-147.8 0-184.8zM398.8 388c-7.8 19.6-22.9 34.7-42.6 42.6-29.5 11.7-99.5 9-132.1 9s-102.7 2.6-132.1-9c-19.6-7.8-34.7-22.9-42.6-42.6-11.7-29.5-9-99.5-9-132.1s-2.6-102.7 9-132.1c7.8-19.6 22.9-34.7 42.6-42.6 29.5-11.7 99.5-9 132.1-9s102.7-2.6 132.1 9c19.6 7.8 34.7 22.9 42.6 42.6 11.7 29.5 9 99.5 9 132.1s2.7 102.7-9 132.1z"/>
  </symbol>

  <symbol id="megaphone-svg" viewBox="0 0 576 512"><!--! Font Awesome Pro 6.2.0 by @fontawesome - https://fontawesome.com License - https://fontawesome.com/license (Commercial License) Copyright 2022 Fonticons, Inc. -->
    <path d="M576 32V480H512V32h64zM64 190.3L480 64V448L348.9 408.2C338.2 449.5 300.7 480 256 480c-53 0-96-43-96-96c0-11 1.9-21.7 5.3-31.5L64 321.7V352H0V320 192 160H64v30.3zm238.9 204l-91.6-27.8c-2.1 5.4-3.3 11.4-3.3 17.6c0 26.5 21.5 48 48 48c23 0 42.2-16.2 46.9-37.8z"/>
  </symbol>

  <symbol id="people-svg" viewBox="0 0 640 512"><!--! Font Awesome Pro 6.2.0 by @fontawesome - https://fontawesome.com License - https://fontawesome.com/license (Commercial License) Copyright 2022 Fonticons, Inc. -->
    <path d="M160 96c26.5 0 48-21.5 48-48s-21.5-48-48-48s-48 21.5-48 48s21.5 48 48 48zm-51.1 32H91.4L82 142.8 .2 270.8l53.9 34.4 33.8-53V480v32h64V480 352h16V480v32h64V480 252.2l33.8 53 53.9-34.4L238 142.8 228.6 128H211.1 108.9zM480 96c26.5 0 48-21.5 48-48s-21.5-48-48-48s-48 21.5-48 48s21.5 48 48 48zm-51.1 32H411.4l-9.4 14.8-81.7 128 53.9 34.4 42-65.8L368 384h40v96 32h64V480 384h16v96 32h64V480 384h40L543.8 239.4l42 65.8 53.9-34.4L558 142.8 548.6 128H531.1 428.9z"/>
  </symbol>

  <symbol id="teacher-svg" viewBox="0 0 640 512"><!--! Font Awesome Pro 6.2.0 by @fontawesome - https://fontawesome.com License - https://fontawesome.com/license (Commercial License) Copyright 2022 Fonticons, Inc. -->
    <path d="M192 0H160V32 96c23.3 0 45.2 6.2 64 17.1V64H576V352H512V288H384v64H305.4l19.2 64H608h32V384 32 0H608 192zM160 320c53 0 96-43 96-96s-43-96-96-96s-96 43-96 96s43 96 96 96zM320 512L272 352H48L0 512H320z"/>
  </symbol>

  <symbol id="osu-svg" height="150.69" width="152" viewBox="0 0 152 150.69">
    <g transform="matrix(1.25 0 0 -1.25 -.00015450 150.69)"><g style="" transform="translate(.87038 .87038)"><path d="m50.18 4.1113c-16.221 0-33.095 4.4261-46.383 12.137v86.611c13.286 7.7106 30.158 12.135 46.383 12.135l5.2188-0.16406c7.0062-0.39575 14.023-1.5572 20.859-3.457 7.5621-2.1006 14.629-5.0452 20.488-8.5117v-1.9961l-24.52-8.1445c-7.0526 2.3513-14.444 3.5566-22.047 3.5566-9.3087 0-18.181-1.754-26.363-5.209l-0.43359-0.18359v-62.668l0.43359-0.18359c8.1772-3.4526 17.049-5.2012 26.363-5.2012 9.2379 0 18.166 1.7466 26.543 5.1992l0.44141 0.18164v35.924c0.88898 0.29362 17.917 5.905 19.582 6.4551v-54.348c-12.83-7.6036-30.196-12.141-46.565-12.141zm50.906 27.609v18.73c8.5869 0.21818 16.893 1.9365 24.701 5.1582l0.43945 0.18359v7.1562h19.584v-19.129c-12.35-7.309-28.9-11.775-44.72-12.098zm-28.24 3.6504c-7.0921 2.0611-13.836 4.8791-19.59 8.2168v38.361c3.0279 0.99807 73.365 24.203 73.365 24.203v14.949l-0.4414 0.1836c-8.3803 3.4538-17.309 5.2051-26.541 5.2051-9.311 0-18.178-1.7517-26.359-5.209l-0.43359-0.18359v-4.3398c-6.2762 1.4948-12.902 2.4303-19.59 2.6543v13.662c13.287 7.7048 30.161 12.129 46.383 12.129 16.369 0 33.736-4.5335 46.564-12.127v-41.439c-0.96-0.308-73.354-24.18-73.354-24.18v-32.08z" transform="matrix(.8 0 0 -.8 0 119.2)" stroke="#000" stroke-miterlimit="5" stroke-width="7.5934" fill="none"/><path d="m50.301 3.9883c-16.221 0-33.093 4.426-46.381 12.137v86.613c13.286 7.7106 30.156 12.135 46.381 12.135l5.2207-0.16407c7.0062-0.39574 14.023-1.5592 20.859-3.459 7.5621-2.1006 14.629-5.0432 20.488-8.5098v-1.9961l-24.52-8.1465c-7.0526 2.3513-14.446 3.5566-22.049 3.5566-9.3087 0-18.179-1.7521-26.361-5.207l-0.43359-0.18359v-62.668l0.43359-0.18359c8.1772-3.4526 17.047-5.2031 26.361-5.2031 9.2379 0 18.168 1.7486 26.545 5.2012l0.44141 0.18164v35.922c0.88898 0.29362 17.917 5.9069 19.582 6.457v-54.35c-12.83-7.6047-30.198-12.142-46.567-12.142zm50.908 27.609v18.73c8.5869 0.21818 16.891 1.9365 24.699 5.1582l0.44141 0.18359v7.1562h19.582v-19.127c-12.35-7.309-28.9-11.777-44.72-12.1zm-28.243 3.653c-7.0921 2.0611-13.836 4.8791-19.59 8.2168v38.361c3.0279 0.99807 73.367 24.201 73.367 24.201v14.949l-0.44141 0.18359c-8.3803 3.4538-17.309 5.2051-26.541 5.2051-9.311 0-18.178-1.7517-26.359-5.209l-0.43555-0.18359v-4.3398c-6.2762 1.4948-12.902 2.4323-19.59 2.6562v13.66c13.287 7.7048 30.163 12.129 46.385 12.129 16.369 0 33.736-4.5335 46.564-12.127v-41.439c-0.95-0.321-73.353-24.191-73.353-24.191v-32.08z" transform="matrix(.8 0 0 -.8 0 119.2)" fill="#c34500"/></g></g>
  </symbol>

  <symbol id="cantab-svg" viewBox="0 0 566.9 117.9">
    <defs><style>.cls-1,.cls-2{fill:none;stroke-miterlimit:10;stroke-width:0.24px;}.cls-1{stroke:#fd0;}.cls-2{stroke:#000;}.cls-3{fill:#131108;}.cls-4{fill:#fff;}.cls-5{fill:#e63329;}.cls-6{fill:#fd0;}</style></defs><g id="Layer_1_copy" data-name="Layer 1 copy"><path class="cls-1" d="M97.8,66.6a55.51,55.51,0,0,1-2.3,14.2,37.11,37.11,0,0,1-5.4,10.7c-4.3,5.7-9.5,8.5-13,10.4-.3.2-2.4,1.2-12.2,6.1V66.6H97.8" transform="translate(-2 -1.6)"/><path class="cls-1" d="M39.6,66.6V108c-9.9-4.9-11.9-6-12.2-6.1-3.5-1.9-8.7-4.7-13-10.4A35.87,35.87,0,0,1,9,80.8,54.78,54.78,0,0,1,6.7,66.6H39.6" transform="translate(-2 -1.6)"/><path class="cls-2" d="M97.8,7.6h-33V41.4h33V7.6Z" transform="translate(-2 -1.6)"/><path class="cls-2" d="M39.6,7.6H6.6V41.4h33V7.6Z" transform="translate(-2 -1.6)"/><path class="cls-3" d="M52.2,119.5l-1-.5c-1.5-.7-24.7-12.3-26.1-13C17.6,101.9,2,93.4,2,63.6V3H102.4V63.6c0,29.8-15.6,38.3-23.1,42.4-1.4.8-24.7,12.3-26.1,13Z" transform="translate(-2 -1.6)"/><path class="cls-4" d="M62.4,43.8V5.2H42V43.8H4.2V63.6h0v.6H42v47.7c5.5,2.7,10.2,5.1,10.2,5.1h0l10.2-5.1V64.2h37.8V43.8Z" transform="translate(-2 -1.6)"/><rect class="cls-5" x="2.2" y="3.6" width="37.8" height="38.6"/><rect class="cls-5" x="60.4" y="3.6" width="37.8" height="38.6"/><path class="cls-5" d="M42,64.2H4.2c.2,27.7,14.4,35.7,22,39.8L42,111.9Z" transform="translate(-2 -1.6)"/><path class="cls-5" d="M62.4,64.2v47.7L78.2,104c7.6-4.1,21.8-12.1,22-39.8Z" transform="translate(-2 -1.6)"/><path class="cls-3" d="M75.4,54.3l.8-.9-1-1.2-1,1.2.8.9c0,.5,0,4.6-2.4,6a4.09,4.09,0,0,0,1.9-.1,12.54,12.54,0,0,0,.7,2.3,12.54,12.54,0,0,0,.7-2.3,6.92,6.92,0,0,0,1.9.1C75.4,58.8,75.4,54.7,75.4,54.3Z" transform="translate(-2 -1.6)"/><path class="cls-3" d="M81.6,47.3l.8-.9-1-1.2-1,1.2.8.9c0,.5,0,4.6-2.4,6a4.09,4.09,0,0,0,1.9-.1,12.54,12.54,0,0,0,.7,2.3,12.54,12.54,0,0,0,.7-2.3,6.92,6.92,0,0,0,1.9.1C81.5,51.9,81.6,47.8,81.6,47.3Z" transform="translate(-2 -1.6)"/><path class="cls-3" d="M87.7,54.3l.8-.9-1-1.2-1,1.2.8.9c0,.5,0,4.6-2.4,6a4.09,4.09,0,0,0,1.9-.1,12.54,12.54,0,0,0,.7,2.3,12.54,12.54,0,0,0,.7-2.3,6.92,6.92,0,0,0,1.9.1C87.7,58.8,87.7,54.7,87.7,54.3Z" transform="translate(-2 -1.6)"/><path class="cls-3" d="M93.9,47.3l.8-.9-1-1.2-1,1.2.8.9c0,.5,0,4.6-2.4,6a4.09,4.09,0,0,0,1.9-.1,12.54,12.54,0,0,0,.7,2.3,12.54,12.54,0,0,0,.7-2.3,6.92,6.92,0,0,0,1.9.1C93.8,51.9,93.9,47.8,93.9,47.3Z" transform="translate(-2 -1.6)"/><path class="cls-3" d="M69.2,47.3l.8-.9-1-1.2-1,1.2.8.9c0,.5,0,4.6-2.4,6a4.09,4.09,0,0,0,1.9-.1,12.54,12.54,0,0,0,.7,2.3,12.54,12.54,0,0,0,.7-2.3,6.92,6.92,0,0,0,1.9.1C69.2,51.9,69.2,47.8,69.2,47.3Z" transform="translate(-2 -1.6)"/><path class="cls-3" d="M17.1,54.3l.8-.9-1-1.2-1,1.2.8.9c0,.5,0,4.6-2.4,6a4.09,4.09,0,0,0,1.9-.1,12.54,12.54,0,0,0,.7,2.3,12.54,12.54,0,0,0,.7-2.3,6.92,6.92,0,0,0,1.9.1C17.1,58.8,17.1,54.7,17.1,54.3Z" transform="translate(-2 -1.6)"/><path class="cls-3" d="M23.3,47.3l.8-.9-1-1.2-1,1.2.8.9c0,.5,0,4.6-2.4,6a4.09,4.09,0,0,0,1.9-.1,12.54,12.54,0,0,0,.7,2.3,12.54,12.54,0,0,0,.7-2.3,6.92,6.92,0,0,0,1.9.1C23.2,51.9,23.2,47.8,23.3,47.3Z" transform="translate(-2 -1.6)"/><path class="cls-3" d="M29.4,54.3l.8-.9-1-1.2-1,1.2.8.9c0,.5,0,4.6-2.4,6a4.09,4.09,0,0,0,1.9-.1,12.54,12.54,0,0,0,.7,2.3,12.54,12.54,0,0,0,.7-2.3,6.92,6.92,0,0,0,1.9.1C29.4,58.8,29.4,54.7,29.4,54.3Z" transform="translate(-2 -1.6)"/><path class="cls-3" d="M35.6,47.3l.8-.9-1-1.2-1,1.2.8.9c0,.5,0,4.6-2.4,6a4.09,4.09,0,0,0,1.9-.1,12.54,12.54,0,0,0,.7,2.3,12.54,12.54,0,0,0,.7-2.3,6.92,6.92,0,0,0,1.9.1C35.5,51.9,35.6,47.8,35.6,47.3Z" transform="translate(-2 -1.6)"/><path class="cls-3" d="M10.9,47.3l.8-.9-1-1.2-1,1.2.8.9c0,.5,0,4.6-2.4,6a4.09,4.09,0,0,0,1.9-.1,12.54,12.54,0,0,0,.7,2.3,12.54,12.54,0,0,0,.7-2.3,6.92,6.92,0,0,0,1.9.1C10.9,51.9,10.9,47.8,10.9,47.3Z" transform="translate(-2 -1.6)"/><path class="cls-3" d="M52.5,69.9l.8-.9-1-1.2-1,1.2.8.9c0,.5,0,4.6-2.4,6a4.09,4.09,0,0,0,1.9-.1,12.54,12.54,0,0,0,.7,2.3,12.54,12.54,0,0,0,.7-2.3,6.92,6.92,0,0,0,1.9.1C52.4,74.5,52.4,70.4,52.5,69.9Z" transform="translate(-2 -1.6)"/><path class="cls-3" d="M52.5,90.9l.8-.9-1-1.2-1,1.2.8.9c0,.5,0,4.6-2.4,6a4.09,4.09,0,0,0,1.9-.1,12.54,12.54,0,0,0,.7,2.3,12.54,12.54,0,0,0,.7-2.3,6.92,6.92,0,0,0,1.9.1C52.4,95.4,52.4,91.3,52.5,90.9Z" transform="translate(-2 -1.6)"/><path class="cls-3" d="M58.2,80.4l.8-.9-1-1.2-1,1.2.8.9c0,.5,0,4.6-2.4,6a4.09,4.09,0,0,0,1.9-.1,12.54,12.54,0,0,0,.7,2.3,12.54,12.54,0,0,0,.7-2.3,6.92,6.92,0,0,0,1.9.1C58.1,85,58.2,80.9,58.2,80.4Z" transform="translate(-2 -1.6)"/><path class="cls-3" d="M46.7,80.4l.8-.9-1-1.2-1,1.2.8.9c0,.5,0,4.6-2.4,6a4.09,4.09,0,0,0,1.9-.1,12.54,12.54,0,0,0,.7,2.3,12.54,12.54,0,0,0,.7-2.3,6.92,6.92,0,0,0,1.9.1C46.6,85,46.7,80.9,46.7,80.4Z" transform="translate(-2 -1.6)"/><path class="cls-3" d="M58.2,101.3l.8-.9-1-1.2-1,1.2.8.9c0,.5,0,4.6-2.4,6a4.09,4.09,0,0,0,1.9-.1,12.54,12.54,0,0,0,.7,2.3,12.54,12.54,0,0,0,.7-2.3,6.92,6.92,0,0,0,1.9.1C58.1,105.9,58.2,101.8,58.2,101.3Z" transform="translate(-2 -1.6)"/><path class="cls-3" d="M46.7,101.3l.8-.9-1-1.2-1,1.2.8.9c0,.5,0,4.6-2.4,6a4.09,4.09,0,0,0,1.9-.1,12.54,12.54,0,0,0,.7,2.3,12.54,12.54,0,0,0,.7-2.3,6.92,6.92,0,0,0,1.9.1C46.6,105.9,46.7,101.8,46.7,101.3Z" transform="translate(-2 -1.6)"/><path class="cls-3" d="M52.5,22.3l.8-.9-1-1.2-1,1.2.8.9c0,.5,0,4.6-2.4,6a4.09,4.09,0,0,0,1.9-.1,12.54,12.54,0,0,0,.7,2.3,12.54,12.54,0,0,0,.7-2.3,6.92,6.92,0,0,0,1.9.1C52.4,26.9,52.4,22.8,52.5,22.3Z" transform="translate(-2 -1.6)"/><path class="cls-3" d="M58.2,11.9,59,11,58,9.8,57,11l.8.9c0,.5,0,4.6-2.4,6a4.09,4.09,0,0,0,1.9-.1,12.54,12.54,0,0,0,.7,2.3,12.54,12.54,0,0,0,.7-2.3,6.92,6.92,0,0,0,1.9.1C58.1,16.4,58.2,12.3,58.2,11.9Z" transform="translate(-2 -1.6)"/><path class="cls-3" d="M46.7,11.9l.8-.9-1-1.2-1,1.2.8.9c0,.5,0,4.6-2.4,6a4.09,4.09,0,0,0,1.9-.1,12.54,12.54,0,0,0,.7,2.3,12.54,12.54,0,0,0,.7-2.3,6.92,6.92,0,0,0,1.9.1C46.6,16.4,46.7,12.3,46.7,11.9Z" transform="translate(-2 -1.6)"/><path class="cls-3" d="M58.2,32.8l.8-.9-1-1.2-1,1.2.8.9c0,.5,0,4.6-2.4,6a4.09,4.09,0,0,0,1.9-.1A12.54,12.54,0,0,0,58,41a12.54,12.54,0,0,0,.7-2.3,6.92,6.92,0,0,0,1.9.1C58.1,37.3,58.2,33.3,58.2,32.8Z" transform="translate(-2 -1.6)"/><path class="cls-3" d="M46.7,32.8l.8-.9-1-1.2-1,1.2.8.9c0,.5,0,4.6-2.4,6a4.09,4.09,0,0,0,1.9-.1,12.54,12.54,0,0,0,.7,2.3,12.54,12.54,0,0,0,.7-2.3,6.92,6.92,0,0,0,1.9.1C46.6,37.3,46.7,33.3,46.7,32.8Z" transform="translate(-2 -1.6)"/><path class="cls-3" d="M33.8,24.2l.1.5a6.21,6.21,0,0,0,.3,1c.4,1.8.7,2.3,1.6,2.3a1.23,1.23,0,0,0,1.1-.7l.2-.6c0-.1.2-.2.3-.2.3,0,.5.4.5,1.2,0,.2.1.8.2,1.6a7.08,7.08,0,0,1,.1,1.4,1.8,1.8,0,0,1-.2,1,15,15,0,0,1,.2,2,3.36,3.36,0,0,1-.4,1.9,5,5,0,0,1,.2,1.2,4.48,4.48,0,0,1-.1,1.1c-.1.8-.2,1-.2,1.1a.6.6,0,0,0,.1.4.76.76,0,0,1,.1.4c0,.1,0,.2-.1.2l-.6-.3-.7-.4a1.69,1.69,0,0,1-.7-.6c-.6.6-.8.6-2.4,1.1a2.39,2.39,0,0,0-.7.3l-.4.2c-.3,0-.4-.4-.4-1.4a9,9,0,0,1,.2-1.8,3.63,3.63,0,0,0-1.1-.3,1.75,1.75,0,0,0-.5.1h-.1c-.1,0-.2-.1-.2-.3a4.08,4.08,0,0,1,.2-.7l.3-.8a2.17,2.17,0,0,1,.8-.9,2.51,2.51,0,0,1,.8-.5l1.2-.2c.7-.1,1.1-.5,1.1-1s-.3-.8-1-1L32.2,31a4.88,4.88,0,0,1-1.3-.6c-.8-.5-.9-.5-1.1-.5s-.4.2-.4.6a.92.92,0,0,0,.9,1,.37.37,0,0,0,.3-.1.77.77,0,0,1,.3-.1.22.22,0,0,1,.2.2v.1l-.1.5A5.8,5.8,0,0,1,30,34l-.3.4A4.51,4.51,0,0,1,28,36.9a1.38,1.38,0,0,0-.4.3,1.73,1.73,0,0,1-.3.4c-.1.1-.3.4-.6.8a5,5,0,0,1-.8.7q-.6.45-.6.6l-.3.5c-.1.1-.2.2-.3.2-.3,0-.5-.3-.7-.8s-.2-.5-.5-.5a1.76,1.76,0,0,0-.6.1l-.4.1H21.3a8.42,8.42,0,0,0-1.8.3.49.49,0,0,1-.3.1c-.1,0-.1,0-.2-.2a.37.37,0,0,1-.1-.3,5.7,5.7,0,0,1,1-2.6,3,3,0,0,1,.9-1,1.47,1.47,0,0,0-.9-1.1l-.5-.2c-.1,0-.1-.1-.1-.2s.3-.4.7-.6a4.46,4.46,0,0,1,1.8-.5,2.47,2.47,0,0,1,1.6.7c.9.7,1.1.8,1.5.8a1.32,1.32,0,0,0,1.3-1.3,3,3,0,0,0-.8-1.7,4.18,4.18,0,0,1-1.2-2.6,3.31,3.31,0,0,1,.4-1.5l.3-.5a.37.37,0,0,0,.1-.3c0-.2-.2-.4-.6-.4a7,7,0,0,0-2.3.8,1,1,0,0,0-.6.7.35.35,0,0,0,.1.2l.4.2.1.1a.35.35,0,0,0-.1.2l-.6.8a8.31,8.31,0,0,1-1.3,1.4.75.75,0,0,0-.3.3,5.2,5.2,0,0,1-.3.5,4.62,4.62,0,0,1-1.4,1.4c-.2.2-.4.3-.4.4s-.1.2-.3.4a5.74,5.74,0,0,1-.4.7,4.87,4.87,0,0,1-.8,1l-.9.9a5.33,5.33,0,0,0-.9,2c-.2.7-.4,1.1-.5,1.1s-.1-.1-.3-.2c-.6-.7-1.2-1.2-1.5-1.2-.1,0-.2.1-.4.2a1.9,1.9,0,0,1-.9.3l-1.2.2a2.69,2.69,0,0,0-1.8,1c-.1.1-.2.2-.3.2s-.2-.2-.2-.4v-.3l.2-.9a14.24,14.24,0,0,1,.6-2.1l.5-1a1.69,1.69,0,0,0,.2-.5,1.82,1.82,0,0,0-1.7-1.5c-.2,0-.3-.1-.3-.2s.3-.5.6-.8a3.67,3.67,0,0,1,2-.8,3.35,3.35,0,0,1,1.4.4l.7.3a2.54,2.54,0,0,0,.7.2c.7,0,1.5-.7,2.4-2.2a3.55,3.55,0,0,0,.6-1.6c0-.8-.4-1.3-1-1.3a2,2,0,0,0-1.4.6,1.59,1.59,0,0,0-.5,1v.5c0,.3-.1.5-.3.5s-.7-.4-2-2a4.13,4.13,0,0,1-1.2-2.8c-1.1-1.4-1.4-2-1.4-3v-.7a2.92,2.92,0,0,1-1-2.2,1.2,1.2,0,0,1,.2-.8A3.29,3.29,0,0,1,6,17l-.2-.7a3.34,3.34,0,0,0-.5-1.2c-.3-.4-.3-.5-.3-.6,0-.4.3-.5,1.4-.8a5.64,5.64,0,0,0-.1-.7,2.81,2.81,0,0,1,.1-.8L6.6,11a4.59,4.59,0,0,0,.1-1,2.68,2.68,0,0,0-.2-1,1.54,1.54,0,0,0-.3-.7L6,7.9a.22.22,0,0,1,.2-.2,5,5,0,0,1,2,1.2c1.8,1.5,2.2,2.1,2.5,4a1.49,1.49,0,0,0,.1.6,2.67,2.67,0,0,1,1.3,2.3,4.2,4.2,0,0,1-.6,2.1l-.6,1a2,2,0,0,0-.3,1.1,3.81,3.81,0,0,0,.6,1.9c.5.9.9,1.2,1.4,1.2.8,0,1.6-1.5,1.6-3.1v-.8a4.91,4.91,0,0,1,.1-1.1,4.4,4.4,0,0,0,.1-.9V15.9a.86.86,0,0,0-.3-.6l-.7-.8a5.31,5.31,0,0,1-1.6-2.9,1.61,1.61,0,0,1,1.6-1.7,2,2,0,0,1,.7.1V9.8c0-1.4.3-2.5.7-2.5H15l.6.5.7.4.2.2c0-.4,0-.4.4-.9a5.92,5.92,0,0,0,.4-.6.91.91,0,0,0,.3-.5c.1-.1.1-.2.2-.3s.2-.2.3-.2.2.1.3.5c.1.2.1.3.7.8l.4.4c.1.1.1.3.3.6,0,.1.1.1.1.3a3.39,3.39,0,0,1,.6-.6l.5-.3c.2-.1.3-.2.4-.2l.2.2c.1.1.1.3.3.5a3.34,3.34,0,0,1,.5,1.2V10c1.1.3,1.4.9,1.4,2a4,4,0,0,1-1.3,2.7c-.6.7-.6.8-.6,1.2,0,2.4,1.7,3.7,4.6,3.8h2.1a10.3,10.3,0,0,1,3.5.6,8.19,8.19,0,0,0,2.4.6.6.6,0,0,0,.4-.1c.1-.1.2-.2.2-.3,0-.4-.8-.8-3.4-1.5-5.3-1.5-7.5-3.6-7.5-7.1a4.9,4.9,0,0,1,5.2-4.8,11.27,11.27,0,0,1,3.2.5l1.3.5a1.7,1.7,0,0,0,.7.1c.4,0,.7-.4.7-1.1,0-.4.1-.5.4-.5s.9.5,1.5,1.2a4.57,4.57,0,0,1,.9,2.1A1.88,1.88,0,0,1,37,11.6a3.11,3.11,0,0,1-2.8,1.6c-.9,0-2.2-.5-4.4-1.8-.8-.4-1.1-.6-1.5-.6-.6,0-.9.3-.9.8s.4.8,1.3,1.1A4.77,4.77,0,0,1,31,14a8.07,8.07,0,0,1,3.4,1.3c2.8.9,4.6,2.8,4.6,5A3.47,3.47,0,0,1,35.5,24a1.69,1.69,0,0,1-1.7.2" transform="translate(-2 -1.6)"/><path class="cls-6" d="M37,38.3a2.81,2.81,0,0,1-.1-.8v-.3l.1-.5v-.4a2.51,2.51,0,0,0-.2-1l-.4-.5-.3-.6c0-.1-.1-.2-.1-.3a.22.22,0,0,1,.2-.2c.1,0,.1,0,.4.2a.37.37,0,0,0,.3.1q.3,0,.3-.9A2,2,0,0,0,37,32l-.5-.5-.4-.4c-.1-.1-.2-.2-.2-.3s.1-.2.3-.2a2.54,2.54,0,0,1,.7.2H37c.1,0,.2-.1.2-.3v-.1l-.1-.7-.2-.7c-.1-.2-.1-.3-.2-.3h-.1l-.8.2h-.1a2.77,2.77,0,0,1-2.5-2l-.6-2.1a5,5,0,0,0-1.5-2,1.55,1.55,0,0,0-.6-.3l-.6-.1a.22.22,0,0,1-.2-.2c0-.1.1-.2.4-.2l1.1.1a7.93,7.93,0,0,1,1.7.4,8.17,8.17,0,0,0,2.2.5,2.3,2.3,0,0,0,2.6-2.3,3.89,3.89,0,0,0-1.3-2.8,3,3,0,0,0-1.1-.7.22.22,0,0,0-.2.2v.4h0c0,.2-.1.3-.2.3s-.3-.2-.6-.6a3,3,0,0,0-2.6-2c-.2,0-.3.1-.3.2s.1.2.2.5l.3.6a.77.77,0,0,1,.1.3l-.1.1a.68.68,0,0,1-.5-.3l-.5-.5-.4-.6a2.92,2.92,0,0,0-1.3-1.1,5.44,5.44,0,0,0-.8-.4.6.6,0,0,0-.4-.1.22.22,0,0,0-.2.2.37.37,0,0,0,.1.3c.2.4.3.5.3.6a.22.22,0,0,1-.2.2c-.2,0-.8-.5-1.2-1.2a3.23,3.23,0,0,1-.6-1.8,2.31,2.31,0,0,1,2.4-2.4,4.88,4.88,0,0,1,2.4.8l1.5.9a4.26,4.26,0,0,0,1.8.6,3.71,3.71,0,0,0,.9-.2.76.76,0,0,0,.4-.2c.1-.1.2-.1.2-.2s0-.1-.1-.1l-.2-.1-.7-.1a2.3,2.3,0,0,1-.9-.3l-1.6-.8c-.5-.3-.9-.5-1.1-.6s-.4-.2-.4-.3,0-.1.1-.1a.37.37,0,0,1,.3.1,2.38,2.38,0,0,0,1.2.4l1.4.5a10.73,10.73,0,0,0,2.1.4A1.11,1.11,0,0,0,37,9.7a2.38,2.38,0,0,0-.6-1.4l-.2-.2c-.1,0-.2.1-.2.3v.3l.1.4a.67.67,0,0,1-.6.7,1.09,1.09,0,0,1-.5-.1L32.9,9a9.51,9.51,0,0,0-3.4-.7,4.11,4.11,0,0,0-4.4,4c0,2.5,1.8,4.2,6.2,5.7s5,1.9,5,3a1.41,1.41,0,0,1-1.4,1.2,2,2,0,0,1-.8-.1c-.1,0-.9-.2-2.2-.5a16.84,16.84,0,0,0-4-.5c-3.1,0-4.9.6-6.4,2-.4.4-.5.4-.9.4h-.7a1,1,0,0,0-.9.6,4.54,4.54,0,0,0-.5.9.52.52,0,0,1-.4.2c-.3,0-.5-.2-.8-1a3.59,3.59,0,0,0-.7-1l-.6-.6-.2-.2a.37.37,0,0,1,.1-.3,4.45,4.45,0,0,0,.5-.8c.1-.4.1-.4.3-.4s.3.2.3.9a2.3,2.3,0,0,0,.3.9l.4.8c0,.1.2.2.3.2.3,0,.8-.8.9-1.6s.2-.9.3-.9.1,0,.1.1l.3.6a1.76,1.76,0,0,0,.4.5c.2.1.3.2.4.2h0c.3,0,.3-.2.4-.8v-.3l-.1-.5v-.3c0-.2.1-.3.2-.3s.2,0,.2.1l.3.3a.86.86,0,0,0,.6.3c.3,0,.4-.1.4-.3s-.1-.3-.3-.7l-.2-.4c-.3-.5-.5-.7-.7-.7h-.3l-.4.2c-.1,0-.2.1-.3.1a.1.1,0,0,1-.1-.1,3.62,3.62,0,0,1,.5-1.3,5.92,5.92,0,0,0,.5-2.5c.1-1.7.3-2.8.6-2.8s.2.1.2.5v.7a1.21,1.21,0,0,0,.1.5c.3,0,.6-.4.9-1.1a2.54,2.54,0,0,0,.2-.7v-.1l-.6-1.2-.6-.2a.35.35,0,0,1-.2-.1v-.8l-.1-.5-.1-.3-.2-.4a3.65,3.65,0,0,0-1.3,1c-.3.3-.4.5-.5.5a.22.22,0,0,1-.2-.2,1.09,1.09,0,0,1,.1-.5V9.5a2.11,2.11,0,0,0-1.1-1.8l-.2.3-.2.3-.4.5a3.33,3.33,0,0,0-.3.6c0,.1-.1.3-.1.4V10c0,.3,0,.3-.1.3h-.1l-.2-.3-.4-.4-.5-.4L15.5,9a.37.37,0,0,0-.1.3,1.69,1.69,0,0,0-.2.5v1.1c0,.3-.1.4-.2.4s-.2-.1-.4-.2a.75.75,0,0,0-.5-.1c-.5,0-.8.3-.8.9a3.1,3.1,0,0,0,.5,1.7l.4.5c.1.1.3.3.3.2l.1-.7-.1-.5v-.2c0-.2.1-.3.2-.3s.3.2.4.7l.3,1.2.3,1.5a9.29,9.29,0,0,0,.4,1.3c.3.6.4,1,.5,1.1.4.5.4.5.4.6a.1.1,0,0,1-.1.1.37.37,0,0,1-.3-.1c-.1-.1-.2-.1-.4-.1h-.3c-.5,0-.6.4-.6,2.6a13.9,13.9,0,0,0,.6,3.9l.7,1.7a2.35,2.35,0,0,1,.2.8c0,2.3-3.1,6-6.5,7.7a2.58,2.58,0,0,0-1.8,2.6v.4a1.86,1.86,0,0,1,1.1-.4c1-.2,1.1-.4,1.3-.8L11,37c0-.2.1-.2.9-.6a1.08,1.08,0,0,0,.5-.4c.2-.3.3-.4.4-.4s.1,0,.1.1v.1l-.3.9v.2a1.82,1.82,0,0,0,1.1,1.6,2.83,2.83,0,0,1,.4-1.3l.6-.9a2.42,2.42,0,0,0,.3-1.4,3.08,3.08,0,0,0-.1-1v-.3c0-.2.1-.3.2-.3s.2,0,.2.1l.1.6c0,.1.2.2.3.2.3,0,.7-.4,1.1-1.1a1.34,1.34,0,0,0,.2-.8v-.4l-.1-.5v-.1c0-.2.1-.4.3-.4s.1,0,.1.1l.2.7c.1.2.2.4.4.4s.6-.4.8-.8A2.77,2.77,0,0,0,19,30c0-.7.1-.9.3-.9s.1,0,.2.1l.1.4c0,.2.1.3.2.3a1.91,1.91,0,0,0,.7-.8.37.37,0,0,0,.1-.3.54.54,0,0,0-.3-.4c-.3-.3-.4-.3-.4-.7a1.86,1.86,0,0,1,.4-1.1,3,3,0,0,0,.4-.8c.4-.8.5-1,.7-1s.2.1.2.3a.37.37,0,0,1-.1.3.76.76,0,0,0-.1.4.22.22,0,0,0,.2.2,3.93,3.93,0,0,0,.6-.2,4.13,4.13,0,0,1,.9-.4l1.1-.4a1.85,1.85,0,0,1,1.2,0,2.64,2.64,0,0,0,.7.1.47.47,0,0,0,.5-.5,2.26,2.26,0,0,0-.5-1c-.1-.1-.2-.2-.2-.3v-.1c0-.1.1-.1.2-.1s.7.5,1.2,1.3c2.8,4.3,3.7,5.4,5.6,6s2.4,1,2.4,2.1a4.28,4.28,0,0,1-1,2.3c-1.4,2-1.7,2.7-1.7,4V39c.2-.1.3-.1.4-.2.3-.1.4-.2.5-.2l.8-.2c.2,0,.5-.4.5-.7v-.1l-.1-.7v-.1a1.08,1.08,0,0,1,.3-.7c.1,0,.1-.1.2-.1s.2.1.3.2l.5,1.1c.1.4.3.7,1,1" transform="translate(-2 -1.6)"/><path class="cls-6" d="M11.2,15c-.2,0-.4.2-.4.6l-.1.6a3.75,3.75,0,0,0-.1.8c0,.5.1.8.3.8s.5-.4.7-.8a2,2,0,0,0,.1-.7c0-.2-.1-.5-.1-.7-.1-.4-.3-.6-.4-.6" transform="translate(-2 -1.6)"/><path class="cls-6" d="M8.5,10.3l.4.4A5.1,5.1,0,0,1,10,14.4a14.89,14.89,0,0,1-.1,1.7c0,.5-.1,1-.1,1.3,0,4,1.3,7,3,7,.5,0,.9-.3,1.4-1,.1-.1.2-.2.3-.2s.2.1.2.3l.1.7.1.6.1.7.1.6v.1c0,.2-.1.3-.2.3l-.6.1a1.8,1.8,0,0,0-.9.4c-.5.3-.8.5-.8.6l-.4.7a.22.22,0,0,1-.2.2c-.2,0-.5-.3-.8-.9a4.17,4.17,0,0,1-.5-1c0-.1.1-.1.3-.1h1.1a.22.22,0,0,0,.2-.2.35.35,0,0,0-.1-.2l-1.4-.6a2.89,2.89,0,0,1-1.1-1.1A5.2,5.2,0,0,1,9.1,23a.27.27,0,0,1,.3-.3c.1,0,.1,0,.2.1a.6.6,0,0,0,.4.1.22.22,0,0,0,.2-.2q0-.15-.3-.3A4,4,0,0,1,8,19.7c0-.2.1-.4.2-.4h.2l.4.1h0c.2,0,.3-.1.3-.2s-.1-.2-.3-.3a5.2,5.2,0,0,0-.5-.3,1,1,0,0,1-.4-.5,8.12,8.12,0,0,1-.5-1L7,16.2a5.2,5.2,0,0,1-.3-.5,1.24,1.24,0,0,1-.2-.3,1.93,1.93,0,0,1,1-.3c.4,0,.7.3,1,1.1.2.5.4.8.5.8s.1-.1.1-.4a3.75,3.75,0,0,0-.1-1,2,2,0,0,1-.1-.7l-.1-.4-.4-.2c-.1,0-.2-.2-.3-.3a1.33,1.33,0,0,1-.3-.7,1.49,1.49,0,0,1,.1-.6,9.62,9.62,0,0,0,.4-2.1v-.3Z" transform="translate(-2 -1.6)"/><path class="cls-6" d="M12.3,33.5a6.37,6.37,0,0,1-.9-.2,1.55,1.55,0,0,1-.6-.3,3.46,3.46,0,0,0-1.2-.3,2.11,2.11,0,0,0-1.3.5l.3.2.6.4.6.5c.2.1.3.2.5.2a2.7,2.7,0,0,0,2-1" transform="translate(-2 -1.6)"/><path class="cls-6" d="M24.7,39.3a2.41,2.41,0,0,1,.6-.8c.9-.8,1.3-1.3,1.3-1.8V36c0-.4.1-.5.3-.5s.2,0,.2.1l.2.4c0,.1.1.1.3.1s.3-.1.5-.4l.3-.4a.73.73,0,0,0,.2-.6.76.76,0,0,0-.1-.4c0-.1-.1-.2-.2-.5a1.09,1.09,0,0,1-.1-.5.27.27,0,0,1,.3-.3c.1,0,.2,0,.2.1l.3.3c.1.1.1.1.2.1a.32.32,0,0,0,.3-.3l.3-.5a.37.37,0,0,0,.1-.3q0-.15-.3-.3l-.4-.2a2.5,2.5,0,0,1-1-2.1.37.37,0,0,1,.1-.3l.2-.5a.9.9,0,0,0,.1-.5,1.93,1.93,0,0,0-.3-1c-.3-.4-.4-.6-.4-.7-.2-.5-.3-.6-.4-.6h-.2l-.2.1-.4.2-.4.5-.4.2c-.3.1-.5.7-.5,1.2,0,.8.1,1.1,1.2,3a4.63,4.63,0,0,1,.7,1.8c0,1.3-1.2,2.2-3.5,2.8l-1.5.4a2.69,2.69,0,0,0-2,2.3,2.42,2.42,0,0,1,1.4-.3h.6a.74.74,0,0,0,.8-.4,2.44,2.44,0,0,1,1.1-.9l.5-.2.4-.2h.1c.1,0,.2,0,.2.1a.91.91,0,0,1-.3.5,1.58,1.58,0,0,0-.5,1.2c-.3.3-.2.4.1.8" transform="translate(-2 -1.6)"/><path class="cls-6" d="M20.6,34.3a4.3,4.3,0,0,1,1,.9c.3.4.4.5.7.5a1.09,1.09,0,0,0,.5-.1l.3-.1c.5-.1.7-.2.7-.3s-.1-.2-.2-.3l-.4-.3-.4-.3a1.82,1.82,0,0,0-1.1-.4,2.43,2.43,0,0,0-1.1.4" transform="translate(-2 -1.6)"/><path class="cls-6" d="M31,36.1h.9a1.41,1.41,0,0,0,1.4-1.2q0-.3-.6-.3c-.8-.2-1.3.3-1.7,1.5" transform="translate(-2 -1.6)"/><path class="cls-3" d="M19.1,13.9c0,.3.2.5.3.5s.3-.4.6-.9a5.09,5.09,0,0,0,.9-1.9.22.22,0,0,0-.2-.2h0l-.4.3a9.05,9.05,0,0,1-1.1.6c-.4.1-.5.3-.5.5v.3l.2.5Z" transform="translate(-2 -1.6)"/><path class="cls-3" d="M17.1,12.2l.5.3c.1.1.2.2.2.3V13a1.58,1.58,0,0,0,0,.7.55.55,0,0,1-.6.6c-.1,0-.1-.1-.3-.4l-.7-.8a3.17,3.17,0,0,1-.5-1.4v-.1c0-.2.1-.2.2-.2s.2.1.4.2Z" transform="translate(-2 -1.6)"/><path class="cls-3" d="M18.4,15.6h-.6a1.09,1.09,0,0,0-.4-.2.75.75,0,0,0-.5-.1.46.46,0,0,0-.5.4,3.77,3.77,0,0,0,.4,1.4l.4,1c.4.9.7,1.3,1.2,1.3s.5-.4.8-1.1c.6-1.6,1-1.8,1-2.4,0-.4-.1-.5-.4-.5l-.3-.1-.5.3Z" transform="translate(-2 -1.6)"/><path class="cls-6" d="M18.3,16.5h-.4c-.1,0-.1,0-.2.1l-.1.2.2.8.1.7c.1.4.2.5.5.5s.5-.2.5-.6l.1-.7a1.73,1.73,0,0,1,.1-.7c0-.1,0-.1-.1-.2a.35.35,0,0,0-.2-.1h-.5Z" transform="translate(-2 -1.6)"/><path class="cls-3" d="M93.6,24.2l.1.5a6.21,6.21,0,0,0,.3,1c.4,1.8.7,2.3,1.6,2.3a1.23,1.23,0,0,0,1.1-.7l.2-.6c0-.1.2-.2.3-.2q.45,0,.6,1.2c0,.3.1.8.2,1.6a7.57,7.57,0,0,1,.1,1.5,1.64,1.64,0,0,1-.2.9l.1.4a6.25,6.25,0,0,1,.1,1.2,3.85,3.85,0,0,1-.4,2.3,6.53,6.53,0,0,1,.2,1.1,5.38,5.38,0,0,1-.1,1.1l-.1,1v.6a.76.76,0,0,1,.1.4.35.35,0,0,1-.1.2l-.6-.3-.7-.4a1.69,1.69,0,0,1-.7-.6,2.85,2.85,0,0,1-1.4.8c-1.1.3-1.5.4-1.7.6l-.4.2c-.2,0-.4-.5-.4-1.2a8.09,8.09,0,0,1,.2-2,4.05,4.05,0,0,0-1.2-.3,1.75,1.75,0,0,0-.5.1h-.1c-.1,0-.1-.1-.1-.3a4.29,4.29,0,0,1,.5-1.5,3,3,0,0,1,1.6-1.4l1.2-.2c.7-.1,1.1-.5,1.1-1s-.3-.8-1-1L92.2,31c-.5-.2-.9-.4-1.3-.6s-.6-.3-.7-.4a.37.37,0,0,0-.3-.1.47.47,0,0,0-.5.5,1,1,0,0,0,.9,1,.37.37,0,0,0,.3-.1.37.37,0,0,1,.3-.1.32.32,0,0,1,.3.3,4.35,4.35,0,0,1-.7,2l-.4.5-.3.4a4.21,4.21,0,0,1-1.7,2.5,1.38,1.38,0,0,0-.4.3,1.73,1.73,0,0,1-.3.4c-.1.1-.3.4-.6.8a5,5,0,0,1-.8.7q-.6.45-.6.6l-.3.5c-.1.1-.1.2-.3.2s-.5-.3-.7-.8-.2-.5-.5-.5a1.76,1.76,0,0,0-.6.1l-.4.1H81.5a4.84,4.84,0,0,0-1.8.3.49.49,0,0,1-.3.1c-.2,0-.2-.2-.2-.5A6.17,6.17,0,0,1,81,35.6c-.2-.6-.5-1-.9-1.1a3.22,3.22,0,0,1-.6-.2c-.1,0-.1-.1-.1-.2s.2-.4.7-.6a3.75,3.75,0,0,1,1.7-.5,2.51,2.51,0,0,1,1.7.7c.9.7,1.1.8,1.5.8a1.32,1.32,0,0,0,1.3-1.3,3,3,0,0,0-.8-1.7,4,4,0,0,1-1.2-2.7,3,3,0,0,1,.7-1.9.49.49,0,0,0,.1-.3c0-.2-.3-.3-.6-.3a2.69,2.69,0,0,0-1.3.4c-1,.4-1.5.9-1.5,1.1s.1.2.2.3l.3.2.1.1-.1.2a3.73,3.73,0,0,0-.6.8,8.94,8.94,0,0,1-1.3,1.4q-.3.15-.3.3l-.3.5A3.74,3.74,0,0,1,78.3,33c-.2.2-.4.3-.4.4a1.38,1.38,0,0,0-.3.4,7.35,7.35,0,0,1-1.2,1.7l-.9.9a7.78,7.78,0,0,0-.9,2c-.3.8-.4,1.1-.6,1.1s-.1-.1-.2-.2c-.6-.7-1.2-1.2-1.5-1.2-.1,0-.2.1-.4.2a1.9,1.9,0,0,1-.9.3l-1.2.2a2.3,2.3,0,0,0-1.8,1c-.1.1-.2.2-.3.2s-.2-.2-.2-.4v-.3a6.59,6.59,0,0,0,.2-.9,11.29,11.29,0,0,1,.6-2.1l.6-1a1.69,1.69,0,0,0,.2-.5c0-.7-.7-1.3-1.7-1.5-.2,0-.3-.1-.3-.2s.3-.4.6-.7a2.95,2.95,0,0,1,3.5-.4l.7.3a2.54,2.54,0,0,0,.7.2c.7,0,1.5-.7,2.4-2.2a3.49,3.49,0,0,0,.6-1.7c0-.8-.4-1.3-1-1.3a2,2,0,0,0-1.4.6,1.87,1.87,0,0,0-.5,1v.5c0,.3-.1.4-.3.4s-.5-.2-1.1-.9c-.2-.3-.5-.6-.9-1.1A3.39,3.39,0,0,1,69.2,25c-1.1-1.4-1.4-2.2-1.4-3v-.7a2.66,2.66,0,0,1-.9-2.2,1.49,1.49,0,0,1,.2-.9,3.29,3.29,0,0,1-.6-1.2l-.2-.7a4.33,4.33,0,0,0-.5-1.2c-.3-.4-.3-.5-.3-.6,0-.3.3-.5,1.1-.8l.3-.1a5.64,5.64,0,0,0-.1-.7,2.81,2.81,0,0,1,.1-.8l.2-1.2a4.91,4.91,0,0,0,.1-1.1,2.17,2.17,0,0,0-.2-1,2.39,2.39,0,0,0-.3-.7c-.1-.2-.2-.3-.2-.4s.1-.2.3-.2a.37.37,0,0,1,.3.1,10.67,10.67,0,0,1,3.1,2.5,4.61,4.61,0,0,1,1.1,3.3,2.61,2.61,0,0,1,1.3,2.4,3.81,3.81,0,0,1-.6,1.9,4.43,4.43,0,0,0-.6,1,2,2,0,0,0-.3,1.1,4.13,4.13,0,0,0,.6,1.9c.5.8.9,1.2,1.4,1.2.8,0,1.6-1.5,1.6-3.1V18.6l.1-.8.1-.9.1-.8v-.4c0-.3-.1-.4-1.1-1.5a4.65,4.65,0,0,1-1.6-3.1,1.58,1.58,0,0,1,1.6-1.6,2,2,0,0,1,.7.1V8.5l.2-.8c.2-.7.2-.8.5-.8h.2l.6.5.7.4L77,8c0-.4.1-.5.4-.9a2.09,2.09,0,0,0,.4-.6l.3-.5.2-.3c.1-.2.2-.2.3-.2s.1.1.2.5a.54.54,0,0,0,.3.4l.4.4a2.33,2.33,0,0,1,.7,1.3l.6-.6.5-.3a1.24,1.24,0,0,0,.3-.2.35.35,0,0,1,.1.2c.1.2.2.3.3.5.4.7.4.8.4,1.2v.7a1.74,1.74,0,0,1,1.4,2,4.09,4.09,0,0,1-1.2,2.7c-.5.7-.6.9-.6,1.4,0,2.3,1.7,3.6,4.6,3.7h2.1a10.3,10.3,0,0,1,3.5.6,8.19,8.19,0,0,0,2.4.6c.3,0,.6-.2.6-.4,0-.5-.8-.8-3.4-1.6-5.3-1.5-7.5-3.6-7.5-7.1a5,5,0,0,1,5.2-4.8,11.27,11.27,0,0,1,3.2.5l1.3.5a1.7,1.7,0,0,0,.7.1c.5,0,.6-.3.7-1.1,0-.4.1-.5.4-.5a2.85,2.85,0,0,1,1.5,1.2,4.26,4.26,0,0,1,.8,2.1A1.82,1.82,0,0,1,97,11.1a3.11,3.11,0,0,1-2.8,1.6,10,10,0,0,1-4.4-1.8,2.64,2.64,0,0,0-1.5-.6c-.6,0-.9.3-.9.8s.3.8,1.3,1.1c1.5.5,1.8.7,2.3,1.3a8.07,8.07,0,0,1,3.4,1.3c2.9.9,4.6,2.7,4.6,5.1a3.36,3.36,0,0,1-3.4,3.6c-.9.9-1.2.9-2,.7" transform="translate(-2 -1.6)"/><path class="cls-6" d="M96.8,38.3a1.49,1.49,0,0,1-.1-.6v-.4a6.25,6.25,0,0,0,.1-1.2,1.42,1.42,0,0,0-.2-.6l-.4-.5a1.22,1.22,0,0,1-.4-.9c0-.2,0-.2.2-.2h.1a1.24,1.24,0,0,0,.3.2.37.37,0,0,0,.3.1q.3,0,.3-.9a2,2,0,0,0-.6-1.6l-.4-.4a.37.37,0,0,1-.1-.3c0-.2.1-.3.2-.3a.76.76,0,0,1,.4.1l.4.1H97c.1,0,.2-.1.2-.3v-.1l-.1-.7c-.1-.7-.2-1-.4-1h-.1l-.8.2h-.1a2.88,2.88,0,0,1-2.5-2l-.6-2.1a5,5,0,0,0-1.5-2,1.33,1.33,0,0,0-.7-.3l-.6-.1a.22.22,0,0,1-.2-.2c0-.1.1-.2.3-.2a11.07,11.07,0,0,1,2.8.5,9.67,9.67,0,0,0,2.1.5c1.6,0,2.6-.8,2.6-2.2a4.69,4.69,0,0,0-.6-2.1,4.09,4.09,0,0,0-1.5-1.4.37.37,0,0,0-.3-.1.22.22,0,0,0-.2.2v.4h0c0,.2-.1.3-.2.3s-.4-.2-.6-.6a2.91,2.91,0,0,0-2.5-2c-.2,0-.3.1-.3.2s.1.2.2.4l.3.6a.37.37,0,0,1,.1.3.1.1,0,0,1-.1.1.68.68,0,0,1-.5-.3l-.5-.5-.4-.6A2.85,2.85,0,0,0,89,14.7l-.8-.4a.76.76,0,0,0-.4-.1c-.1,0-.1,0-.1.1a.76.76,0,0,0,.1.4,1.55,1.55,0,0,1,.3.6.22.22,0,0,1-.2.2q-.3,0-1.2-1.2a3.23,3.23,0,0,1-.6-1.8,2.37,2.37,0,0,1,2.4-2.4,5.21,5.21,0,0,1,2.4.8l1.5.9a4.76,4.76,0,0,0,1.8.6,2,2,0,0,0,.9-.2.52.52,0,0,0,.4-.2c.1,0,.1-.1.1-.2s-.1-.2-.3-.2a9,9,0,0,1-3.2-1.3c-.6-.4-.9-.6-1.1-.6s-.4-.2-.4-.3l.1-.1h.2l1.4.5,1.3.5a10.32,10.32,0,0,0,2.2.4.94.94,0,0,0,1-1,2.39,2.39,0,0,0-.2-.9c-.2-.4-.5-.7-.6-.7s-.2.1-.2.3V9c0,.4-.2.7-.6.7a1.09,1.09,0,0,1-.5-.1l-2.1-.7a9.51,9.51,0,0,0-3.4-.7,4.11,4.11,0,0,0-4.4,4c0,2.6,1.8,4.2,6.3,5.7s4.9,1.9,4.9,3a1.27,1.27,0,0,1-1.4,1.2,2.2,2.2,0,0,1-.8-.1c-.2,0-.9-.2-2.2-.5a16.84,16.84,0,0,0-4-.5c-3.2,0-4.7.5-6.4,2a1,1,0,0,1-1,.4h-.7a1,1,0,0,0-.9.6l-.5.9a.52.52,0,0,1-.4.2c-.3,0-.5-.2-.8-1a8.79,8.79,0,0,0-.6-1l-.7-.6-.2-.2c0-.1.1-.2.2-.3s.2-.3.3-.4.2-.3.2-.4v-.3a.22.22,0,0,1,.2-.2c.2,0,.2.1.3.9a2.3,2.3,0,0,0,.3.9l.4.8c0,.1.2.2.3.2.3,0,.8-.8.9-1.6s.2-.9.3-.9.2.1.5.6a1.76,1.76,0,0,0,.4.5c.2.1.3.2.4.2h0c.3,0,.4-.2.4-.8v-.3l-.1-.5v-.3c0-.2.1-.3.2-.3s.2,0,.2.1l.3.3a.86.86,0,0,0,.6.3c.3,0,.4-.1.4-.3s0-.2-.3-.7l-.2-.4c-.3-.5-.4-.7-.7-.7h-.3l-.4.2c-.1,0-.2.1-.3.1a.1.1,0,0,1-.1-.1,3.62,3.62,0,0,1,.5-1.3,6.84,6.84,0,0,0,.5-2.5l.2-1.5c.1-.9.2-1.3.4-1.3s.1,0,.1.1l.1.5v.4a2.77,2.77,0,0,0,.1.8c.1,0,.3-.2.5-.4l.3-.6a3.09,3.09,0,0,0,.2-.8c0-.7-.3-1.1-1.3-1.3a.35.35,0,0,1-.2-.1v-.8l-.1-.4L81,9.4,80.8,9l-.3.2c-.7.4-.8.5-1,.8s-.4.5-.5.5a.35.35,0,0,1-.2-.1l.1-.5V9.8a2.4,2.4,0,0,0-1.1-1.9l-.2.3-.2.3L77,9a1.78,1.78,0,0,0-.4,1v.2c0,.3,0,.3-.2.3h-.1l-.3-.3-.3-.4-.6-.4-.3-.2a2.71,2.71,0,0,0-.3,1.6v.3c0,.3-.1.5-.2.5s-.2-.1-.4-.2a.75.75,0,0,0-.5-.1.82.82,0,0,0-.8.9,2.52,2.52,0,0,0,.5,1.6c.3.4.6.8.7.8a2.44,2.44,0,0,0,.1-.7l-.1-.5v-.2c0-.2.1-.3.2-.3s.3.2.4.7l.3,1.2.3,1.5a9.29,9.29,0,0,0,.4,1.3c.3.6.4,1,.5,1.1.4.5.4.5.4.6a.1.1,0,0,1-.1.1.37.37,0,0,1-.3-.1c-.1-.1-.2-.1-.4-.1h-.2c-.5,0-.6.4-.6,2.6a15.32,15.32,0,0,0,.6,4l.7,1.7a2.35,2.35,0,0,1,.2.8c0,2.3-3.2,6.1-6.5,7.7-1.3.6-1.7,1.3-1.8,3a2.43,2.43,0,0,1,1.1-.4c.9-.3,1.1-.4,1.3-.8l.1-.4c.1-.2.2-.3.8-.6a2.18,2.18,0,0,0,.5-.4c.2-.3.3-.4.4-.4s.1.1.1.2v.1l-.4.9v.2A1.82,1.82,0,0,0,72.9,39c0-.2.1-.3.1-.4a4.05,4.05,0,0,1,.3-1l.6-.9c.2-.3.3-.5.3-1.4V34c0-.2.1-.3.2-.3s.2,0,.2.1l.1.6c0,.1.2.2.3.2.3,0,.7-.4,1.1-1.1a1.2,1.2,0,0,0,.2-.8,3.75,3.75,0,0,0-.1-1v-.2c0-.2.1-.3.2-.3s.1,0,.2.1l.2.7c.1.2.2.4.4.4.5,0,1-1,1.1-2.1,0-.7.1-.9.3-.9s.1,0,.2.1l.1.4c0,.2.1.3.2.3s.2-.1.4-.4c.1-.1.2-.3.3-.4a.37.37,0,0,0,.1-.3c0-.2,0-.2-.3-.4a1,1,0,0,1-.4-.7,4,4,0,0,1,.8-2c.5-.9.6-1,.7-1s.2.1.2.3a.37.37,0,0,1-.1.3.76.76,0,0,0-.1.4c0,.1.1.2.3.2a1.42,1.42,0,0,0,.6-.2,4.13,4.13,0,0,1,.9-.4,5.34,5.34,0,0,0,1.1-.4,1.48,1.48,0,0,1,.7-.1,1.27,1.27,0,0,1,.6.1,2.64,2.64,0,0,0,.7.1.47.47,0,0,0,.5-.5,2.07,2.07,0,0,0-.2-.6,3,3,0,0,0-.3-.4c-.1-.1-.2-.2-.2-.3v-.1c0-.1.1-.1.2-.1.3,0,.7.5,1.2,1.3,2.5,4.1,3.7,5.4,5.6,6s2.4,1,2.4,2.1a4.28,4.28,0,0,1-1,2.3c-1.3,1.8-1.7,2.8-1.7,4v.3c.2-.1.3-.1.4-.2.3-.1.4-.2.5-.2l.8-.2a.75.75,0,0,0,.5-.7v-.1l-.1-.7v-.1c0-.4.2-.7.4-.7a.22.22,0,0,1,.2.2l.5,1.1c.6,0,.8.3,1.5.6" transform="translate(-2 -1.6)"/><path class="cls-6" d="M70.5,16.3v.8c0,.5.1.7.3.7s.5-.4.7-.8a2.92,2.92,0,0,0,.2-.9.85.85,0,0,0-.2-.6c-.1-.4-.3-.5-.5-.5s-.4.4-.5,1.3" transform="translate(-2 -1.6)"/><path class="cls-6" d="M68.3,10.3l.5.4A4.86,4.86,0,0,1,69.9,14v.5L69.8,16v1.3c0,4.2,1.2,7,3,7a2.07,2.07,0,0,0,1.4-1c.1-.1.2-.2.3-.2s.2.1.2.3l.1.7.1.6c0,.3.1.5.1.7a1.76,1.76,0,0,1,.1.6c0,.3-.1.4-.8.5a1.8,1.8,0,0,0-.9.4c-.5.3-.8.5-.8.6l-.4.7a.22.22,0,0,1-.2.2c-.2,0-.4-.3-.8-.9a7.91,7.91,0,0,1-.5-1c0-.1.1-.1.3-.1h1.1a.22.22,0,0,0,.2-.2c0-.1-.1-.1-.1-.2l-1.4-.6a2.79,2.79,0,0,1-1.1-1.1,3,3,0,0,1-.6-1.4c0-.2.1-.4.3-.4s.1,0,.2.1a.76.76,0,0,0,.4.1c.1,0,.1,0,.2-.1s.1-.1.1-.2-.1-.2-.3-.3a4,4,0,0,1-1.9-2.7c0-.2.1-.4.2-.4h.2a4.33,4.33,0,0,1,.5.1c.2,0,.3-.1.3-.2s-.1-.2-.3-.3c-.8-.4-1-.6-1.5-1.8a12.2,12.2,0,0,0-.9-1.7,1.93,1.93,0,0,1,1-.3c.4,0,.7.3,1,1.1.2.5.4.8.5.8s.1-.1.1-.4a3.75,3.75,0,0,0-.1-1,2,2,0,0,1-.1-.7l-.1-.4-.4-.2a1.29,1.29,0,0,1-.5-1.1,1.27,1.27,0,0,1,.1-.6s.1-.3.2-.7a9.32,9.32,0,0,0,.2-1.4V9.9Z" transform="translate(-2 -1.6)"/><path class="cls-6" d="M72.2,33.5a3,3,0,0,1-1.5-.5,3.46,3.46,0,0,0-1.2-.3,2.65,2.65,0,0,0-1.4.5l.3.2.6.4.6.5c.2.1.3.2.5.2a2.88,2.88,0,0,0,2.1-1" transform="translate(-2 -1.6)"/><path class="cls-6" d="M84.5,39.3a2.41,2.41,0,0,1,.6-.8c.9-.8,1.3-1.3,1.3-1.8V36c0-.4.1-.5.3-.5s.2,0,.2.1l.2.4c0,.1.1.1.3.1s.4-.2.8-.8a1,1,0,0,0,.2-.6.76.76,0,0,0-.1-.4c0-.1-.1-.2-.2-.5a1.09,1.09,0,0,1-.1-.5.27.27,0,0,1,.3-.3c.1,0,.2,0,.2.1l.3.3c.1.1.1.1.2.1a.54.54,0,0,0,.4-.3l.3-.5a.37.37,0,0,0,.1-.3q0-.15-.3-.3l-.4-.2a2.3,2.3,0,0,1-1-2,.76.76,0,0,1,.1-.4l.2-.5a1.09,1.09,0,0,0,.1-.5,2.24,2.24,0,0,0-.3-1,7.76,7.76,0,0,1-.4-.7c-.2-.5-.3-.6-.5-.6s-.2,0-.4.2l-.3.2-.4.5-.5.2c-.3.1-.5.7-.5,1.2,0,.7.2,1.1,1.2,2.9a5.28,5.28,0,0,1,.7,1.8c0,1.3-1.3,2.4-3.5,2.8-2.6.5-3.2,1-3.5,2.6a2.42,2.42,0,0,1,1.4-.3h.6a.74.74,0,0,0,.8-.4A2.44,2.44,0,0,1,84,37l.5-.2.4-.2H85c.1,0,.2,0,.2.1a.91.91,0,0,1-.3.5,2.11,2.11,0,0,0-.5,1.1.77.77,0,0,0,.1,1" transform="translate(-2 -1.6)"/><path class="cls-6" d="M80.5,34.3a4.3,4.3,0,0,1,1,.9c.3.4.3.5.7.5a1.09,1.09,0,0,0,.5-.1l.3-.1c.5-.1.7-.2.7-.3a.35.35,0,0,0-.1-.2l-.4-.3-.4-.3a1.78,1.78,0,0,0-1-.4,1.52,1.52,0,0,0-1.3.3" transform="translate(-2 -1.6)"/><path class="cls-6" d="M90.8,36.1h1c.3,0,.5,0,.6-.1a2.17,2.17,0,0,0,.6-.7.6.6,0,0,0,.1-.4c0-.2-.2-.3-.5-.3-.9-.2-1.4.3-1.8,1.5" transform="translate(-2 -1.6)"/><path class="cls-3" d="M78.9,13.9c0,.3.2.5.3.5s.3-.5.7-1a4.25,4.25,0,0,0,.8-1.8.22.22,0,0,0-.2-.2h0l-.4.3a3.58,3.58,0,0,1-1.1.6c-.4.1-.5.3-.5.5v.3l.3.6Z" transform="translate(-2 -1.6)"/><path class="cls-3" d="M76.1,11.5a.76.76,0,0,0-.4-.2.22.22,0,0,0-.2.2v.1a4.33,4.33,0,0,0,.1.5,4.13,4.13,0,0,0,.4.9l.5.8a1,1,0,0,0,.7.4h0a.35.35,0,0,0,.2-.1l.1-.6.2-.6v-.1a.52.52,0,0,0-.2-.4l-.5-.3Z" transform="translate(-2 -1.6)"/><path class="cls-3" d="M78.2,15.6h-.6a1.09,1.09,0,0,0-.4-.2.75.75,0,0,0-.5-.1.47.47,0,0,0-.5.5,3.44,3.44,0,0,0,.4,1.3,10.37,10.37,0,0,1,.4,1c.4.9.7,1.3,1.2,1.3s.7-.3,1-1l.4-1.4c.2-.4.6-.6.6-1a.77.77,0,0,0-.8-.7h-.2l-.5.3Z" transform="translate(-2 -1.6)"/><path class="cls-6" d="M78.1,16.5h-.4c-.1,0-.1,0-.2.1s-.1.1-.1.2l.2.8.1.7c.1.4.1.5.4.5a.58.58,0,0,0,.6-.6l.1-.7a1.73,1.73,0,0,1,.1-.7c0-.1,0-.1-.1-.2a.35.35,0,0,0-.2-.1h-.5Z" transform="translate(-2 -1.6)"/><path class="cls-3" d="M34.4,84.7a3.7,3.7,0,0,1,.4,1.5l.1,1.3c.1,1.3.5,2,1.3,2a1.17,1.17,0,0,0,.7-.2l.4-.4h.1c.2,0,.3.1.3.4v.5a11.45,11.45,0,0,0,.1,1.5,5.7,5.7,0,0,1,.1,1.3,3,3,0,0,1-.3,1.6,6.46,6.46,0,0,1,.4,1.9,2.54,2.54,0,0,1-.4,1.6,8.92,8.92,0,0,1,.2,1.1,5.74,5.74,0,0,1-.1,1.2,4.21,4.21,0,0,0-.1,1.5v.1c0,.2-.1.3-.2.3a.54.54,0,0,1-.4-.3c-.2-.3-.3-.3-.5-.3s-.3.1-.6,1.1a4.88,4.88,0,0,1-.8,1.2,6.78,6.78,0,0,0-.6.9c-.1.4-.2.6-.2.7s-.1.1-.2.2h0q-.75,0-1.8-3.3c-.2-.6-.4-.9-.7-.9a.82.82,0,0,0-.6.4l-.2.4c0,.1-.1.1-.2.1-.3,0-.6-.5-.9-1.1a4,4,0,0,1-.3-1.5c0-1,.7-1.8,3-3a2.83,2.83,0,0,0,.1-4.7,2.87,2.87,0,0,0-1.4-.7.47.47,0,0,0-.5.5q0,.45.6.6c.5.2.7.4.7.6a4.25,4.25,0,0,1-.5,1.2,3.57,3.57,0,0,1-1,1.1,3.35,3.35,0,0,1-1.5,2.1,4.49,4.49,0,0,1-.6,1.2l-.7.9a9.25,9.25,0,0,0-.5,1c-.1.5-.1.6-.3.6s-.8-.5-1.3-1.1a1.5,1.5,0,0,1-.4-1.1c-.3.3-.4.3-1.1.4a6.37,6.37,0,0,0-.9.2,1.69,1.69,0,0,1-.7.3c-.1,0-.2-.1-.2-.3v-.7a5.08,5.08,0,0,1,1-2.9,2.68,2.68,0,0,0-1.6-.8c-.2,0-.2,0-.2-.1a1.1,1.1,0,0,1,.3-.6,1.7,1.7,0,0,1,.6-.6,3.16,3.16,0,0,1,1.9-.7,6.21,6.21,0,0,1,1.8.5,2.35,2.35,0,0,0,.8.2.53.53,0,0,0,.6-.6,9.78,9.78,0,0,0-.9-3,6.88,6.88,0,0,1-.6-2.1,3,3,0,0,1,1.2-2.6,1,1,0,0,0-.7-.2,2.24,2.24,0,0,0-1,.3c-.5.3-.7.5-.7.7s.1.2.3.3.3.2.3.5a3.73,3.73,0,0,1-1.6,2.5A2.91,2.91,0,0,1,22,91.7a2.87,2.87,0,0,1-.7,1.5,7,7,0,0,0-1.2,2.2c-.1.3-.2.5-.3.5a1.49,1.49,0,0,1-.7-.6,7.37,7.37,0,0,1-.5-.6,6.39,6.39,0,0,1-.4-1,.9.9,0,0,1-.5.1h-.8a4.36,4.36,0,0,0-1.8.4.37.37,0,0,1-.3.1c-.2,0-.4-.4-.4-1a5,5,0,0,1,1.1-3.2,1.72,1.72,0,0,1-.6-.6c-.1-.1-.2-.2-.3-.2l-.4-.2c-.1-.1-.2-.1-.2-.2s.5-.6,1-1a2.9,2.9,0,0,1,1.6-.6c.5,0,.8.1,1.5.7.5.4.8.6,1,.6s.3-.1.5-.3a.76.76,0,0,0,.2-.5,3.65,3.65,0,0,0-1.5-2.2,3.53,3.53,0,0,0-1.9-.6,2,2,0,0,0-2,1.2l-.4.7q-.15.3-.3.3c-.2,0-.3-.1-1-.9l-.8-1a2.51,2.51,0,0,1-.5-.8c-.1-.2-.1-.4-.2-.4l-.3-.3a4.89,4.89,0,0,1-1.4-2.7c0-.1-.1-.2-.1-.4a5.48,5.48,0,0,1-1.3-3.2.76.76,0,0,1,.1-.4c-.5-.5-.5-.6-.9-1.8a7.26,7.26,0,0,0-.7-1.7.31.31,0,0,1-.1-.2c0-.2.3-.3.7-.4a2.14,2.14,0,0,1,.6-.1h.6V72a4.14,4.14,0,0,1,.2-1.5,2,2,0,0,0,.1-.7,2.14,2.14,0,0,0-.1-.6,4.33,4.33,0,0,0-.1-.5c0-.1-.1-.2-.1-.3a.22.22,0,0,1,.2-.2.76.76,0,0,1,.4.1c.6.3,1,.6,1.4.8a5.1,5.1,0,0,1,2,3v.3a2,2,0,0,1-.1.5,1.69,1.69,0,0,0,.2.5l.4.5a2.35,2.35,0,0,1,.5,1.3c0,.3-.1.4-.6,1.2a2.38,2.38,0,0,0-.5,1.4,4.14,4.14,0,0,0,.6,2c.4.7.8,1,1.2,1,.7,0,1-.6,1.1-2.3a15.69,15.69,0,0,1,.3-2.4v-.4c0-.2-.1-.3-.3-.6l-1-1.1c-.9-1.1-1.2-1.6-1.2-2.4a1.39,1.39,0,0,1,1.4-1.5h.4v-.2A5.07,5.07,0,0,1,15,69a2.36,2.36,0,0,1,.6-1.2,1.24,1.24,0,0,0,.3.2c.1,0,.2.1.6.2a3.29,3.29,0,0,1,.6.3,5.82,5.82,0,0,1,.5-1.1,4.32,4.32,0,0,1,1-1c.1,0,.3.1.5.4l.6.6a5.92,5.92,0,0,1,.4.6l.1.3c.2-.1.3-.2.4-.2.2-.2.4-.2.5-.3l.6-.3a1.24,1.24,0,0,0,.3-.2c.1,0,.2.2.4,1.3a3.9,3.9,0,0,1,.2,1.4,1.56,1.56,0,0,1,1.5,1.8A4.66,4.66,0,0,1,22.5,75a1,1,0,0,0-.4.8c0,2.8,1,3.7,4.5,4.1A20.44,20.44,0,0,1,32,81.1a12.21,12.21,0,0,0,2.7.6q.9,0,.9-.6c0-.6-.4-.8-3-1.3-5.9-1.2-8.3-3.3-8.3-7.2a4.78,4.78,0,0,1,4.9-4.9,8.26,8.26,0,0,1,4.1,1.4c1.6.9,1.9,1.1,2.3,1.1s.6-.3.6-1c0-.4.1-.7.4-.7s.6.3,1,.7a2.41,2.41,0,0,1,.7,1.8,2.25,2.25,0,0,1-1.8,2.3l-.3.3a2.76,2.76,0,0,1-2.3,1,5.47,5.47,0,0,1-2.8-.9l-1.5-1.1a2.69,2.69,0,0,0-1.6-.7.9.9,0,0,0-1,1,1.47,1.47,0,0,0,1.1,1.4l1.4.5a14.67,14.67,0,0,1,1.4.6,2.25,2.25,0,0,1,.7-.1,5.19,5.19,0,0,1,2.7.7,1.63,1.63,0,0,1,.6.3l.8.2A4.88,4.88,0,0,1,39,81a3.49,3.49,0,0,1-3.8,3.7Z" transform="translate(-2 -1.6)"/><path class="cls-6" d="M33.9,103.8l.2-.4.5-.5a2.35,2.35,0,0,0,.6-1.7,3.55,3.55,0,0,0-.2-1,1.76,1.76,0,0,1-.1-.6.45.45,0,0,1,.3-.4.22.22,0,0,1,.2.2l.5.5a1.37,1.37,0,0,0,.8.5v-.9a4.1,4.1,0,0,0-.7-2.2c-.3-.3-.4-.5-.4-.6a.22.22,0,0,1,.2-.2.1.1,0,0,1,.1.1,1.55,1.55,0,0,0,.6.3c.2,0,.3-.4.3-.8a3.12,3.12,0,0,0-.7-1.8c-.2-.2-.3-.4-.4-.5s-.1-.1-.1-.2.1-.2.3-.2.2,0,.4.2a.31.31,0,0,0,.2.1c.2,0,.3-.4.3-1.3v-1c0-.7-.1-.8-.4-.8h-.3c-1.6,0-2.3-1-2.7-3.7-.3-1.9-1-3.3-1.9-3.6-.5-.2-.7-.3-.7-.4s.1-.2.3-.2a2.07,2.07,0,0,1,.6.2,9.76,9.76,0,0,0,3.3.8,2.61,2.61,0,0,0,2.7-2.6A4.18,4.18,0,0,0,36.2,78a3.51,3.51,0,0,0-.8-.5h-.1l-.2.1.1.5.1.3v.1c0,.1-.1.1-.2.1s-.2,0-.2-.1l-.6-.9a3.21,3.21,0,0,0-2.2-1.3c-.3,0-.4.1-.4.3a.76.76,0,0,0,.2.4.91.91,0,0,1,.3.5v.1a.1.1,0,0,1-.1.1h0c-.2,0-.2-.1-.9-.9a3.85,3.85,0,0,0-2.4-1.3c-.1,0-.2,0-.2.1l-.1.1c0,.1.1.2.2.4s.4.4.4.5-.1.1-.2.1-.6-.3-1.4-.9a3.5,3.5,0,0,1-1.7-2.9,2.12,2.12,0,0,1,2-2.2,3.44,3.44,0,0,1,2.1.8l1.6,1.2a4.38,4.38,0,0,0,2.5.8,1.27,1.27,0,0,0,.6-.1l.2-.2a.44.44,0,0,0-.3-.1,2.26,2.26,0,0,1-1.3-.6l-1.6-1.2a10.57,10.57,0,0,0-1.3-.9c-.8-.4-1-.5-1-.6a.35.35,0,0,1,.2-.1.37.37,0,0,1,.3.1l.8.4a7.6,7.6,0,0,1,1.3.8c1.7,1.1,2.6,1.5,3.6,1.5a1.61,1.61,0,0,0,1.7-1.6,1.27,1.27,0,0,0-.1-.6l-.2-.3-.2-.2-.1.1-.1.7a.31.31,0,0,1-.1.2c-.1.1-.1.2-.2.3s-.3.2-.6.2c-.5,0-1.1-.3-2.6-1.2a7.67,7.67,0,0,0-4-1.5,4.23,4.23,0,0,0-4.2,4.2c0,3.2,2,4.7,8.1,6,2.3.5,3.4,1.2,3.4,2.2s-.8,1.5-2,1.5a2.22,2.22,0,0,1-.9-.1,30.69,30.69,0,0,1-3.3-.9,15.93,15.93,0,0,0-4.3-.6c-2.4,0-4,.7-5.1,2.3a.75.75,0,0,1-.3.3.37.37,0,0,1-.3-.1l-.4-.4a2.45,2.45,0,0,0-1.2-.4,1.08,1.08,0,0,0-.7.3,1.24,1.24,0,0,0-.3.2c-.2,0-.5-.4-.8-.9a4.66,4.66,0,0,1-.5-2.2c0-.3.1-.5.2-.5s.2.1.2.3l.3.9c.1.5.4.9.7.9.1,0,.3-.1.5-.4a2.19,2.19,0,0,0,.3-.5c.2-.6.2-.7.4-.7s.3.1.4.7a1.69,1.69,0,0,0,.2.5c.1.2.3.4.4.6s.2.2.3.2c.3,0,.5-.5.5-1v-.7c0-.2,0-.3.2-.3s.1,0,.2.2a1,1,0,0,0,.5.4,1.69,1.69,0,0,0,.5.2c.1,0,.2-.1.3-.2a.37.37,0,0,0,.1-.3c0-.1-.1-.2-.5-.6a3.12,3.12,0,0,1-.6-1.3c-.1-.3-.2-.4-.3-.4a.31.31,0,0,0-.2.1l-.4.2-.3.1H20a.22.22,0,0,1-.2-.2,2.62,2.62,0,0,1,.6-.8,1,1,0,0,0,.4-.9c0-.5.1-1,.2-1l.1-1.1a8.73,8.73,0,0,1,.5-2.2.35.35,0,0,1,.1-.2c.1,0,.2.2.2.5V73c0,.4.1.6.2.6s.3-.2.4-.6l.3-.7a1.27,1.27,0,0,0,.1-.6,1,1,0,0,0-.9-1.1h-.2a.35.35,0,0,0-.2.1c-.2,0-.3-.2-.3-.4V69.2l-.1-.7v-.3l-.3.2-.4.3-.5.4-.4.4a.31.31,0,0,1-.2.1c-.2,0-.3-.1-.3-.6v-.1c0-.4-.2-.7-.8-1.5l-.2-.2-.1.2-.4.6-.4.9-.1.6a.44.44,0,0,1-.1.3c-.1,0-.2-.1-.3-.2a1.94,1.94,0,0,0-1.4-.9l-.1.2c-.1.4-.2.6-.2.7v1.1c0,.2-.1.3-.2.3h0l-.2-.2c-.1-.1-.2-.1-.4-.1-.6,0-1,.3-1,.8s.1.7.7,1.6c.3.4.6.7.7.7s.1-.2.1-.5l-.1-.4a1.09,1.09,0,0,1-.1-.5c0-.2.1-.3.2-.3.3,0,.6.8.7,2l.1,1.2a3.26,3.26,0,0,0,.4,1.3,4.82,4.82,0,0,0,.8,1.2c.3.2.5.4.5.5a.22.22,0,0,1-.2.2,3.22,3.22,0,0,0-.6-.2h-.3c-.6,0-.9.4-.9,1.5a6.3,6.3,0,0,0,1.9,4.1l1.5,1.2a3.64,3.64,0,0,1,1.3,2.3c0,.9-1,1.9-2.8,2.5l-1.1.4c-.8.3-1.2.8-1.5,2.4a3.71,3.71,0,0,1,.9-.2H16a.67.67,0,0,0,.7-.6v-.3q0-.15.3-.3a1.09,1.09,0,0,0,.4-.2l.4-.3c.1,0,.1-.1.2-.1a.22.22,0,0,1,.2.2.37.37,0,0,1-.1.3,3.59,3.59,0,0,0-.2,1.1,2.73,2.73,0,0,0,.5,1.8,1,1,0,0,1,.1-.4,4.38,4.38,0,0,1,.5-.9,4,4,0,0,0,.8-2v-.1l-.1-.7a.76.76,0,0,1,.2-.4c.1-.1.1-.1.2-.1s.2.1.3.3a1.24,1.24,0,0,0,.2.3c.1,0,.3-.3.5-.6a2.54,2.54,0,0,0,.2-.7.6.6,0,0,0-.1-.4.76.76,0,0,1-.1-.4c0-.1,0-.1.1-.2s.1-.1.2-.1.1,0,.2.1l.3.2a.37.37,0,0,0,.3.1c.1,0,.3-.1.5-.4a2.79,2.79,0,0,0,.5-.9c0-.1-.1-.1-.2-.3a2.54,2.54,0,0,1-1.1-1.7,1.09,1.09,0,0,1,.1-.5l.3-.9c.2-.4.2-.7.3-.7h.1a.22.22,0,0,1,.2.2.76.76,0,0,1-.1.4,1.49,1.49,0,0,0-.1.6c0,.2.1.4.3.4a.9.9,0,0,0,.5-.1,6.61,6.61,0,0,1,2.2-.6,2.13,2.13,0,0,1,1.2.4.37.37,0,0,0,.3.1c.1,0,.1,0,.2-.1s.1-.1.1-.2a.76.76,0,0,0-.2-.4.55.55,0,0,1-.2-.5.22.22,0,0,1,.2-.2c.5,0,1.3,1.6,2,4.1.6,2,.8,2.2,2.7,3.3,1.6.9,2.2,1.8,2.2,3.3A19.3,19.3,0,0,1,33,99.1a4.92,4.92,0,0,0-.4,1.7,7.44,7.44,0,0,0,.3,1.5c.1.4.2.7.2.7.6.4.7.6.8.8" transform="translate(-2 -1.6)"/><path class="cls-6" d="M26.4,99.3c.2-.4.3-.5.6-1.1a3.27,3.27,0,0,0,.7-1.6v-.5c0-.5.1-.7.3-.7s.1,0,.2.1l.2.3c0,.1.1.1.2.1a.54.54,0,0,0,.4-.3,3,3,0,0,0,.4-1.1v-.8a.27.27,0,0,1,.3-.3c.1,0,.2,0,.3.3a1.24,1.24,0,0,0,.2.3c.1,0,.2-.1.3-.2l.3-.4.2-.3v-.2c0-.1-.1-.2-.2-.3a2.5,2.5,0,0,1-.9-2.3,6.25,6.25,0,0,0-.2-1.8,11.89,11.89,0,0,0-.6-1.4,8.34,8.34,0,0,1-.4-1.2c-.1-.3-.2-.4-.4-.4a1.53,1.53,0,0,0-1.5,1.7,6.72,6.72,0,0,0,.7,2.6,8.32,8.32,0,0,1,.8,2.7c0,1.2-.5,1.7-2.1,2.3-1.8.7-2.7,1.6-3,3.3a.37.37,0,0,1,.3-.1c.2-.1.4-.1.4-.2l.5-.1a1.58,1.58,0,0,0,.9-.6l.1-.4a.22.22,0,0,1,.2-.2l.3-.1.3-.1.1.1-.1.4a5.64,5.64,0,0,0-.1.7,1.79,1.79,0,0,0,.3,1.8" transform="translate(-2 -1.6)"/><path class="cls-6" d="M9.2,69.6c0,.2.1.3.1.4a3.22,3.22,0,0,1-.1.8l-.1.7a4.67,4.67,0,0,0,.3,1.7,1.73,1.73,0,0,1,.2.7V74a.35.35,0,0,1-.1.2c-.1,0-.2-.1-.3-.2A2.08,2.08,0,0,0,8,73.5a1.09,1.09,0,0,0-.5.1l.2.4.5,1.2.7,1,.7.5c.1,0,.1.1.2.2a.31.31,0,0,1,.1.2.1.1,0,0,1-.1.1H9.2a.35.35,0,0,0-.2.1,6.47,6.47,0,0,0,.3,1l.3.9.5.5.6.4a.54.54,0,0,1,.3.4.35.35,0,0,1-.1.2h-.3c-.1,0-.2.1-.2.3a2.56,2.56,0,0,0,.6,1.2c.5.7.8.9,1.4.9h.5c.2,0,.4.1.4.3s-.1.2-.3.3c-.4.1-.6.2-.6.4s.1.2.2.3l.3.4a1.18,1.18,0,0,0,.6.5A.91.91,0,0,0,14,85a2.29,2.29,0,0,1,1-.7c1.1-.3,1.3-.4,1.3-.7a.76.76,0,0,0-.1-.4,2.52,2.52,0,0,1-.5-1.6c0-.4-.1-.7-.2-.7s-.2.1-.3.3a1.51,1.51,0,0,1-1.1.7c-1.1,0-2.4-1.7-3.1-4a4.68,4.68,0,0,1-.2-1.7,15,15,0,0,1,.2-2,8.13,8.13,0,0,1,.4-1.6v-.4a6.2,6.2,0,0,0-2.2-2.6" transform="translate(-2 -1.6)"/><path class="cls-6" d="M11.5,74.1a6.48,6.48,0,0,0-.5,2.1c0,.4.1.7.3.7s.1-.1.2-.2l.4-.6c.1-.1.1-.2.2-.4a1.69,1.69,0,0,0,.2-.5,1.27,1.27,0,0,0-.8-1.1" transform="translate(-2 -1.6)"/><path class="cls-6" d="M15.1,88.6l.2.2.3.3c.6.6.7.7,1,.7a5.27,5.27,0,0,0,1.2-.3l.2-.2a1.73,1.73,0,0,0-.3-.4l-.4-.3a2.77,2.77,0,0,0-.9-.5c-.4-.1-.7.1-1.3.5" transform="translate(-2 -1.6)"/><path class="cls-6" d="M22.5,94.4a1.63,1.63,0,0,1,.6.3,5.2,5.2,0,0,0,.5.3,4.33,4.33,0,0,0,.5.1.6.6,0,0,0,.4-.1l.7-.3.6-.2a1.24,1.24,0,0,0,.3-.2,1.09,1.09,0,0,0-.4-.2,1.69,1.69,0,0,1-.5-.2c-.8-.3-.9-.4-1.2-.4a2.65,2.65,0,0,0-1.5.9" transform="translate(-2 -1.6)"/><path class="cls-6" d="M30.6,100.8c.2-.5.4-.6,1.1-.6s1.6-1.5,1.6-2.5c0-.1,0-.2-.1-.2a.31.31,0,0,0-.2.1c-.2.2-.4.2-.5.3l-.9.4a2.3,2.3,0,0,0-1.2,1.8c0,.1.1.3.2.7" transform="translate(-2 -1.6)"/><path class="cls-3" d="M16.8,72.9l.3.5a3,3,0,0,0,.7.5c.1,0,.1-.1.2-.3l.1-.5v-.5c0-.4-.2-.6-1.1-.8-.2-.1-.3,0-.4-.2a.76.76,0,0,0-.4-.2c-.1,0-.1,0-.1.1v.1l.2.5Z" transform="translate(-2 -1.6)"/><path class="cls-3" d="M20.2,72.9l-.4.7-.2.2h0c-.2,0-.3-.4-.4-.8l-.1-.6c0-.3.2-.4.6-.5s.5-.1.6-.2c.3-.2.5-.3.5-.4h.1c.1,0,.1.1.1.2h0l-.2.5Z" transform="translate(-2 -1.6)"/><path class="cls-3" d="M19.4,75.1l.5-.3a.35.35,0,0,0,.2-.1.46.46,0,0,1,.4.5,4,4,0,0,1-.7,1.6c-.4.8-.7,1.3-1.1,1.3s-1.1-.7-1.7-2a2.92,2.92,0,0,1-.2-.9c0-.4.2-.6.5-.6a.6.6,0,0,1,.4.1l.3.2a1.33,1.33,0,0,0,.8.3.66.66,0,0,0,.6-.1" transform="translate(-2 -1.6)"/><path class="cls-6" d="M18.6,75.9l-.4-.1h-.1a.27.27,0,0,0-.3.3,3.88,3.88,0,0,0,.6,1.4.31.31,0,0,0,.2.1c.2,0,.4-.4.5-1l.1-.5V76c0-.2-.1-.3-.2-.3h-.1" transform="translate(-2 -1.6)"/><path class="cls-3" d="M90.2,84.3a2.88,2.88,0,0,0,2,1.2c.2,0,.5-.1.9-.1.2,0,.3-.1.4-.1s.2.1.2.2a2.07,2.07,0,0,1-.2.6,1.42,1.42,0,0,0-.2.6l-.1.7-.3.6-.4.4-.1.1v.4a1.77,1.77,0,0,1-.9,1.7c-.1,0-.1.1-.2.2l-.1.3a3,3,0,0,1-.3,1.1,6.78,6.78,0,0,1-.6.9,6.55,6.55,0,0,0-.8,1.3c-.1.3-.2.4-.4.4s-.6-.4-.7-.9c-.1.1-.1.2-.2.2l-.4.3-.6.4a2.74,2.74,0,0,0-.5.4l-.4.4c-.1.1-.1.1-.2.1s-.3-.3-.5-.8l-.3-1.1a3.08,3.08,0,0,1-.1-1,2,2,0,0,1,.2-1.1c-.6.1-.8.1-1.2.2-.1,0-.2.1-.3.1a.22.22,0,0,1-.2-.2,4.33,4.33,0,0,0,.1-.5l.4-1.1a2.8,2.8,0,0,1,2.2-1.6,3.09,3.09,0,0,1,.8.2,1.09,1.09,0,0,0,.5.1.67.67,0,0,0,.7-.6c0-.2-.1-.4-.3-.4a6.74,6.74,0,0,1-1.2-.4,3.17,3.17,0,0,1-1.4-1.1c-.4-.5-.6-.7-.8-.7a.22.22,0,0,0-.2.2v.6a6.36,6.36,0,0,1-.9,2.9L82.7,91a4.47,4.47,0,0,0-.6,2c0,.6.3,1.2.6,1.3l.5.1c.1,0,.1,0,.2.1s.1.1.1.2-.1.2-.2.3a7.68,7.68,0,0,1-.6.7,3,3,0,0,1-1.6,1.2A3.33,3.33,0,0,1,79,98.8l-.1.2a2.51,2.51,0,0,1-1.8,1.3H77a2.49,2.49,0,0,1-1.1,1.6c-.4.3-.7.5-.7.5a1.24,1.24,0,0,0-.2.3c-.1.3-.3.5-.5.5s-.6-.3-.8-.9c-.1.1-.2.1-.3.2a4.57,4.57,0,0,1-.6.4,3,3,0,0,1-1.1.3c-.8.2-1.5.5-1.6.8l-.3.5-.1.1c-.2,0-.3-.2-.4-.5a7.39,7.39,0,0,1-.3-1.8,4,4,0,0,1,1.5-3V99a3,3,0,0,1,3.3-3h.3l1.1.1h.1a2.51,2.51,0,0,0,1.7-.7,1.91,1.91,0,0,0,1-1.8,8.67,8.67,0,0,0-.3-1.3,3.89,3.89,0,0,1-.2-1.5,5.4,5.4,0,0,1,2.3-3.9c.3-.2.6-.5.6-.7s0-.1-.1-.1-.2.1-.4.2-.4.3-.8.5l-.5.3-.6.2q-.3.15-.3.3a.37.37,0,0,0,.1.3.35.35,0,0,0,.1.2c0,.1-.1.2-.2.4l-.4.7A3.23,3.23,0,0,1,76,90.5c-.4,1.1-.9,1.6-1.6,1.7A2.67,2.67,0,0,1,72.2,94a3,3,0,0,1-1,1.5c-.2.2-.4.4-.4.5-.3.4-.3.5-.4.5a1.3,1.3,0,0,1-.7-.5,1.38,1.38,0,0,1-.3-.4l-.3-.5c-.1-.2-.2-.2-.3-.2h-.2l-.7.1a2.73,2.73,0,0,0-1.3.7l-.4.6c0,.1-.1.1-.2.1-.3,0-.5-.6-.5-1.7a3,3,0,0,1,.5-2l.9-1.2c.1-.2.2-.3.2-.5a.76.76,0,0,0-.2-.4c-.2-.2-.4-.4-.5-.4l-.7-.1c-.1,0-.2,0-.2-.1s0-.1.1-.2a2.7,2.7,0,0,1,.8-.7,3.43,3.43,0,0,1,1.9-.7,4.06,4.06,0,0,1,1.7.5l.9.6a.6.6,0,0,0,.4.1,1.4,1.4,0,0,0,1.1-.8,3.07,3.07,0,0,0,.4-1.5,2.05,2.05,0,0,0-2.1-2.1,2.93,2.93,0,0,0-1.7.6c-.2.1-.3.2-.3.4l-.3.6-.2.2c-.2,0-.5-.5-.8-1.1a3.37,3.37,0,0,1-.4-1.2,5,5,0,0,1-.3-1.6v-.9a3.61,3.61,0,0,1-.6-2,2.8,2.8,0,0,1,.2-1.1,2.12,2.12,0,0,1-.4-1.4v-.4l.1-.4.1-.4a4.7,4.7,0,0,1-.7-2.1,6.8,6.8,0,0,0-.4-1.3.31.31,0,0,1-.1-.2c0-.2.4-.4,1-.4h.5a1.49,1.49,0,0,1-.1-.6,6.88,6.88,0,0,1,.2-1.3,1.72,1.72,0,0,0,.2-.8c0-.4-.1-.8-.1-1l-.3-.6a.37.37,0,0,1-.1-.3c0-.1,0-.1.2-.1a5.86,5.86,0,0,1,2.8,1.6,3.52,3.52,0,0,1,1.2,2.9l-.1.7c.9.8,1.3,1.4,1.3,2.1a1.94,1.94,0,0,1-.6,1.3,2.74,2.74,0,0,0-1.1,2.4c0,1.7.5,2.6,1.4,2.6s1.5-.9,1.6-2.2L73,78a7.38,7.38,0,0,1,.2-1.2,2.81,2.81,0,0,0,.1-.8c0-.4-.3-1-1.1-2S71,72.4,71,71.6a1.61,1.61,0,0,1,1.6-1.7.85.85,0,0,1,.6.2,2,2,0,0,1,.4-1.4,2.36,2.36,0,0,1,.6-1.1.31.31,0,0,1,.2.1c.1.1.3.3.4.3a1.24,1.24,0,0,1,.3.2l.3.3a2.75,2.75,0,0,1,1-1.6c.4-.4.6-.6.7-.6s.1.1.2.2l.4.5.5.6a1.57,1.57,0,0,1,.4,1l.3-.2.5-.3c.1-.1.2-.1.4-.3a.31.31,0,0,1,.2-.1c.1,0,.1.1.2.2l.2.7.4.8a1.55,1.55,0,0,1,.2.8v.2h.2A1.48,1.48,0,0,1,82.4,72a4.72,4.72,0,0,1-2.1,3.4,2.77,2.77,0,0,0-.1.9c0,2.5.7,3.1,4.6,3.7a15,15,0,0,1,2.6.5c.1,0,1,.3,2.5.8a5.81,5.81,0,0,0,1.9.4c.5,0,.7-.1.7-.4s-.6-.8-2.6-1.6l-2.8-1.1c-2.8-1.1-4.2-2.8-4.2-5.4A5,5,0,0,1,88.1,68a10.33,10.33,0,0,1,3.8.8,18.34,18.34,0,0,0,2.3.8c.4,0,.6-.3.7-.8s.2-.7.4-.7c.4,0,.8.4,1.1,1a3.29,3.29,0,0,1,.4,1.7,1.88,1.88,0,0,1-1.6,2,3,3,0,0,1-2.6,1.3c-1.3,0-1.9-.3-4.1-1.6a2.7,2.7,0,0,0-1.7-.6A1.17,1.17,0,0,0,85.5,73c0,.6.5,1,1.5,1.3a2.81,2.81,0,0,1,1.1.5,1.34,1.34,0,0,1,.5-.1A6,6,0,0,1,92,76.2a5.33,5.33,0,0,1,3.7,4.5,3.74,3.74,0,0,1-3.6,3.7c.1.2-1,.1-1.9-.1" transform="translate(-2 -1.6)"/><path class="cls-6" d="M89,93.1l.1-.4.1-.5c0-.1.1-.3.4-.5a2.77,2.77,0,0,0,.5-1.6,1.42,1.42,0,0,0-.2-.6.37.37,0,0,1-.1-.3.1.1,0,0,1,.1-.1A.1.1,0,0,1,90,89h0c.1,0,.2.1.3.2a.75.75,0,0,0,.3.3c.1,0,.3-.2.4-.6a.44.44,0,0,1,.1-.3,1.9,1.9,0,0,0-.3-.9.37.37,0,0,1-.1-.3.22.22,0,0,1,.2-.2c.1,0,.2.1.4.3a.31.31,0,0,0,.2.1c.2,0,.3-.2.5-.7a1.34,1.34,0,0,0,.1-.5c0-.1,0-.1-.1-.1h-.5a2.62,2.62,0,0,1-1.8-.9l-.9-1.1c-.3-.4-.8-1.1-.8-1.1l-.7-.5c-.1-.1-.2-.2-.2-.3s.1-.2.3-.2a8.46,8.46,0,0,1,1.7.6,9.74,9.74,0,0,0,3.2.7,2.78,2.78,0,0,0,2.8-2.7,4,4,0,0,0-1.3-2.6,1.52,1.52,0,0,0-.6-.4.22.22,0,0,0-.2.2.76.76,0,0,0,.1.4c0,.1.1.2.1.3a.22.22,0,0,1-.2.2q-.3,0-.6-.9c-.2-.7-.6-1.1-1.6-1.6a4.91,4.91,0,0,0-1-.4.1.1,0,0,0-.1.1.6.6,0,0,0,.1.4l.3.6h0a.22.22,0,0,1-.2.2c-.2,0-.3-.1-.7-.8a3.14,3.14,0,0,0-1.4-1.1,1.09,1.09,0,0,0-.5-.1h0a.35.35,0,0,0-.2.1.44.44,0,0,1,.1.3v.2a.22.22,0,0,1-.2.2,4,4,0,0,1-1.3-1,3.15,3.15,0,0,1-.8-1.9,2.51,2.51,0,0,1,2.5-2.3,1.88,1.88,0,0,1,.8.2l1.1.6,1.3.9a5.52,5.52,0,0,0,2.4.9,2.68,2.68,0,0,0,1-.2c.3-.1.5-.2.5-.3h0l-.1-.1-.7-.1a4.75,4.75,0,0,1-2-.9l-1.5-1-1.3-.5a.22.22,0,0,1-.2-.2c0-.1.1-.1.2-.1a1.58,1.58,0,0,1,.4.1l1.2.4a8.48,8.48,0,0,1,1.5.7,6.69,6.69,0,0,0,2.8,1,1.24,1.24,0,0,0,1.3-1.2c0-.2-.1-.6-.1-.9a.76.76,0,0,0-.2-.4c-.1-.1-.1-.1-.2-.1s-.1.1-.1.3v.4c0,.6-.2.8-.9.8a8.8,8.8,0,0,1-2.9-.9,9,9,0,0,0-3.4-.8,4.5,4.5,0,0,0-4.5,4.2q0,2.85,3.9,4.5l2.7,1.1c2.3.9,3.1,1.6,3.1,2.5,0,.7-.7,1.2-1.7,1.2a5.92,5.92,0,0,1-2.1-.5A19.09,19.09,0,0,0,84,81.4a6.86,6.86,0,0,0-5.4,2.1c-.2.2-.3.2-.4.2s-.2,0-.5-.2a1.85,1.85,0,0,0-.7-.2,1.52,1.52,0,0,0-.8.4l-.3.4c-.1.1-.2.2-.3.2s-.6-.4-.9-.9a1.6,1.6,0,0,1-.3-.8c0-.2-.1-.5-.1-.9v-.6l.1-.6a1.21,1.21,0,0,1,.1-.5c0-.1.1-.1.2-.1s.2.2.2.5v.3c0,.9.4,1.7.8,1.7s.6-.6.8-1.7c0-.2.1-.4.2-.4s.2.2.3.6a4.67,4.67,0,0,0,.5,1,.54.54,0,0,0,.4.3c.3,0,.4-.4.6-1.3q.15-.6.3-.6c.1,0,.1,0,.1.1a1.09,1.09,0,0,1,.2.4,1.38,1.38,0,0,0,.4.3.76.76,0,0,0,.4.1.37.37,0,0,0,.3-.1c.1-.1.2-.2.2-.3a1.24,1.24,0,0,1-.2-.3,2.65,2.65,0,0,1-.6-1.1,1.54,1.54,0,0,0-.3-.7c-.1-.1-.1-.2-.2-.2h-.3s-.3.1-.7.2h-.2c-.1,0-.1-.1-.1-.2s.1-.2.3-.4a4.66,4.66,0,0,0,1.5-3.3,3.29,3.29,0,0,1,.6-1.9l.2-.2c.1,0,.2.1.2.3a1.09,1.09,0,0,1-.1.5c0,.1-.1.3-.1.4V74l.1.2.4-.1.4-.4a2.84,2.84,0,0,0,.4-1.3.91.91,0,0,0-.3-.7c-.2-.2-.3-.3-.5-.3h-.4c-.2,0-.3-.1-.3-.2l.1-.2v-.4l-.2-.8-.2-.4-.1-.3-.2.2-.5.3c-.1.1-.3.2-.4.4-.5.6-.5.6-.7.6s-.2,0-.2-.1v-.1a2,2,0,0,0,.1-.7,3.07,3.07,0,0,0-.9-1.9,2.6,2.6,0,0,0-1,2v.4c0,.1,0,.2-.1.2h0a.22.22,0,0,1-.2-.2l-.4-.5a3.61,3.61,0,0,0-.5-.4c-.1,0-.1-.1-.3-.2l-.1.3a3.07,3.07,0,0,0-.4,1.5c0,.4-.1.6-.2.6a.31.31,0,0,1-.2-.1c-.5-.3-.5-.3-.7-.3a.94.94,0,0,0-1,1,2.43,2.43,0,0,0,.4,1.1c.3.5.7,1,.9,1s.1,0,.1-.2v-.6l-.1-.4v-.1c0-.1,0-.2.1-.2.3,0,.5.8.8,2.5a5.29,5.29,0,0,0,1.2,3.1l.3.3a.1.1,0,0,1-.1.1c-.1,0-.2-.1-.4-.2a.37.37,0,0,0-.3-.1.86.86,0,0,0-.7.8L73.8,81l-.2,2.6a7.18,7.18,0,0,0,.2,1.9c.1.7.2,1.2.2,1.5a4.13,4.13,0,0,1-3.2,4l-2.1.6c-1.3.4-1.9,1.2-2.1,2.8.3-.3.4-.3.9-.4l.6-.1a.59.59,0,0,0,.5-.2c.1,0,.2-.2.4-.4l.5-.6c.2-.2.4-.4.5-.4s.1.1.1.2a1.69,1.69,0,0,1-.2.5,1.08,1.08,0,0,0-.2.8,2.14,2.14,0,0,0,.5,1.3.76.76,0,0,0,.1-.4c.1-.1.2-.3.5-.7a5.48,5.48,0,0,0,.8-1.4c0-.5.1-.7.2-.7s.1,0,.2.3c0,.1,0,.1.1.2s.1.1.2.1a.77.77,0,0,0,.3-.1,2.18,2.18,0,0,0,.5-.4l.3-.6a3.93,3.93,0,0,0,.2-.6v-.4c0-.1,0-.2.1-.2s.2.2.3.4.1.2.2.2h0c.1,0,.2-.1.3-.1a1.93,1.93,0,0,0,.6-1.2v-.6l-.1-.5h0a.22.22,0,0,1,.2-.2c.1,0,.3.2.5.7q.15.3.3.3c.2,0,.3-.1.6-.5l.3-.4a.5.5,0,0,0,0-.6l-.3-.4c0-.1-.1-.2-.1-.3a3.74,3.74,0,0,1,.5-1.5,5.44,5.44,0,0,0,.4-.8c.1-.1.1-.2.2-.2s.1.1.1.2v1c0,.1.1.2.3.2a.37.37,0,0,0,.3-.1l.8-.3a5.74,5.74,0,0,0,.7-.4,4.1,4.1,0,0,1,2.3-.8,2.87,2.87,0,0,1,1.5.5.49.49,0,0,0,.3.1c.1,0,.2-.1.3-.2a.31.31,0,0,0,.1-.2.6.6,0,0,0-.1-.4,1.69,1.69,0,0,1-.2-.5.1.1,0,0,1,.1-.1.22.22,0,0,1,.2.2c.1.2.3.6.7,1.3a4,4,0,0,0,2.1,2l1.4.3c.4.1.5.3.5.8a2.81,2.81,0,0,1-1.3,2.4l-1.2.7a2.26,2.26,0,0,0-.8,1.6,12.77,12.77,0,0,0,.2,1.7l.2-.2.5-.3.5-.5.3-.7.3-.6c.1-.3.3-.5.4-.5s.2.2.2.5v.2c.3-.2.4,0,.7.7" transform="translate(-2 -1.6)"/><path class="cls-6" d="M70.1,102.3c0-1.5.6-2.2,2.8-3.3,4.4-2.2,6.7-4.2,6.7-5.8a6.09,6.09,0,0,0-.4-1.7,5,5,0,0,1-.3-1.4,4.35,4.35,0,0,1,1.3-2.5l.6-.5a1.79,1.79,0,0,0,.6-1v-.3c0-.3.1-.4.5-.5h.3a.35.35,0,0,0,.2-.1c.1,0,.2.1.3.2l.2.3.2.3c.1.1.1.1.2.1a.31.31,0,0,0,.2-.1.76.76,0,0,1,.4-.1.27.27,0,0,1,.3.3A4.84,4.84,0,0,1,83,88.8c-1.2,1.7-1.6,2.6-1.6,3.6a3.41,3.41,0,0,0,.7,2.2.31.31,0,0,1,.1.2c0,.1-.1.2-.2.4s-.1.2-.2.3c-.3.4-.4.5-.6.5s-.2-.1-.3-.3l-.1-.3a.22.22,0,0,0-.2-.2l-.1.1c-.1.1-.1.2-.1.4v.5a1.42,1.42,0,0,1-.2.6c-.1.2-.3.3-.4.5s-.2.2-.3.2-.2-.1-.2-.3l-.2-.6a.22.22,0,0,0-.2-.2c-.1,0-.2.2-.2.5-.1.7-.2,1.2-.4,1.3l-.5.4a.76.76,0,0,1-.4.2c-.1,0-.2,0-.2-.1l-.2-.5a.1.1,0,0,0-.1-.1c-.1,0-.2.3-.3.7a2.36,2.36,0,0,1-1,2.1,2.17,2.17,0,0,0-.8.9,2,2,0,0,1-.4-1.3c0-.3,0-.5.1-.6a1.69,1.69,0,0,0,.2-.5.1.1,0,0,0-.1-.1.31.31,0,0,0-.2.1,1.38,1.38,0,0,1-.4.3,1.17,1.17,0,0,0-.8,1.1,1.52,1.52,0,0,1-1.5,1.4c-1.1.2-1.2.2-1.5.6Z" transform="translate(-2 -1.6)"/><path class="cls-6" d="M68,69.2V70a.9.9,0,0,1-.1.5,2.64,2.64,0,0,0-.1.7,2.82,2.82,0,0,0,.4,1.5,2.61,2.61,0,0,1,.3,1.1.35.35,0,0,1-.1.2c-.1,0-.1,0-.2-.1l-.3-.4c-.2-.3-.4-.4-.9-.4h-.6c.2.5.3.8.4,1.1.3,1,.3,1.1.9,1.6s.6.6.6.8-.1.3-.2.3h-.3c-.2,0-.3.3-.3.7a3.09,3.09,0,0,0,.2.8c.1.2.2.3.2.4l.3.3a.37.37,0,0,1,.1.3c0,.2-.1.3-.2.3a.37.37,0,0,1-.3-.1.35.35,0,0,1-.2-.1c-.1,0-.2.1-.2.3l.1.5.2.8c0,.2.2.4.4.6a1.76,1.76,0,0,0,.5.4l.6.3c.1,0,.1.1.1.3a.22.22,0,0,1-.2.2.77.77,0,0,1-.3-.1h-.3c-.3,0-.3,0-.3.3a.9.9,0,0,0,.1.5l.1.5c.1.5.3.8.5.8a.31.31,0,0,0,.2-.1,3.72,3.72,0,0,1,2-.7,4.87,4.87,0,0,1,1.5.2.49.49,0,0,0,.3.1c.1,0,.1-.1.1-.4l.1-.6.1-1,.1-.7v-.4c-.1.1-.2.2-.3.2a1.93,1.93,0,0,1-1.5.7c-1.5,0-2.3-1.7-2.3-4.5a34,34,0,0,1,.5-4.8,3.44,3.44,0,0,0,.1-.9A3.48,3.48,0,0,0,68,69.2" transform="translate(-2 -1.6)"/><path class="cls-6" d="M70.2,76.4l.3-.3.3-.3a1.78,1.78,0,0,0,.4-1,.9.9,0,0,0-.1-.5c-.1-.2-.3-.5-.5-.5s-.2.3-.2.7l-.1.5-.1.5v.9Z" transform="translate(-2 -1.6)"/><path class="cls-6" d="M67.3,89.5c.3.1.4.2.7.6a1.37,1.37,0,0,0,1.3.6.9.9,0,0,0,.5-.1l.4-.1.3-.1c.2,0,.3-.1.3-.2s-.3-.3-.6-.5a3,3,0,0,0-.8-.4,2.54,2.54,0,0,0-.7-.2,2.5,2.5,0,0,0-1.4.4" transform="translate(-2 -1.6)"/><path class="cls-6" d="M71.7,98.5A2.14,2.14,0,0,1,74,96.6c.6,0,1,.1,1,.3s-.3.4-.9.7a4.54,4.54,0,0,0-.9.5,4.59,4.59,0,0,1-1.4.7Z" transform="translate(-2 -1.6)"/><path class="cls-6" d="M84.7,90.8c.5-.1.6-.2.8-.2h.6c.1,0,.2-.1.4-.3s.3-.2.4-.3c.6-.4.7-.5.7-.6s-.3-.3-.8-.3c-1,0-1.6.5-2.1,1.7" transform="translate(-2 -1.6)"/><path class="cls-3" d="M75,71.2l.5.3a5.92,5.92,0,0,1,.6.4c.5.2.7.3.7.5a.76.76,0,0,1-.1.4,4.33,4.33,0,0,0-.1.5.47.47,0,0,1-.5.5c-.2,0-.4-.3-.8-1a5,5,0,0,1-.5-1.3v-.1a.22.22,0,0,1,.2-.2" transform="translate(-2 -1.6)"/><path class="cls-3" d="M79.4,72.4l-.7.7a.94.94,0,0,0-.3.7.35.35,0,0,1-.2.1h0a.27.27,0,0,1-.3-.3v-1h0c0-.2.1-.3.3-.4l.7-.2.7-.4a.77.77,0,0,1,.3-.1.22.22,0,0,1,.2.2.31.31,0,0,1-.1.2Z" transform="translate(-2 -1.6)"/><path class="cls-3" d="M76.1,74.5l.5.4a.6.6,0,0,0,.4.1,3.09,3.09,0,0,0,.8-.2l.4-.2a.35.35,0,0,0,.2-.1.56.56,0,0,1,.5.6,3.2,3.2,0,0,1-.8,1.7l-.4.7c-.3.4-.5.5-.7.5-.4,0-.6-.2-1.1-1.3a4.29,4.29,0,0,1-.6-1.7c0-.3.2-.6.4-.6a.76.76,0,0,0,.4.1" transform="translate(-2 -1.6)"/><path class="cls-6" d="M76.5,76.3v.6a.47.47,0,0,0,.5.5c.3,0,.5-.4.6-1.1a1.58,1.58,0,0,0,.1-.4c0-.2-.1-.3-.4-.3h-.5q-.3,0-.3.6" transform="translate(-2 -1.6)"/><path class="cls-3" d="M40.5,61.8h3.1v6.4h3.7V61.8h9.3v6.4h3.7V61.8h3.1V45.2H59.8l-.1-.2A2.06,2.06,0,0,0,58,44a1.89,1.89,0,0,0-1.7,1.2H53.7a1.88,1.88,0,0,0-3.5,0H47.4A2,2,0,0,0,45.6,44a1.79,1.79,0,0,0-1.7,1.2H40.5Z" transform="translate(-2 -1.6)"/><rect class="cls-5" x="39.8" y="45" width="20.4" height="14"/><path class="cls-6" d="M43.9,49.8a1,1,0,1,0,1,1,1,1,0,0,0-1-1" transform="translate(-2 -1.6)"/><path d="M43.9,51.9A1.1,1.1,0,1,1,45,50.8,1.11,1.11,0,0,1,43.9,51.9Zm0-2a.8.8,0,1,0,.8.8C44.8,50.3,44.4,49.9,43.9,49.9Z" transform="translate(-2 -1.6)"/><path class="cls-6" d="M59.9,49.8a1,1,0,1,0,1,1,1,1,0,0,0-1-1" transform="translate(-2 -1.6)"/><path d="M59.9,51.9A1.1,1.1,0,1,1,61,50.8,1.11,1.11,0,0,1,59.9,51.9Zm0-2a.8.8,0,1,0,.8.8C60.8,50.3,60.4,49.9,59.9,49.9Z" transform="translate(-2 -1.6)"/><path class="cls-6" d="M43.9,57.4a1,1,0,0,0,0,2,.92.92,0,0,0,.9-1,.87.87,0,0,0-.9-1" transform="translate(-2 -1.6)"/><path d="M43.9,59.5A1.1,1.1,0,1,1,45,58.4,1.11,1.11,0,0,1,43.9,59.5Zm0-2a.79.79,0,0,0-.8.8.82.82,0,0,0,.9.8.86.86,0,0,0,.8-.8A.88.88,0,0,0,43.9,57.5Z" transform="translate(-2 -1.6)"/><path class="cls-6" d="M59.9,57.4a1,1,0,1,0,1,1,1,1,0,0,0-1-1" transform="translate(-2 -1.6)"/><path d="M59.9,59.5A1.1,1.1,0,1,1,61,58.4,1.11,1.11,0,0,1,59.9,59.5Zm0-2a.8.8,0,1,0,.8.8C60.8,57.9,60.4,57.5,59.9,57.5Z" transform="translate(-2 -1.6)"/><path class="cls-6" d="M47,54.5A6.3,6.3,0,0,0,52,57c1.9,0,3.2-.7,4.7-2.5a6.16,6.16,0,0,0-4.8-2.2A5.6,5.6,0,0,0,47,54.5" transform="translate(-2 -1.6)"/><path class="cls-3" d="M47.9,54.5a5.82,5.82,0,0,1,7.8,0,5,5,0,0,1-3.9,1.7,6,6,0,0,1-3.9-1.7" transform="translate(-2 -1.6)"/><path class="cls-6" d="M49.6,54.1a4,4,0,0,0,2.2.7,3.69,3.69,0,0,0,2.3-.7,4.93,4.93,0,0,0-2.3-.6,7.09,7.09,0,0,0-2.2.6" transform="translate(-2 -1.6)"/><rect class="cls-3" x="39.5" y="45.7" width="21" height="0.7"/><path d="M62.5,48.1h-21v-.8h21ZM41.6,48H62.5v-.6H41.6Z" transform="translate(-2 -1.6)"/><path class="cls-6" d="M44.7,46.4v2a.82.82,0,0,0,.9.8c.6,0,.9-.3.9-.8v-2c0-.8-.3-1.2-.8-1.2a.6.6,0,0,0-.4.1.35.35,0,0,0-.2.1c-.1.1-.1.2-.2.3a.76.76,0,0,0-.1.4" transform="translate(-2 -1.6)"/><path class="cls-6" d="M51,48.1v.4a.82.82,0,0,0,.9.8c.6,0,.9-.3.9-.8v-2c0-.8-.3-1.2-.8-1.2s-.9.5-.9,1.2" transform="translate(-2 -1.6)"/><path class="cls-6" d="M57.1,46.4v2a.82.82,0,0,0,.9.8c.6,0,.9-.3.9-.8v-2c0-.8-.3-1.2-.8-1.2a.6.6,0,0,0-.4.1.35.35,0,0,0-.2.1c-.1.1-.1.2-.2.3a.76.76,0,0,0-.1.4" transform="translate(-2 -1.6)"/><rect class="cls-6" x="42.3" y="61.7" width="1.9" height="2.5"/><rect class="cls-6" x="42.3" y="64.7" width="1.9" height="0.8"/><rect class="cls-6" x="55.3" y="61.7" width="1.9" height="2.5"/><rect class="cls-6" x="55.3" y="64.7" width="1.9" height="0.8"/></g>
  </symbol>

  <symbol id="villanova-svg" height="223.3" viewBox="0 0 249.99998 223.30072" width="250">
    <g transform="matrix(1.25 0 0 -1.25 -1279.2 608.55)"><g transform="translate(.32246 -.64491)"><path d="m1220 486.21-84.078-0.0342 0.01-19.007 2.7526-1.0052c1.3535-0.49065 2.3109-1.6985 2.7526-2.6627 0.1742-0.37908 0.2573-0.81736 0.2607-1.3342 0-0.77069-0.1969-1.6826-0.5806-2.7082 0 0 0.1719 0.12181 0.2084 0.14572-0.5601-1.0963-1.2944-3.0224-2.6388-6.597l-15.455-41.064c-3.5461 9.4008-17.921 47.499-17.921 47.499-0.3859 1.0268-0.5828 1.9398-0.5828 2.7162 0 0.51114 0.089 0.95625 0.2572 1.3251 0.4451 0.96763 1.4003 2.1766 2.747 2.665l2.7526 1.0029-0.01 19.019-86.472-0.0342 0.01-18.814 2.311-1.1657c0.1821-0.0979 5.2138-2.8642 8.1816-11.567 2.147-6.3078 33.902-90.523 43.584-116.19 0 0.007 0.2357-0.62839 0.2357-0.62839 2.6615-7.0523 1.8852-7.4178 0.3404-8.1543-0.01-0.005-2.3872-1.1452-2.3872-1.1452l0.01-18.411 93.957 0.0364-0.01 18.329-2.2768 1.168c-0.6921 0.35176-1.3569 0.69328-1.3569 2.1368 0 1.1452 0.4178 2.9826 1.5789 6.0699l1.4287 3.7931c26.243 69.739 40.874 108.83 42.311 113.05 2.9621 8.7167 8.1554 11.571 8.2078 11.6 0 0.001 2.2495 1.1361 2.2495 1.1361s0.024 2.5716 0.024 2.5728v16.252h-2.3975z" fill="#002664"/><path d="m1181.6 478.04-58.48-147.13-57.388 147.13h-7.9084l61.843-159.71 6.5935 0.15596 63.312 159.55h-7.9722z" fill="#3db7e4"/><path d="m1211.4 473.71c-3.0645-2.6433-7.1832-7.4041-9.871-15.317-1.3991-4.0925-17.527-47.184-43.155-115.27l-0.4679-1.242-0.4758-1.2602c-1.6791-4.36-3.5791-9.3075-0.9836-14.096 0.6945-1.2818 1.637-2.3587 2.7948-3.2547v-1.7554l-71.304-0.0273v1.7565c1.1543 0.89477 2.098 1.9717 2.7868 3.2569 2.5955 4.7972 0.6955 9.7321-0.9825 14.089l-0.4838 1.2659-0.4462 1.1805c-25.688 68.096-41.858 111.2-43.257 115.29-2.6969 7.9152-6.8156 12.671-9.8892 15.312v1.267l63.827 0.0239v-1.1589c-2.3508-1.7725-3.7066-3.8136-4.4637-5.4666-1.2021-2.616-2.1743-6.9522 0.019-12.77l21.839-57.897 6.2452-17.757 7.1184 17.76 21.804 57.916c2.1823 5.8172 1.2135 10.157 0 12.765-0.7593 1.6575-2.1094 3.6975-4.4647 5.4677v1.1555l63.818 0.0216v-1.2636zm6.8395 8.3125-78.099-0.0262v-11.895c4.3532-1.9011 7.1001-6.2976 4.911-12.112-8.596-22.868-21.796-57.912-21.796-57.912s-13.221 35.034-21.84 57.893c-2.1925 5.816 0 10.33 4.9088 12.118l-0.01 11.897-78.103-0.0296v-12.049s6.6084-3.2114 10.271-13.967c2.3553-6.9123 41.108-109.61 43.781-116.69 2.1948-5.8183 3.7589-10.774-1.7816-13.408v-11.588l85.589 0.033v11.584c-5.108 2.6058-3.9776 7.5885-1.7884 13.409 2.6672 7.0854 41.343 109.81 43.695 116.72 3.6543 10.756 10.257 13.974 10.257 13.974l-0.01 12.046z" fill="#fff"/></g></g>
  </symbol>

  <symbol id="ursinus-svg" viewBox="0 0 195.98 249.92">
    <defs><style>.cls-1{fill:#fbaf34;}.cls-2{fill:#97012e;}</style></defs><g id="Layer_1-2"><g><path class="cls-1" d="M.07,160.99C.07,108.75,.1,56.51,0,4.26,0,1.18,.17,0,3.91,0c62.72,.16,125.44,.16,188.16,0,3.73,0,3.92,1.17,3.91,4.26-.1,51.58-.07,103.15-.07,154.73-1.55,6.55-1.4,13.39-4.19,19.78-6.59,15.12-17.06,27.16-29.23,37.89-10.88,9.6-23.26,17.05-35.96,23.94-8.33,4.51-17.1,7.91-26.54,9.32h-4c-24.3-4.44-43.79-17.94-62.59-32.9-10.82-8.62-19.24-19.14-26.05-31.06-3.06-5.36-5.44-10.94-6-17.23-.23-2.59-.18-5.29-1.28-7.75Z"/><path class="cls-2" d="M98.06,14.94c26.14,0,52.29,.08,78.43-.09,4.07-.03,5.38,1,5.36,5.24-.16,41.96-.04,83.93-.11,125.9-.04,23.94-11.68,42.15-29.02,57.35-15.31,13.42-32.84,23.17-51.71,30.63-1.89,.75-3.66,1.26-5.76,.42-24.22-9.71-46.48-22.38-63.83-42.39-11.57-13.36-17.33-28.85-17.26-46.66,.17-41.63,.12-83.26-.04-124.9-.02-4.33,1.02-5.66,5.51-5.62,26.14,.22,52.29,.11,78.43,.11Z"/><path class="cls-1" d="M54.19,96.95c0-13.32,.12-26.64-.08-39.96-.05-3.77,.78-5.6,4.93-5.13,4.42,.5,10.16-1.82,13.01,.93,2.89,2.78,.9,8.53,.92,12.96,.1,21.48,.02,42.96,.08,64.44,0,3.15,.2,6.33,.72,9.43,2.19,12.87,11.34,20.53,24.26,20.52,12.99,0,22.05-7.62,24.23-20.55,.52-3.1,.68-6.29,.68-9.44,.05-24.31,.11-48.62-.06-72.93-.03-3.96,.74-5.48,5.11-5.43,13.8,.17,13.8-.02,13.8,13.71,0,22.98,.08,45.96-.03,68.94-.07,14.51-4.35,27.38-16.54,36.27-14.75,10.75-30.91,12.01-47.19,4.3-16.15-7.66-23.53-21.48-23.81-39.1-.2-12.98-.04-25.98-.04-38.96Z"/></g></g>
  </symbol>
</svg>