<svg xmlns="http://www.w3.org/200/svg" display="none">
  <symbol id="hamburger-svg" viewbox="0 0 448 512">
    <!--! Font Awesome Pro 6.2.0 by @fontawesome - https://fontawesome.com License - https://fontawesome.com/license (Commercial License) Copyright 2022 Fonticons, Inc. -->
    <path d="M0 64H448v64H0V64zM0 224H448v64H0V224zM448 384v64H0V384H448z"/></svg>
  </symbol>

  <symbol id="laptop-svg" viewBox="0 0 640 512"><!--! Font Awesome Pro 6.2.0 by @fontawesome - https://fontawesome.com License - https://fontawesome.com/license (Commercial License) Copyright 2022 Fonticons, Inc. -->
    <path d="M96 32H64V64 352h64V96H512V352h64V64 32H544 96zM0 384v48l48 48H592l48-48V384H0z"/>
  </symbol>

  <symbol id="ads-svg" viewBox="0 0 248.31 226.88">
    <defs><style>.cls-1{fill:#bababa;}.cls-2{fill:#7d7d7d;}.cls-3{fill:#292929;}.cls-4{fill:#404040;}.cls-5{fill:#b9b9b9;}</style></defs><g id="Layer_1-2"><g><path class="cls-3" d="M84.5,28.57c2.4-6.3,5.7-12.1,10.6-16.8,19.6-19.1,52-14.3,65.3,9.7,10,18.2,20.6,36,30.9,54,17.2,29.9,34.6,59.8,51.6,89.8,14.3,25.1-1.2,56.8-29.6,61.1-17.4,2.6-33.7-5.4-42.7-21-15.1-26.3-30.3-52.6-45.4-78.8-.3-.6-.7-1.1-1.1-1.6-1.6-1.3-2.3-3.2-3.3-4.9-6.7-11.8-13.6-23.5-20.3-35.2-4.3-7.6-8.8-15.1-13.1-22.7-3.9-6.8-5.7-14.2-5.5-22,.3-4,.8-8,2.6-11.6"/><path class="cls-2" d="M84.5,28.57c-.9,3.6-1.7,7.2-1.9,11-.3,8.4,1.8,16.2,6,23.5,11,18.9,22,37.9,32.9,56.9,1,1.7,1.8,3.4,2.8,5-6,10.4-12,20.7-18.1,31.1-8.4,14.5-16.8,29.1-25.3,43.6-.4,0-.5-.2-.6-.5-.1-.8,.2-1.5,.4-2.3,4.1-15,.7-28.3-9.6-39.7-6.3-6.9-14.3-10.8-23.5-12.1-12-1.7-22.6,1.4-32.1,8.9-1.7,1.3-2.8,3.2-4.8,4.2-.4,0-.6-.2-.7-.5,4.8-8.3,9.5-16.6,14.3-24.9C44.1,98.37,63.9,63.97,83.8,29.67c.2-.4,.5-.7,.7-1.1"/><path class="cls-4" d="M10.4,157.97c1.9-1.7,3.7-3.5,5.7-5.1,24.3-19.2,60.8-5.3,66.1,25.1,1.3,7.3,.6,14.3-1.6,21.3-.1,.6-.2,1.1-.4,1.7-.9,1.6-1.7,3.3-2.7,4.9-8.9,14.7-22,22-39.2,20.9-19.7-1.4-35.2-16.2-37.9-35.8-1.3-9.5,.6-18.4,5.5-26.6,1-1.8,2.2-3.4,3.3-5.2,.5-.4,.3-1.2,1.2-1.2"/><path class="cls-1" d="M10.4,157.97c-.4,.4-.4,1.1-1.1,1.2-.1-.7,.3-1.1,.7-1.6l.4,.4"/><path class="cls-5" d="M80.2,200.97c-.4-.7,0-1.2,.4-1.7,.1,.1,.3,.3,.4,.4l-.8,1.3"/></g></g>
  </symbol>

  <symbol id="instagram-svg" viewBox="0 0 448 512"><!--! Font Awesome Pro 6.2.0 by @fontawesome - https://fontawesome.com License - https://fontawesome.com/license (Commercial License) Copyright 2022 Fonticons, Inc. -->
    <path d="M224.1 141c-63.6 0-114.9 51.3-114.9 114.9s51.3 114.9 114.9 114.9S339 319.5 339 255.9 287.7 141 224.1 141zm0 189.6c-41.1 0-74.7-33.5-74.7-74.7s33.5-74.7 74.7-74.7 74.7 33.5 74.7 74.7-33.6 74.7-74.7 74.7zm146.4-194.3c0 14.9-12 26.8-26.8 26.8-14.9 0-26.8-12-26.8-26.8s12-26.8 26.8-26.8 26.8 12 26.8 26.8zm76.1 27.2c-1.7-35.9-9.9-67.7-36.2-93.9-26.2-26.2-58-34.4-93.9-36.2-37-2.1-147.9-2.1-184.9 0-35.8 1.7-67.6 9.9-93.9 36.1s-34.4 58-36.2 93.9c-2.1 37-2.1 147.9 0 184.9 1.7 35.9 9.9 67.7 36.2 93.9s58 34.4 93.9 36.2c37 2.1 147.9 2.1 184.9 0 35.9-1.7 67.7-9.9 93.9-36.2 26.2-26.2 34.4-58 36.2-93.9 2.1-37 2.1-147.8 0-184.8zM398.8 388c-7.8 19.6-22.9 34.7-42.6 42.6-29.5 11.7-99.5 9-132.1 9s-102.7 2.6-132.1-9c-19.6-7.8-34.7-22.9-42.6-42.6-11.7-29.5-9-99.5-9-132.1s-2.6-102.7 9-132.1c7.8-19.6 22.9-34.7 42.6-42.6 29.5-11.7 99.5-9 132.1-9s102.7-2.6 132.1 9c19.6 7.8 34.7 22.9 42.6 42.6 11.7 29.5 9 99.5 9 132.1s2.7 102.7-9 132.1z"/>
  </symbol>

  <symbol id="megaphone-svg" viewBox="0 0 576 512"><!--! Font Awesome Pro 6.2.0 by @fontawesome - https://fontawesome.com License - https://fontawesome.com/license (Commercial License) Copyright 2022 Fonticons, Inc. -->
    <path d="M576 32V480H512V32h64zM64 190.3L480 64V448L348.9 408.2C338.2 449.5 300.7 480 256 480c-53 0-96-43-96-96c0-11 1.9-21.7 5.3-31.5L64 321.7V352H0V320 192 160H64v30.3zm238.9 204l-91.6-27.8c-2.1 5.4-3.3 11.4-3.3 17.6c0 26.5 21.5 48 48 48c23 0 42.2-16.2 46.9-37.8z"/>
  </symbol>

  <symbol id="people-svg" viewBox="0 0 640 512"><!--! Font Awesome Pro 6.2.0 by @fontawesome - https://fontawesome.com License - https://fontawesome.com/license (Commercial License) Copyright 2022 Fonticons, Inc. -->
    <path d="M160 96c26.5 0 48-21.5 48-48s-21.5-48-48-48s-48 21.5-48 48s21.5 48 48 48zm-51.1 32H91.4L82 142.8 .2 270.8l53.9 34.4 33.8-53V480v32h64V480 352h16V480v32h64V480 252.2l33.8 53 53.9-34.4L238 142.8 228.6 128H211.1 108.9zM480 96c26.5 0 48-21.5 48-48s-21.5-48-48-48s-48 21.5-48 48s21.5 48 48 48zm-51.1 32H411.4l-9.4 14.8-81.7 128 53.9 34.4 42-65.8L368 384h40v96 32h64V480 384h16v96 32h64V480 384h40L543.8 239.4l42 65.8 53.9-34.4L558 142.8 548.6 128H531.1 428.9z"/>
  </symbol>

  <symbol id="teacher-svg" viewBox="0 0 640 512"><!--! Font Awesome Pro 6.2.0 by @fontawesome - https://fontawesome.com License - https://fontawesome.com/license (Commercial License) Copyright 2022 Fonticons, Inc. -->
    <path d="M192 0H160V32 96c23.3 0 45.2 6.2 64 17.1V64H576V352H512V288H384v64H305.4l19.2 64H608h32V384 32 0H608 192zM160 320c53 0 96-43 96-96s-43-96-96-96s-96 43-96 96s43 96 96 96zM320 512L272 352H48L0 512H320z"/>
  </symbol>

  <symbol id="osu-svg" height="150.69" width="152" viewBox="0 0 152 150.69">
    <g transform="matrix(1.25 0 0 -1.25 -.00015450 150.69)"><g style="" transform="translate(.87038 .87038)"><path d="m50.18 4.1113c-16.221 0-33.095 4.4261-46.383 12.137v86.611c13.286 7.7106 30.158 12.135 46.383 12.135l5.2188-0.16406c7.0062-0.39575 14.023-1.5572 20.859-3.457 7.5621-2.1006 14.629-5.0452 20.488-8.5117v-1.9961l-24.52-8.1445c-7.0526 2.3513-14.444 3.5566-22.047 3.5566-9.3087 0-18.181-1.754-26.363-5.209l-0.43359-0.18359v-62.668l0.43359-0.18359c8.1772-3.4526 17.049-5.2012 26.363-5.2012 9.2379 0 18.166 1.7466 26.543 5.1992l0.44141 0.18164v35.924c0.88898 0.29362 17.917 5.905 19.582 6.4551v-54.348c-12.83-7.6036-30.196-12.141-46.565-12.141zm50.906 27.609v18.73c8.5869 0.21818 16.893 1.9365 24.701 5.1582l0.43945 0.18359v7.1562h19.584v-19.129c-12.35-7.309-28.9-11.775-44.72-12.098zm-28.24 3.6504c-7.0921 2.0611-13.836 4.8791-19.59 8.2168v38.361c3.0279 0.99807 73.365 24.203 73.365 24.203v14.949l-0.4414 0.1836c-8.3803 3.4538-17.309 5.2051-26.541 5.2051-9.311 0-18.178-1.7517-26.359-5.209l-0.43359-0.18359v-4.3398c-6.2762 1.4948-12.902 2.4303-19.59 2.6543v13.662c13.287 7.7048 30.161 12.129 46.383 12.129 16.369 0 33.736-4.5335 46.564-12.127v-41.439c-0.96-0.308-73.354-24.18-73.354-24.18v-32.08z" transform="matrix(.8 0 0 -.8 0 119.2)" stroke="#000" stroke-miterlimit="5" stroke-width="7.5934" fill="none"/><path d="m50.301 3.9883c-16.221 0-33.093 4.426-46.381 12.137v86.613c13.286 7.7106 30.156 12.135 46.381 12.135l5.2207-0.16407c7.0062-0.39574 14.023-1.5592 20.859-3.459 7.5621-2.1006 14.629-5.0432 20.488-8.5098v-1.9961l-24.52-8.1465c-7.0526 2.3513-14.446 3.5566-22.049 3.5566-9.3087 0-18.179-1.7521-26.361-5.207l-0.43359-0.18359v-62.668l0.43359-0.18359c8.1772-3.4526 17.047-5.2031 26.361-5.2031 9.2379 0 18.168 1.7486 26.545 5.2012l0.44141 0.18164v35.922c0.88898 0.29362 17.917 5.9069 19.582 6.457v-54.35c-12.83-7.6047-30.198-12.142-46.567-12.142zm50.908 27.609v18.73c8.5869 0.21818 16.891 1.9365 24.699 5.1582l0.44141 0.18359v7.1562h19.582v-19.127c-12.35-7.309-28.9-11.777-44.72-12.1zm-28.243 3.653c-7.0921 2.0611-13.836 4.8791-19.59 8.2168v38.361c3.0279 0.99807 73.367 24.201 73.367 24.201v14.949l-0.44141 0.18359c-8.3803 3.4538-17.309 5.2051-26.541 5.2051-9.311 0-18.178-1.7517-26.359-5.209l-0.43555-0.18359v-4.3398c-6.2762 1.4948-12.902 2.4323-19.59 2.6562v13.66c13.287 7.7048 30.163 12.129 46.385 12.129 16.369 0 33.736-4.5335 46.564-12.127v-41.439c-0.95-0.321-73.353-24.191-73.353-24.191v-32.08z" transform="matrix(.8 0 0 -.8 0 119.2)" fill="#c34500"/></g></g>
  </symbol>

  <symbol id="cantab-svg" viewBox="0 0 100.4 116.5">
    <defs><style>.cls-1{fill:#fff;}.cls-2{fill:#000;}.cls-3{fill:#c8c8c8;}.cls-4{stroke:#fff;}.cls-4,.cls-5{fill:none;stroke-miterlimit:10;stroke-width:.24px;}.cls-5{stroke:#000;}</style></defs><g id="Layer_1-2"><path class="cls-4" d="M95.8,63.6c-.15,4.81-.92,9.59-2.3,14.2-1.21,3.84-3.03,7.45-5.4,10.7-4.3,5.7-9.5,8.5-13,10.4-.3,.2-2.4,1.2-12.2,6.1V63.6h32.9"/><path class="cls-4" d="M37.6,63.6v41.4c-9.9-4.9-11.9-6-12.2-6.1-3.5-1.9-8.7-4.7-13-10.4-2.39-3.24-4.21-6.86-5.4-10.7-1.39-4.61-2.16-9.39-2.3-14.2H37.6"/><path class="cls-5" d="M95.8,4.6H62.8V38.4h33V4.6Z"/><path class="cls-5" d="M37.6,4.6H4.6V38.4H37.6V4.6Z"/><path class="cls-2" d="M50.2,116.5l-1-.5c-1.5-.7-24.7-12.3-26.1-13C15.6,98.9,0,90.4,0,60.6V0H100.4V60.6c0,29.8-15.6,38.3-23.1,42.4-1.4,.8-24.7,12.3-26.1,13l-1,.5Z"/><path class="cls-1" d="M60.4,40.8V2.2h-20.4V40.8H2.2v19.8h0v.6H40v47.7c5.5,2.7,10.2,5.1,10.2,5.1h0l10.2-5.1V61.2h37.8v-20.4H60.4Z"/><rect x="2.2" y="2.2" width="37.8" height="38.6"/><rect x="60.4" y="2.2" width="37.8" height="38.6"/><path d="M40,61.2H2.2c.2,27.7,14.4,35.7,22,39.8l15.8,7.9V61.2Z"/><path d="M60.4,61.2v47.7l15.8-7.9c7.6-4.1,21.8-12.1,22-39.8H60.4Z"/><path class="cls-2" d="M73.4,51.3l.8-.9-1-1.2-1,1.2,.8,.9c0,.5,0,4.6-2.4,6,.63,.12,1.28,.08,1.9-.1,.16,.79,.39,1.56,.7,2.3,.31-.74,.54-1.51,.7-2.3,.63,.12,1.27,.15,1.9,.1-2.4-1.5-2.4-5.6-2.4-6Z"/><path class="cls-2" d="M79.6,44.3l.8-.9-1-1.2-1,1.2,.8,.9c0,.5,0,4.6-2.4,6,.63,.12,1.28,.08,1.9-.1,.16,.79,.39,1.56,.7,2.3,.31-.74,.54-1.51,.7-2.3,.63,.12,1.27,.15,1.9,.1-2.5-1.4-2.4-5.5-2.4-6Z"/><path class="cls-2" d="M85.7,51.3l.8-.9-1-1.2-1,1.2,.8,.9c0,.5,0,4.6-2.4,6,.63,.12,1.28,.08,1.9-.1,.16,.79,.39,1.56,.7,2.3,.31-.74,.54-1.51,.7-2.3,.63,.12,1.27,.15,1.9,.1-2.4-1.5-2.4-5.6-2.4-6Z"/><path class="cls-2" d="M91.9,44.3l.8-.9-1-1.2-1,1.2,.8,.9c0,.5,0,4.6-2.4,6,.63,.12,1.28,.08,1.9-.1,.16,.79,.39,1.56,.7,2.3,.31-.74,.54-1.51,.7-2.3,.63,.12,1.27,.15,1.9,.1-2.5-1.4-2.4-5.5-2.4-6Z"/><path class="cls-2" d="M67.2,44.3l.8-.9-1-1.2-1,1.2,.8,.9c0,.5,0,4.6-2.4,6,.63,.12,1.28,.08,1.9-.1,.16,.79,.39,1.56,.7,2.3,.31-.74,.54-1.51,.7-2.3,.63,.12,1.27,.15,1.9,.1-2.4-1.4-2.4-5.5-2.4-6Z"/><path class="cls-2" d="M15.1,51.3l.8-.9-1-1.2-1,1.2,.8,.9c0,.5,0,4.6-2.4,6,.63,.12,1.28,.08,1.9-.1,.16,.79,.39,1.56,.7,2.3,.31-.74,.54-1.51,.7-2.3,.63,.12,1.27,.15,1.9,.1-2.4-1.5-2.4-5.6-2.4-6Z"/><path class="cls-2" d="M21.3,44.3l.8-.9-1-1.2-1,1.2,.8,.9c0,.5,0,4.6-2.4,6,.63,.12,1.28,.08,1.9-.1,.16,.79,.39,1.56,.7,2.3,.31-.74,.54-1.51,.7-2.3,.63,.12,1.27,.15,1.9,.1-2.5-1.4-2.5-5.5-2.4-6Z"/><path class="cls-2" d="M27.4,51.3l.8-.9-1-1.2-1,1.2,.8,.9c0,.5,0,4.6-2.4,6,.63,.12,1.28,.08,1.9-.1,.16,.79,.39,1.56,.7,2.3,.31-.74,.54-1.51,.7-2.3,.63,.12,1.27,.15,1.9,.1-2.4-1.5-2.4-5.6-2.4-6Z"/><path class="cls-2" d="M33.6,44.3l.8-.9-1-1.2-1,1.2,.8,.9c0,.5,0,4.6-2.4,6,.63,.12,1.28,.08,1.9-.1,.16,.79,.39,1.56,.7,2.3,.31-.74,.54-1.51,.7-2.3,.63,.12,1.27,.15,1.9,.1-2.5-1.4-2.4-5.5-2.4-6Z"/><path class="cls-2" d="M8.9,44.3l.8-.9-1-1.2-1,1.2,.8,.9c0,.5,0,4.6-2.4,6,.63,.12,1.28,.08,1.9-.1,.16,.79,.39,1.56,.7,2.3,.31-.74,.54-1.51,.7-2.3,.63,.12,1.27,.15,1.9,.1-2.4-1.4-2.4-5.5-2.4-6Z"/><path class="cls-2" d="M50.5,66.9l.8-.9-1-1.2-1,1.2,.8,.9c0,.5,0,4.6-2.4,6,.63,.12,1.28,.08,1.9-.1,.16,.79,.39,1.56,.7,2.3,.31-.74,.54-1.51,.7-2.3,.63,.12,1.27,.15,1.9,.1-2.5-1.4-2.5-5.5-2.4-6Z"/><path class="cls-2" d="M50.5,87.9l.8-.9-1-1.2-1,1.2,.8,.9c0,.5,0,4.6-2.4,6,.63,.12,1.28,.08,1.9-.1,.16,.79,.39,1.56,.7,2.3,.31-.74,.54-1.51,.7-2.3,.63,.12,1.27,.15,1.9,.1-2.5-1.5-2.5-5.6-2.4-6Z"/><path class="cls-2" d="M56.2,77.4l.8-.9-1-1.2-1,1.2,.8,.9c0,.5,0,4.6-2.4,6,.63,.12,1.28,.08,1.9-.1,.16,.79,.39,1.56,.7,2.3,.31-.74,.54-1.51,.7-2.3,.63,.12,1.27,.15,1.9,.1-2.5-1.4-2.4-5.5-2.4-6Z"/><path class="cls-2" d="M44.7,77.4l.8-.9-1-1.2-1,1.2,.8,.9c0,.5,0,4.6-2.4,6,.63,.12,1.28,.08,1.9-.1,.16,.79,.39,1.56,.7,2.3,.31-.74,.54-1.51,.7-2.3,.63,.12,1.27,.15,1.9,.1-2.5-1.4-2.4-5.5-2.4-6Z"/><path class="cls-2" d="M56.2,98.3l.8-.9-1-1.2-1,1.2,.8,.9c0,.5,0,4.6-2.4,6,.63,.12,1.28,.08,1.9-.1,.16,.79,.39,1.56,.7,2.3,.31-.74,.54-1.51,.7-2.3,.63,.12,1.27,.15,1.9,.1-2.5-1.4-2.4-5.5-2.4-6Z"/><path class="cls-2" d="M44.7,98.3l.8-.9-1-1.2-1,1.2,.8,.9c0,.5,0,4.6-2.4,6,.63,.12,1.28,.08,1.9-.1,.16,.79,.39,1.56,.7,2.3,.31-.74,.54-1.51,.7-2.3,.63,.12,1.27,.15,1.9,.1-2.5-1.4-2.4-5.5-2.4-6Z"/><path class="cls-2" d="M50.5,19.3l.8-.9-1-1.2-1,1.2,.8,.9c0,.5,0,4.6-2.4,6,.63,.12,1.28,.08,1.9-.1,.16,.79,.39,1.56,.7,2.3,.31-.74,.54-1.51,.7-2.3,.63,.12,1.27,.15,1.9,.1-2.5-1.4-2.5-5.5-2.4-6Z"/><path class="cls-2" d="M56.2,8.9l.8-.9-1-1.2-1,1.2,.8,.9c0,.5,0,4.6-2.4,6,.63,.12,1.28,.08,1.9-.1,.16,.79,.39,1.56,.7,2.3,.31-.74,.54-1.51,.7-2.3,.63,.12,1.27,.15,1.9,.1-2.5-1.5-2.4-5.6-2.4-6Z"/><path class="cls-2" d="M44.7,8.9l.8-.9-1-1.2-1,1.2,.8,.9c0,.5,0,4.6-2.4,6,.63,.12,1.28,.08,1.9-.1,.16,.79,.39,1.56,.7,2.3,.31-.74,.54-1.51,.7-2.3,.63,.12,1.27,.15,1.9,.1-2.5-1.5-2.4-5.6-2.4-6Z"/><path class="cls-2" d="M56.2,29.8l.8-.9-1-1.2-1,1.2,.8,.9c0,.5,0,4.6-2.4,6,.63,.12,1.28,.08,1.9-.1,.16,.79,.39,1.56,.7,2.3,.31-.74,.54-1.51,.7-2.3,.63,.12,1.27,.15,1.9,.1-2.5-1.5-2.4-5.5-2.4-6Z"/><path class="cls-2" d="M44.7,29.8l.8-.9-1-1.2-1,1.2,.8,.9c0,.5,0,4.6-2.4,6,.63,.12,1.28,.08,1.9-.1,.16,.79,.39,1.56,.7,2.3,.31-.74,.54-1.51,.7-2.3,.63,.12,1.27,.15,1.9,.1-2.5-1.5-2.4-5.5-2.4-6Z"/><path class="cls-2" d="M31.8,21.2l.1,.5c.07,.34,.17,.68,.3,1,.4,1.8,.7,2.3,1.6,2.3,.47,0,.9-.28,1.1-.7l.2-.6c0-.1,.2-.2,.3-.2,.3,0,.5,.4,.5,1.2,0,.2,.1,.8,.2,1.6,.08,.46,.11,.93,.1,1.4,.03,.35-.04,.69-.2,1,.11,.66,.18,1.33,.2,2,.06,.66-.08,1.32-.4,1.9,.12,.39,.18,.79,.2,1.2,.01,.37-.02,.74-.1,1.1-.1,.8-.2,1-.2,1.1-.01,.14,.02,.28,.1,.4,.07,.12,.1,.26,.1,.4,0,.1,0,.2-.1,.2l-.6-.3-.7-.4c-.28-.13-.53-.34-.7-.6-.6,.6-.8,.6-2.4,1.1-.25,.06-.48,.16-.7,.3l-.4,.2c-.3,0-.4-.4-.4-1.4,0-.61,.07-1.21,.2-1.8-.35-.16-.72-.26-1.1-.3-.17,0-.34,.04-.5,.1h-.1c-.1,0-.2-.1-.2-.3,.05-.24,.11-.47,.2-.7l.3-.8c.18-.37,.45-.68,.8-.9,.23-.22,.5-.39,.8-.5l1.2-.2c.7-.1,1.1-.5,1.1-1s-.3-.8-1-1l-1.4-.5c-.46-.13-.9-.34-1.3-.6-.8-.5-.9-.5-1.1-.5s-.4,.2-.4,.6c-.04,.51,.33,.95,.84,1,.02,0,.04,0,.06,0,.11,.01,.22-.02,.3-.1,.09-.05,.19-.09,.3-.1,.11,0,.19,.09,.2,.2v.1l-.1,.5c-.21,.69-.55,1.33-1,1.9l-.3,.4c-.26,1-.86,1.89-1.7,2.5-.15,.07-.29,.18-.4,.3-.08,.15-.18,.28-.3,.4-.1,.1-.3,.4-.6,.8-.24,.26-.51,.5-.8,.7-.4,.3-.6,.5-.6,.6l-.3,.5c-.1,.1-.2,.2-.3,.2-.3,0-.5-.3-.7-.8s-.2-.5-.5-.5c-.2,0-.41,.03-.6,.1l-.4,.1h-1.2c-.61,.03-1.21,.14-1.8,.3-.09,.07-.19,.1-.3,.1q-.1,0-.2-.2c-.08-.08-.11-.19-.1-.3,.11-.94,.46-1.83,1-2.6,.22-.4,.53-.74,.9-1-.09-.5-.43-.91-.9-1.1l-.5-.2c-.1,0-.1-.1-.1-.2s.3-.4,.7-.6c.56-.29,1.17-.46,1.8-.5,.6,.03,1.17,.28,1.6,.7,.9,.7,1.1,.8,1.5,.8,.71-.01,1.29-.59,1.3-1.3-.08-.64-.36-1.23-.8-1.7-.69-.7-1.12-1.62-1.2-2.6,.01-.52,.15-1.04,.4-1.5l.3-.5c.08-.08,.11-.19,.1-.3,0-.2-.2-.4-.6-.4-.81,.13-1.59,.4-2.3,.8-.3,.12-.53,.38-.6,.7,.01,.08,.05,.15,.1,.2l.4,.2,.1,.1c-.05,.05-.09,.12-.1,.2l-.6,.8c-.38,.52-.81,.98-1.3,1.4-.13,.07-.23,.17-.3,.3-.09,.17-.19,.34-.3,.5-.36,.56-.84,1.04-1.4,1.4-.2,.2-.4,.3-.4,.4s-.1,.2-.3,.4c-.12,.24-.25,.48-.4,.7-.22,.37-.49,.7-.8,1l-.9,.9c-.44,.6-.74,1.28-.9,2-.2,.7-.4,1.1-.5,1.1s-.1-.1-.3-.2c-.6-.7-1.2-1.2-1.5-1.2-.1,0-.2,.1-.4,.2-.27,.17-.58,.28-.9,.3l-1.2,.2c-.71,.08-1.36,.44-1.8,1-.1,.1-.2,.2-.3,.2s-.2-.2-.2-.4v-.3l.2-.9c.15-.71,.35-1.42,.6-2.1l.5-1c.09-.15,.16-.32,.2-.5-.15-.83-.85-1.46-1.7-1.5-.2,0-.3-.1-.3-.2s.3-.5,.6-.8c.57-.46,1.27-.74,2-.8,.49,.03,.97,.17,1.4,.4l.7,.3c.22,.1,.46,.17,.7,.2,.7,0,1.5-.7,2.4-2.2,.33-.48,.53-1.03,.6-1.6,0-.8-.4-1.3-1-1.3-.53,0-1.03,.22-1.4,.6-.28,.26-.46,.62-.5,1v.5c0,.3-.1,.5-.3,.5s-.7-.4-2-2c-.74-.75-1.17-1.75-1.2-2.8-1.1-1.4-1.4-2-1.4-3v-.7c-.64-.55-1-1.36-1-2.2-.03-.28,.04-.57,.2-.8-.28-.35-.48-.76-.6-1.2l-.2-.7c-.09-.43-.26-.84-.5-1.2-.3-.4-.3-.5-.3-.6,0-.4,.3-.5,1.4-.8-.02-.24-.05-.47-.1-.7,0-.27,.03-.54,.1-.8l.2-1.2c.07-.33,.1-.66,.1-1,0-.34-.07-.68-.2-1-.04-.25-.14-.5-.3-.7l-.2-.4c0-.11,.09-.19,.2-.2,.75,.24,1.44,.65,2,1.2,1.8,1.5,2.2,2.1,2.5,4,0,.2,.03,.41,.1,.6,.81,.48,1.3,1.36,1.3,2.3-.01,.74-.22,1.47-.6,2.1l-.6,1c-.2,.33-.31,.71-.3,1.1,.03,.68,.24,1.33,.6,1.9,.5,.9,.9,1.2,1.4,1.2,.8,0,1.6-1.5,1.6-3.1v-.8c0-.37,.03-.74,.1-1.1,.06-.3,.1-.6,.1-.9v-1.3c-.01-.23-.12-.45-.3-.6l-.7-.8c-.83-.77-1.39-1.79-1.6-2.9-.05-.89,.63-1.65,1.52-1.7,.03,0,.06,0,.08,0,.24,0,.47,.03,.7,.1v-.2c0-1.4,.3-2.5,.7-2.5h.2l.6,.5,.7,.4,.2,.2q0-.4,.4-.9c.15-.19,.28-.39,.4-.6,.15-.13,.26-.3,.3-.5,.1-.1,.1-.2,.2-.3s.2-.2,.3-.2,.2,.1,.3,.5c.1,.2,.1,.3,.7,.8l.4,.4c.1,.1,.1,.3,.3,.6,0,.1,.1,.1,.1,.3,.17-.22,.38-.43,.6-.6l.5-.3c.2-.1,.3-.2,.4-.2l.2,.2c.1,.1,.1,.3,.3,.5,.24,.36,.41,.77,.5,1.2v.7c1.1,.3,1.4,.9,1.4,2-.07,1.03-.53,2-1.3,2.7-.6,.7-.6,.8-.6,1.2,0,2.4,1.7,3.7,4.6,3.8h2.1c1.19,0,2.38,.2,3.5,.6,.77,.32,1.57,.52,2.4,.6,.14,.01,.28-.02,.4-.1,.1-.1,.2-.2,.2-.3,0-.4-.8-.8-3.4-1.5-5.3-1.5-7.5-3.6-7.5-7.1,.05-2.71,2.28-4.86,4.99-4.81,.07,0,.14,0,.21,0,1.09,.01,2.16,.18,3.2,.5l1.3,.5c.22,.08,.46,.12,.7,.1,.4,0,.7-.4,.7-1.1,0-.4,.1-.5,.4-.5s.9,.5,1.5,1.2c.47,.61,.78,1.34,.9,2.1,0,.73-.43,1.4-1.1,1.7-.56,1.01-1.64,1.63-2.8,1.6-.9,0-2.2-.5-4.4-1.8-.8-.4-1.1-.6-1.5-.6-.6,0-.9,.3-.9,.8s.4,.8,1.3,1.1c.87,.21,1.67,.66,2.3,1.3,1.22,.17,2.38,.61,3.4,1.3,2.8,.9,4.6,2.8,4.6,5,.13,1.91-1.32,3.57-3.23,3.69-.09,0-.18,0-.27,0-.49,.37-1.14,.45-1.7,.2"/><path class="cls-3" d="M35,35.3c-.07-.26-.11-.53-.1-.8v-.3l.1-.5v-.4c0-.34-.07-.68-.2-1l-.4-.5-.3-.6c0-.1-.1-.2-.1-.3,0-.11,.09-.19,.2-.2q.1,0,.4,.2c.08,.08,.19,.11,.3,.1,.2,0,.3-.3,.3-.9,.04-.38-.03-.76-.2-1.1l-.5-.5-.4-.4c-.1-.1-.2-.2-.2-.3s.1-.2,.3-.2c.24,.03,.48,.1,.7,.2h.1c.1,0,.2-.1,.2-.3v-.1l-.1-.7-.2-.7c-.1-.2-.1-.3-.2-.3h-.1l-.8,.2h-.1c-1.17-.07-2.18-.87-2.5-2l-.6-2.1c-.32-.78-.84-1.47-1.5-2-.18-.14-.38-.24-.6-.3l-.6-.1c-.11,0-.19-.09-.2-.2,0-.1,.1-.2,.4-.2l1.1,.1c.58,.07,1.15,.2,1.7,.4,.71,.27,1.45,.44,2.2,.5,1.26,.17,2.41-.72,2.58-1.98,.01-.11,.02-.21,.02-.32-.03-1.07-.5-2.09-1.3-2.8-.31-.31-.69-.55-1.1-.7-.11,0-.19,.09-.2,.2v.4h0c0,.2-.1,.3-.2,.3s-.3-.2-.6-.6c-.39-1.12-1.41-1.91-2.6-2-.2,0-.3,.1-.3,.2s.1,.2,.2,.5l.3,.6c.05,.09,.09,.19,.1,.3l-.1,.1c-.2-.02-.39-.13-.5-.3l-.5-.5-.4-.6c-.31-.49-.77-.87-1.3-1.1-.26-.16-.52-.29-.8-.4-.12-.08-.26-.11-.4-.1-.11,0-.19,.09-.2,.2-.01,.11,.02,.22,.1,.3,.2,.4,.3,.5,.3,.6,0,.11-.09,.19-.2,.2-.2,0-.8-.5-1.2-1.2-.38-.53-.58-1.15-.6-1.8-.05-1.27,.94-2.35,2.22-2.4,.06,0,.12,0,.18,0,.86,.05,1.68,.33,2.4,.8l1.5,.9c.55,.33,1.16,.54,1.8,.6,.31-.03,.61-.1,.9-.2,.15-.03,.29-.09,.4-.2,.1-.1,.2-.1,.2-.2s0-.1-.1-.1l-.2-.1-.7-.1c-.32-.04-.62-.14-.9-.3l-1.6-.8c-.5-.3-.9-.5-1.1-.6s-.4-.2-.4-.3,0-.1,.1-.1c.11-.01,.22,.02,.3,.1,.36,.24,.77,.38,1.2,.4l1.4,.5c.68,.2,1.39,.34,2.1,.4,.61,0,1.09-.49,1.1-1.1-.04-.52-.25-1.01-.6-1.4l-.2-.2c-.1,0-.2,.1-.2,.3v.3l.1,.4c.02,.36-.25,.66-.6,.7-.17,0-.34-.03-.5-.1l-2.1-.7c-1.08-.44-2.23-.68-3.4-.7-2.26-.16-4.23,1.54-4.39,3.81,0,.06,0,.13,0,.19,0,2.5,1.8,4.2,6.2,5.7s5,1.9,5,3c-.1,.69-.7,1.2-1.4,1.2-.27,.02-.54-.01-.8-.1-.1,0-.9-.2-2.2-.5-1.31-.33-2.65-.49-4-.5-3.1,0-4.9,.6-6.4,2-.4,.4-.5,.4-.9,.4h-.7c-.39,0-.74,.24-.9,.6-.2,.28-.37,.58-.5,.9-.1,.12-.24,.2-.4,.2-.3,0-.5-.2-.8-1-.17-.37-.41-.71-.7-1l-.6-.6-.2-.2c-.01-.11,.02-.22,.1-.3,.19-.25,.36-.52,.5-.8q.1-.4,.3-.4c.2,0,.3,.2,.3,.9,.04,.32,.14,.62,.3,.9l.4,.8c0,.1,.2,.2,.3,.2,.3,0,.8-.8,.9-1.6s.2-.9,.3-.9,.1,0,.1,.1l.3,.6c.1,.19,.24,.36,.4,.5,.2,.1,.3,.2,.4,.2h0c.3,0,.3-.2,.4-.8v-.3l-.1-.5v-.3c0-.2,.1-.3,.2-.3s.2,0,.2,.1l.3,.3c.15,.18,.37,.29,.6,.3,.3,0,.4-.1,.4-.3s-.1-.3-.3-.7l-.2-.4c-.3-.5-.5-.7-.7-.7h-.3l-.4,.2c-.1,0-.2,.1-.3,.1-.06,0-.1-.04-.1-.1h0c.08-.46,.25-.9,.5-1.3,.35-.79,.52-1.64,.5-2.5,.1-1.7,.3-2.8,.6-2.8s.2,.1,.2,.5v.7c0,.17,.03,.34,.1,.5,.3,0,.6-.4,.9-1.1,.1-.22,.17-.46,.2-.7v-.1l-.6-1.2-.6-.2c-.08-.01-.15-.05-.2-.1v-.8l-.1-.5-.1-.3-.2-.4c-.5,.23-.95,.57-1.3,1-.3,.3-.4,.5-.5,.5-.11,0-.19-.09-.2-.2,0-.17,.03-.34,.1-.5v-.2c-.02-.75-.44-1.44-1.1-1.8l-.2,.3-.2,.3-.4,.5c-.12,.19-.22,.39-.3,.6,0,.1-.1,.3-.1,.4v.2q0,.3-.1,.3h-.1l-.2-.3-.4-.4-.5-.4-.3-.2c-.08,.08-.11,.19-.1,.3-.09,.15-.16,.32-.2,.5v1.1c0,.3-.1,.4-.2,.4s-.2-.1-.4-.2c-.15-.09-.33-.13-.5-.1-.5,0-.8,.3-.8,.9,0,.6,.17,1.19,.5,1.7l.4,.5c.1,.1,.3,.3,.3,.2l.1-.7-.1-.5v-.2c0-.2,.1-.3,.2-.3s.3,.2,.4,.7l.3,1.2,.3,1.5c.1,.44,.24,.88,.4,1.3,.3,.6,.4,1,.5,1.1q.4,.5,.4,.6c0,.06-.04,.1-.1,.1h0c-.11,.01-.22-.02-.3-.1-.1-.1-.2-.1-.4-.1h-.3c-.5,0-.6,.4-.6,2.6,.01,1.32,.22,2.64,.6,3.9l.7,1.7c.11,.25,.18,.52,.2,.8,0,2.3-3.1,6-6.5,7.7-1.12,.35-1.86,1.42-1.8,2.6v.4c.31-.25,.7-.39,1.1-.4,1-.2,1.1-.4,1.3-.8l.1-.4c0-.2,.1-.2,.9-.6,.2-.08,.38-.22,.5-.4,.2-.3,.3-.4,.4-.4s.1,0,.1,.1v.1l-.3,.9v.2c.03,.7,.46,1.32,1.1,1.6,.03-.46,.16-.91,.4-1.3l.6-.9c.24-.43,.34-.91,.3-1.4,.02-.34-.01-.67-.1-1v-.3c0-.2,.1-.3,.2-.3s.2,0,.2,.1l.1,.6c0,.1,.2,.2,.3,.2,.3,0,.7-.4,1.1-1.1,.15-.24,.22-.52,.2-.8v-.4l-.1-.5v-.1c0-.2,.1-.4,.3-.4s.1,0,.1,.1l.2,.7c.1,.2,.2,.4,.4,.4s.6-.4,.8-.8c.2-.4,.31-.85,.3-1.3,0-.7,.1-.9,.3-.9s.1,0,.2,.1l.1,.4c0,.2,.1,.3,.2,.3,.3-.2,.55-.47,.7-.8,.08-.08,.11-.19,.1-.3-.03-.17-.14-.32-.3-.4-.3-.3-.4-.3-.4-.7,.01-.4,.15-.79,.4-1.1,.17-.25,.31-.51,.4-.8,.4-.8,.5-1,.7-1s.2,.1,.2,.3c.01,.11-.02,.22-.1,.3-.07,.12-.1,.26-.1,.4,0,.11,.09,.19,.2,.2,.21-.05,.41-.12,.6-.2,.28-.17,.59-.3,.9-.4l1.1-.4c.39-.13,.81-.13,1.2,0,.23,.06,.46,.1,.7,.1,.26,.02,.48-.18,.5-.44,0-.02,0-.04,0-.06-.08-.37-.25-.71-.5-1-.1-.1-.2-.2-.2-.3v-.1c0-.1,.1-.1,.2-.1s.7,.5,1.2,1.3c2.8,4.3,3.7,5.4,5.6,6s2.4,1,2.4,2.1c-.1,.85-.44,1.65-1,2.3-1.4,2-1.7,2.7-1.7,4v.2c.2-.1,.3-.1,.4-.2,.3-.1,.4-.2,.5-.2l.8-.2c.2,0,.5-.4,.5-.7v-.1l-.1-.7v-.1c.01-.26,.12-.51,.3-.7,.1,0,.1-.1,.2-.1s.2,.1,.3,.2l.5,1.1c.1,.4,.3,.7,1,1"/><path class="cls-3" d="M9.2,12c-.2,0-.4,.2-.4,.6l-.1,.6c-.06,.26-.1,.53-.1,.8,0,.5,.1,.8,.3,.8s.5-.4,.7-.8c.07-.23,.11-.46,.1-.7,0-.2-.1-.5-.1-.7-.1-.4-.3-.6-.4-.6"/><path class="cls-3" d="M6.5,7.3l.4,.4c.84,1.04,1.23,2.37,1.1,3.7,0,.57-.03,1.14-.1,1.7,0,.5-.1,1-.1,1.3,0,4,1.3,7,3,7,.5,0,.9-.3,1.4-1,.1-.1,.2-.2,.3-.2s.2,.1,.2,.3l.1,.7,.1,.6,.1,.7,.1,.6v.1c0,.2-.1,.3-.2,.3l-.6,.1c-.33,.05-.64,.19-.9,.4-.5,.3-.8,.5-.8,.6l-.4,.7c0,.11-.09,.19-.2,.2-.2,0-.5-.3-.8-.9-.21-.31-.38-.65-.5-1,0-.1,.1-.1,.3-.1h1.1c.11,0,.19-.09,.2-.2-.01-.08-.05-.15-.1-.2l-1.4-.6c-.46-.26-.84-.64-1.1-1.1-.27-.43-.47-.91-.6-1.4-.02-.15,.09-.28,.24-.3,.02,0,.04,0,.06,0q.1,0,.2,.1c.12,.08,.26,.11,.4,.1,.11,0,.19-.09,.2-.2,0-.1-.1-.2-.3-.3-.99-.58-1.68-1.57-1.9-2.7,0-.2,.1-.4,.2-.4h.2l.4,.1h0c.2,0,.3-.1,.3-.2s-.1-.2-.3-.3c-.16-.11-.33-.21-.5-.3-.18-.12-.33-.29-.4-.5-.19-.32-.36-.66-.5-1l-.4-.9c-.11-.16-.21-.33-.3-.5-.08-.09-.15-.19-.2-.3,.3-.19,.65-.29,1-.3,.4,0,.7,.3,1,1.1,.2,.5,.4,.8,.5,.8s.1-.1,.1-.4c.01-.34-.02-.67-.1-1-.07-.23-.11-.46-.1-.7l-.1-.4-.4-.2c-.1,0-.2-.2-.3-.3-.17-.2-.27-.44-.3-.7,0-.2,.03-.41,.1-.6,.21-.68,.35-1.39,.4-2.1v-.3h.2Z"/><path class="cls-3" d="M10.3,30.5c-.3-.04-.61-.11-.9-.2-.22-.06-.42-.16-.6-.3-.38-.17-.79-.27-1.2-.3-.48,.01-.94,.19-1.3,.5l.3,.2,.6,.4,.6,.5c.2,.1,.3,.2,.5,.2,.78-.03,1.51-.39,2-1"/><path class="cls-3" d="M22.7,36.3c.14-.31,.35-.58,.6-.8,.9-.8,1.3-1.3,1.3-1.8v-.7c0-.4,.1-.5,.3-.5s.2,0,.2,.1l.2,.4c0,.1,.1,.1,.3,.1s.3-.1,.5-.4l.3-.4c.15-.16,.23-.38,.2-.6,0-.14-.03-.28-.1-.4,0-.1-.1-.2-.2-.5-.07-.16-.11-.33-.1-.5-.02-.15,.09-.28,.24-.3,.02,0,.04,0,.06,0,.1,0,.2,0,.2,.1l.3,.3q.1,.1,.2,.1c.16,0,.29-.14,.3-.3l.3-.5c.08-.08,.11-.19,.1-.3,0-.1-.1-.2-.3-.3l-.4-.2c-.66-.49-1.03-1.28-1-2.1-.01-.11,.02-.22,.1-.3l.2-.5c.08-.15,.12-.33,.1-.5,0-.35-.11-.7-.3-1-.3-.4-.4-.6-.4-.7-.2-.5-.3-.6-.4-.6h-.2l-.2,.1-.4,.2-.4,.5-.4,.2c-.3,.1-.5,.7-.5,1.2,0,.8,.1,1.1,1.2,3,.36,.54,.6,1.16,.7,1.8,0,1.3-1.2,2.2-3.5,2.8l-1.5,.4c-1.08,.28-1.87,1.19-2,2.3,.43-.24,.91-.34,1.4-.3h.6c.33,.06,.65-.1,.8-.4,.27-.4,.65-.72,1.1-.9l.5-.2,.4-.2h.1c.1,0,.2,0,.2,.1-.04,.2-.15,.37-.3,.5-.33,.31-.51,.75-.5,1.2-.3,.3-.2,.4,.1,.8"/><path class="cls-3" d="M18.6,31.3c.38,.25,.72,.55,1,.9,.3,.4,.4,.5,.7,.5,.17,0,.34-.03,.5-.1l.3-.1c.5-.1,.7-.2,.7-.3s-.1-.2-.2-.3l-.4-.3-.4-.3c-.31-.25-.7-.39-1.1-.4-.39,.04-.77,.18-1.1,.4"/><path class="cls-3" d="M29,33.1h.9c.7,0,1.3-.51,1.4-1.2,0-.2-.2-.3-.6-.3-.8-.2-1.3,.3-1.7,1.5"/><path class="cls-2" d="M17.1,10.9c0,.3,.2,.5,.3,.5s.3-.4,.6-.9c.43-.56,.74-1.21,.9-1.9,0-.11-.09-.19-.2-.2h0l-.4,.3c-.35,.23-.72,.43-1.1,.6-.4,.1-.5,.3-.5,.5v.3l.2,.5,.2,.3Z"/><path class="cls-2" d="M15.1,9.2l.5,.3c.1,.1,.2,.2,.2,.3v.2c-.05,.23-.05,.47,0,.7,.03,.3-.19,.57-.49,.6-.03,0-.07,0-.11,0-.1,0-.1-.1-.3-.4l-.7-.8c-.28-.42-.45-.9-.5-1.4v-.1c0-.2,.1-.2,.2-.2s.2,.1,.4,.2l.8,.6Z"/><path class="cls-2" d="M16.4,12.6h-.6c-.12-.09-.25-.16-.4-.2-.15-.09-.33-.13-.5-.1-.25-.02-.47,.15-.5,.4,.04,.49,.18,.96,.4,1.4l.4,1c.4,.9,.7,1.3,1.2,1.3s.5-.4,.8-1.1c.6-1.6,1-1.8,1-2.4,0-.4-.1-.5-.4-.5l-.3-.1-.5,.3h-.6Z"/><path class="cls-3" d="M16.3,13.5h-.4q-.1,0-.2,.1l-.1,.2,.2,.8,.1,.7c.1,.4,.2,.5,.5,.5s.5-.2,.5-.6l.1-.7c-.02-.24,.02-.48,.1-.7q0-.1-.1-.2c-.05-.05-.12-.09-.2-.1,0,0-.5,0-.5,0Z"/><path d="M91.6,21.2l.1,.5c.07,.34,.17,.68,.3,1,.4,1.8,.7,2.3,1.6,2.3,.47,0,.9-.28,1.1-.7l.2-.6c0-.1,.2-.2,.3-.2,.3,0,.5,.4,.6,1.2,0,.3,.1,.8,.2,1.6,.08,.5,.12,1,.1,1.5,.02,.31-.05,.63-.2,.9l.1,.4c.07,.4,.11,.8,.1,1.2,.11,.79-.03,1.59-.4,2.3,.1,.36,.16,.73,.2,1.1,0,.37-.03,.74-.1,1.1l-.1,1v.6c.07,.12,.1,.26,.1,.4-.01,.08-.05,.15-.1,.2l-.6-.3-.7-.4c-.28-.13-.53-.34-.7-.6-.38,.4-.87,.67-1.4,.8-1.1,.3-1.5,.4-1.7,.6l-.4,.2c-.2,0-.4-.5-.4-1.2-.02-.67,.05-1.34,.2-2-.38-.16-.79-.26-1.2-.3-.17,0-.34,.04-.5,.1h-.1c-.1,0-.1-.1-.1-.3,.07-.53,.24-1.04,.5-1.5,.34-.65,.91-1.14,1.6-1.4l1.2-.2c.7-.1,1.1-.5,1.1-1s-.3-.8-1-1l-1.3-.5c-.5-.2-.9-.4-1.3-.6s-.6-.3-.7-.4c-.08-.08-.19-.11-.3-.1-.26-.02-.48,.18-.5,.44,0,.02,0,.04,0,.06,0,.52,.39,.95,.9,1,.11,.01,.22-.02,.3-.1s.19-.11,.3-.1c.16,0,.29,.14,.3,.3-.06,.71-.31,1.4-.7,2l-.4,.5-.3,.4c-.24,1.02-.84,1.91-1.7,2.5-.15,.07-.29,.18-.4,.3-.08,.15-.18,.28-.3,.4-.1,.1-.3,.4-.6,.8-.24,.26-.51,.5-.8,.7-.4,.3-.6,.5-.6,.6l-.3,.5c-.1,.1-.1,.2-.3,.2s-.5-.3-.7-.8-.2-.5-.5-.5c-.2,0-.41,.03-.6,.1l-.4,.1h-1.1c-.61-.02-1.22,.09-1.8,.3-.09,.07-.19,.1-.3,.1-.2,0-.2-.2-.2-.5,.18-1.37,.81-2.63,1.8-3.6-.2-.6-.5-1-.9-1.1-.21-.05-.41-.11-.6-.2-.1,0-.1-.1-.1-.2s.2-.4,.7-.6c.52-.3,1.1-.47,1.7-.5,.63,0,1.24,.26,1.7,.7,.9,.7,1.1,.8,1.5,.8,.71-.01,1.29-.59,1.3-1.3-.08-.64-.36-1.23-.8-1.7-.73-.71-1.16-1.68-1.2-2.7,0-.7,.25-1.37,.7-1.9,.07-.09,.1-.19,.1-.3,0-.2-.3-.3-.6-.3-.46,.02-.91,.16-1.3,.4-1,.4-1.5,.9-1.5,1.1s.1,.2,.2,.3l.3,.2,.1,.1-.1,.2c-.24,.24-.44,.51-.6,.8-.38,.51-.82,.98-1.3,1.4-.2,.1-.3,.2-.3,.3l-.3,.5c-.33,.58-.82,1.07-1.4,1.4-.2,.2-.4,.3-.4,.4-.12,.11-.23,.25-.3,.4-.32,.62-.72,1.19-1.2,1.7l-.9,.9c-.39,.62-.7,1.29-.9,2-.3,.8-.4,1.1-.6,1.1s-.1-.1-.2-.2c-.6-.7-1.2-1.2-1.5-1.2-.1,0-.2,.1-.4,.2-.27,.17-.58,.28-.9,.3l-1.2,.2c-.72,.03-1.39,.4-1.8,1-.1,.1-.2,.2-.3,.2s-.2-.2-.2-.4v-.3c.09-.29,.15-.6,.2-.9,.13-.72,.33-1.42,.6-2.1l.6-1c.09-.15,.16-.32,.2-.5,0-.7-.7-1.3-1.7-1.5-.2,0-.3-.1-.3-.2s.3-.4,.6-.7c.95-.89,2.37-1.05,3.5-.4l.7,.3c.22,.1,.46,.17,.7,.2,.7,0,1.5-.7,2.4-2.2,.35-.5,.55-1.09,.6-1.7,0-.8-.4-1.3-1-1.3-.53,0-1.03,.22-1.4,.6-.26,.27-.44,.62-.5,1v.5c0,.3-.1,.4-.3,.4s-.5-.2-1.1-.9c-.2-.3-.5-.6-.9-1.1-.82-.69-1.27-1.73-1.2-2.8-1.1-1.4-1.4-2.2-1.4-3v-.7c-.63-.55-.96-1.37-.9-2.2-.03-.31,.04-.63,.2-.9-.28-.35-.48-.76-.6-1.2l-.2-.7c-.11-.42-.27-.83-.5-1.2-.3-.4-.3-.5-.3-.6,0-.3,.3-.5,1.1-.8l.3-.1c-.02-.24-.05-.47-.1-.7,0-.27,.03-.54,.1-.8l.2-1.2c.07-.36,.11-.73,.1-1.1,.01-.34-.05-.69-.2-1-.06-.25-.16-.48-.3-.7-.1-.2-.2-.3-.2-.4s.1-.2,.3-.2c.11-.01,.22,.02,.3,.1,1.18,.63,2.23,1.48,3.1,2.5,.78,.91,1.18,2.1,1.1,3.3,.85,.49,1.35,1.42,1.3,2.4-.03,.68-.24,1.33-.6,1.9-.24,.31-.44,.64-.6,1-.2,.33-.31,.71-.3,1.1,.04,.67,.25,1.33,.6,1.9,.5,.8,.9,1.2,1.4,1.2,.8,0,1.6-1.5,1.6-3.1v-1.2l.1-.8,.1-.9,.1-.8v-.4c0-.3-.1-.4-1.1-1.5-.92-.79-1.49-1.9-1.6-3.1-.01-.87,.69-1.59,1.56-1.6,.01,0,.03,0,.04,0,.24,0,.47,.03,.7,.1v-1.1l.2-.8c.2-.7,.2-.8,.5-.8h.2l.6,.5,.7,.4,.2,.2c0-.4,.1-.5,.4-.9,.17-.18,.3-.38,.4-.6l.3-.5,.2-.3c.1-.2,.2-.2,.3-.2s.1,.1,.2,.5c.03,.17,.14,.32,.3,.4l.4,.4c.37,.35,.61,.8,.7,1.3l.6-.6,.5-.3c.11-.05,.21-.12,.3-.2,.05,.05,.09,.12,.1,.2,.1,.2,.2,.3,.3,.5,.4,.7,.4,.8,.4,1.2v.7c.93,.17,1.56,1.06,1.4,2-.05,1.02-.48,1.98-1.2,2.7-.5,.7-.6,.9-.6,1.4,0,2.3,1.7,3.6,4.6,3.7h2.1c1.19,0,2.38,.2,3.5,.6,.77,.32,1.57,.52,2.4,.6,.3,0,.6-.2,.6-.4,0-.5-.8-.8-3.4-1.6-5.3-1.5-7.5-3.6-7.5-7.1,.11-2.76,2.43-4.91,5.19-4.8,0,0,0,0,0,0,1.09,.01,2.16,.18,3.2,.5l1.3,.5c.22,.08,.46,.12,.7,.1,.5,0,.6-.3,.7-1.1,0-.4,.1-.5,.4-.5,.62,.21,1.15,.64,1.5,1.2,.45,.62,.73,1.34,.8,2.1-.03,.7-.46,1.32-1.1,1.6-.56,1.01-1.64,1.63-2.8,1.6-1.59-.24-3.1-.86-4.4-1.8-.43-.35-.95-.56-1.5-.6-.6,0-.9,.3-.9,.8s.3,.8,1.3,1.1c1.5,.5,1.8,.7,2.3,1.3,1.22,.17,2.38,.61,3.4,1.3,2.9,.9,4.6,2.7,4.6,5.1,.13,1.85-1.26,3.46-3.11,3.59-.1,0-.19,0-.29,0-.9,.9-1.2,.9-2,.7"/><path class="cls-3" d="M94.8,35.3c-.07-.19-.11-.4-.1-.6v-.4c.07-.4,.11-.8,.1-1.2-.02-.21-.09-.42-.2-.6l-.4-.5c-.25-.23-.4-.56-.4-.9q0-.2,.2-.2h.1c.09,.08,.19,.15,.3,.2,.08,.08,.19,.11,.3,.1,.2,0,.3-.3,.3-.9,.05-.6-.17-1.18-.6-1.6l-.4-.4c-.08-.08-.11-.19-.1-.3,0-.2,.1-.3,.2-.3,.14,0,.28,.03,.4,.1l.4,.1h.1c.1,0,.2-.1,.2-.3v-.1l-.1-.7c-.1-.7-.2-1-.4-1h-.1l-.8,.2h-.1c-1.16-.1-2.15-.89-2.5-2l-.6-2.1c-.32-.78-.84-1.47-1.5-2-.2-.17-.44-.27-.7-.3l-.6-.1c-.11,0-.19-.09-.2-.2,0-.1,.1-.2,.3-.2,.95,.05,1.89,.21,2.8,.5,.68,.24,1.38,.41,2.1,.5,1.6,0,2.6-.8,2.6-2.2-.03-.74-.24-1.46-.6-2.1-.37-.59-.89-1.07-1.5-1.4-.08-.08-.19-.11-.3-.1-.11,0-.19,.09-.2,.2v.4h0c0,.2-.1,.3-.2,.3s-.4-.2-.6-.6c-.36-1.11-1.34-1.89-2.5-2-.2,0-.3,.1-.3,.2s.1,.2,.2,.4l.3,.6c.08,.08,.11,.19,.1,.3,0,.06-.04,.1-.1,.1-.2-.02-.39-.13-.5-.3l-.5-.5-.4-.6c-.31-.49-.76-.87-1.3-1.1l-.8-.4c-.12-.07-.26-.1-.4-.1q-.1,0-.1,.1c0,.14,.03,.28,.1,.4,.14,.18,.24,.38,.3,.6,0,.11-.09,.19-.2,.2-.2,0-.6-.4-1.2-1.2-.38-.53-.58-1.15-.6-1.8-.02-1.31,1.03-2.38,2.34-2.4,.02,0,.04,0,.06,0,.85,.07,1.68,.34,2.4,.8l1.5,.9c.55,.32,1.17,.52,1.8,.6,.31,0,.62-.06,.9-.2,.16,0,.3-.08,.4-.2,.1,0,.1-.1,.1-.2s-.1-.2-.3-.2c-1.14-.22-2.23-.66-3.2-1.3-.6-.4-.9-.6-1.1-.6s-.4-.2-.4-.3l.1-.1h.2l1.4,.5,1.3,.5c.72,.21,1.45,.35,2.2,.4,.52,.03,.97-.36,1-.88,0-.04,0-.08,0-.12,0-.31-.08-.62-.2-.9-.2-.4-.5-.7-.6-.7s-.2,.1-.2,.3v.6c0,.4-.2,.7-.6,.7-.17,0-.34-.03-.5-.1l-2.1-.7c-1.08-.44-2.23-.68-3.4-.7-2.26-.16-4.23,1.54-4.39,3.81,0,.06,0,.13,0,.19,0,2.6,1.8,4.2,6.3,5.7s4.9,1.9,4.9,3c-.03,.7-.63,1.24-1.33,1.21-.02,0-.05,0-.07,0-.27,.02-.54-.02-.8-.1-.2,0-.9-.2-2.2-.5-1.31-.33-2.65-.49-4-.5-3.2,0-4.7,.5-6.4,2-.23,.32-.62,.47-1,.4h-.7c-.39,0-.74,.24-.9,.6l-.5,.9c-.1,.12-.24,.2-.4,.2-.3,0-.5-.2-.8-1-.18-.35-.38-.68-.6-1l-.7-.6-.2-.2c0-.1,.1-.2,.2-.3s.2-.3,.3-.4,.2-.3,.2-.4v-.3c0-.11,.09-.19,.2-.2,.2,0,.2,.1,.3,.9,.04,.32,.14,.62,.3,.9l.4,.8c0,.1,.2,.2,.3,.2,.3,0,.8-.8,.9-1.6s.2-.9,.3-.9,.2,.1,.5,.6c.1,.19,.24,.36,.4,.5,.2,.1,.3,.2,.4,.2h0c.3,0,.4-.2,.4-.8v-.3l-.1-.5v-.3c0-.2,.1-.3,.2-.3s.2,0,.2,.1l.3,.3c.15,.18,.37,.29,.6,.3,.3,0,.4-.1,.4-.3s0-.2-.3-.7l-.2-.4c-.3-.5-.4-.7-.7-.7h-.3l-.4,.2c-.1,0-.2,.1-.3,.1-.06,0-.1-.04-.1-.1,.08-.46,.25-.9,.5-1.3,.32-.79,.49-1.64,.5-2.5l.2-1.5c.1-.9,.2-1.3,.4-1.3s.1,0,.1,.1l.1,.5v.4c0,.27,.03,.54,.1,.8,.1,0,.3-.2,.5-.4l.3-.6c.1-.26,.17-.53,.2-.8,0-.7-.3-1.1-1.3-1.3-.08-.01-.15-.05-.2-.1v-.8l-.1-.4-.1-.3-.2-.4-.3,.2c-.7,.4-.8,.5-1,.8s-.4,.5-.5,.5c-.08-.01-.15-.05-.2-.1l.1-.5v-.1c-.04-.77-.45-1.48-1.1-1.9l-.2,.3-.2,.3-.4,.5c-.23,.28-.37,.63-.4,1v.2q0,.3-.2,.3h-.1l-.3-.3-.3-.4-.6-.4-.3-.2c-.26,.49-.37,1.05-.3,1.6v.3c0,.3-.1,.5-.2,.5s-.2-.1-.4-.2c-.15-.09-.33-.13-.5-.1-.45,0-.81,.38-.8,.84,0,.02,0,.04,0,.06-.02,.57,.16,1.14,.5,1.6,.3,.4,.6,.8,.7,.8,.07-.23,.1-.46,.1-.7l-.1-.5v-.2c0-.2,.1-.3,.2-.3s.3,.2,.4,.7l.3,1.2,.3,1.5c.1,.44,.24,.88,.4,1.3,.3,.6,.4,1,.5,1.1q.4,.5,.4,.6c0,.06-.04,.1-.1,.1-.11,.01-.22-.02-.3-.1-.1-.1-.2-.1-.4-.1h-.2c-.5,0-.6,.4-.6,2.6,.02,1.35,.22,2.7,.6,4l.7,1.7c.11,.25,.18,.52,.2,.8,0,2.3-3.2,6.1-6.5,7.7-1.3,.6-1.7,1.3-1.8,3,.33-.22,.71-.36,1.1-.4,.9-.3,1.1-.4,1.3-.8l.1-.4c.1-.2,.2-.3,.8-.6,.19-.11,.35-.24,.5-.4,.2-.3,.3-.4,.4-.4s.1,.1,.1,.2v.1l-.4,.9v.2c.03,.7,.46,1.32,1.1,1.6,0-.2,.1-.3,.1-.4,.06-.34,.16-.68,.3-1l.6-.9c.2-.3,.3-.5,.3-1.4v-1.3c0-.2,.1-.3,.2-.3s.2,0,.2,.1l.1,.6c0,.1,.2,.2,.3,.2,.3,0,.7-.4,1.1-1.1,.16-.23,.23-.52,.2-.8,.01-.34-.02-.67-.1-1v-.2c0-.2,.1-.3,.2-.3s.1,0,.2,.1l.2,.7c.1,.2,.2,.4,.4,.4,.5,0,1-1,1.1-2.1,0-.7,.1-.9,.3-.9s.1,0,.2,.1l.1,.4c0,.2,.1,.3,.2,.3s.2-.1,.4-.4c.1-.1,.2-.3,.3-.4,.08-.08,.11-.19,.1-.3q0-.2-.3-.4c-.23-.17-.37-.42-.4-.7,.08-.73,.36-1.42,.8-2,.5-.9,.6-1,.7-1s.2,.1,.2,.3c.01,.11-.02,.22-.1,.3-.07,.12-.1,.26-.1,.4,0,.1,.1,.2,.3,.2,.21-.02,.42-.09,.6-.2,.28-.17,.59-.3,.9-.4,.38-.09,.75-.23,1.1-.4,.22-.09,.46-.12,.7-.1,.21-.02,.41,.02,.6,.1,.23,.06,.46,.1,.7,.1,.26,.02,.48-.18,.5-.44,0-.02,0-.04,0-.06-.04-.21-.1-.41-.2-.6-.09-.14-.19-.28-.3-.4-.1-.1-.2-.2-.2-.3v-.1c0-.1,.1-.1,.2-.1,.3,0,.7,.5,1.2,1.3,2.5,4.1,3.7,5.4,5.6,6s2.4,1,2.4,2.1c-.1,.85-.44,1.65-1,2.3-1.3,1.8-1.7,2.8-1.7,4v.3c.2-.1,.3-.1,.4-.2,.3-.1,.4-.2,.5-.2l.8-.2c.3-.11,.5-.38,.5-.7v-.1l-.1-.7v-.1c0-.4,.2-.7,.4-.7,.11,0,.19,.09,.2,.2l.5,1.1c.6,0,.8,.3,1.5,.6"/><path class="cls-3" d="M68.5,13.3v.8c0,.5,.1,.7,.3,.7s.5-.4,.7-.8c.11-.29,.18-.59,.2-.9,.01-.22-.06-.43-.2-.6-.1-.4-.3-.5-.5-.5s-.4,.4-.5,1.3"/><path class="cls-3" d="M66.3,7.3l.5,.4c.76,.93,1.15,2.1,1.1,3.3v.5l-.1,1.5v1.3c0,4.2,1.2,7,3,7,.59-.11,1.1-.48,1.4-1,.1-.1,.2-.2,.3-.2s.2,.1,.2,.3l.1,.7,.1,.6c0,.3,.1,.5,.1,.7,.07,.19,.1,.4,.1,.6,0,.3-.1,.4-.8,.5-.33,.05-.64,.19-.9,.4-.5,.3-.8,.5-.8,.6l-.4,.7c0,.11-.09,.19-.2,.2-.2,0-.4-.3-.8-.9-.19-.32-.36-.66-.5-1,0-.1,.1-.1,.3-.1h1.1c.11,0,.19-.09,.2-.2,0-.1-.1-.1-.1-.2l-1.4-.6c-.46-.25-.85-.64-1.1-1.1-.32-.41-.52-.89-.6-1.4,0-.2,.1-.4,.3-.4s.1,0,.2,.1c.12,.07,.26,.1,.4,.1q.1,0,.2-.1t.1-.2c0-.1-.1-.2-.3-.3-.99-.58-1.68-1.57-1.9-2.7,0-.2,.1-.4,.2-.4h.2c.17,.02,.34,.06,.5,.1,.2,0,.3-.1,.3-.2s-.1-.2-.3-.3c-.8-.4-1-.6-1.5-1.8-.25-.59-.56-1.16-.9-1.7,.3-.19,.65-.29,1-.3,.4,0,.7,.3,1,1.1,.2,.5,.4,.8,.5,.8s.1-.1,.1-.4c.01-.34-.02-.67-.1-1-.07-.23-.11-.46-.1-.7l-.1-.4-.4-.2c-.34-.26-.53-.67-.5-1.1-.02-.21,.02-.41,.1-.6,0,0,.1-.3,.2-.7,.1-.46,.17-.93,.2-1.4v-.3l-.2,.4Z"/><path class="cls-3" d="M70.2,30.5c-.54-.03-1.05-.2-1.5-.5-.38-.17-.79-.27-1.2-.3-.5,.03-.99,.2-1.4,.5l.3,.2,.6,.4,.6,.5c.2,.1,.3,.2,.5,.2,.81-.02,1.57-.39,2.1-1"/><path class="cls-3" d="M82.5,36.3c.14-.31,.35-.58,.6-.8,.9-.8,1.3-1.3,1.3-1.8v-.7c0-.4,.1-.5,.3-.5s.2,0,.2,.1l.2,.4c0,.1,.1,.1,.3,.1s.4-.2,.8-.8c.13-.17,.2-.38,.2-.6,0-.14-.03-.28-.1-.4,0-.1-.1-.2-.2-.5-.07-.16-.11-.33-.1-.5-.02-.15,.09-.28,.24-.3,.02,0,.04,0,.06,0,.1,0,.2,0,.2,.1l.3,.3q.1,.1,.2,.1c.17-.03,.32-.14,.4-.3l.3-.5c.08-.08,.11-.19,.1-.3,0-.1-.1-.2-.3-.3l-.4-.2c-.66-.45-1.03-1.21-1-2,0-.14,.03-.28,.1-.4l.2-.5c.07-.16,.11-.33,.1-.5-.02-.35-.12-.69-.3-1-.15-.23-.28-.46-.4-.7-.2-.5-.3-.6-.5-.6s-.2,0-.4,.2l-.3,.2-.4,.5-.5,.2c-.3,.1-.5,.7-.5,1.2,0,.7,.2,1.1,1.2,2.9,.34,.55,.58,1.16,.7,1.8,0,1.3-1.3,2.4-3.5,2.8-2.6,.5-3.2,1-3.5,2.6,.43-.24,.91-.34,1.4-.3h.6c.33,.06,.65-.1,.8-.4,.27-.4,.65-.72,1.1-.9l.5-.2,.4-.2h.1c.1,0,.2,0,.2,.1-.04,.2-.15,.37-.3,.5-.27,.31-.44,.69-.5,1.1-.22,.31-.18,.74,.1,1"/><path class="cls-3" d="M78.5,31.3c.38,.25,.72,.55,1,.9,.3,.4,.3,.5,.7,.5,.17,0,.34-.03,.5-.1l.3-.1c.5-.1,.7-.2,.7-.3-.01-.08-.05-.15-.1-.2l-.4-.3-.4-.3c-.28-.23-.63-.37-1-.4-.46-.11-.94,0-1.3,.3"/><path class="cls-3" d="M88.8,33.1h1c.3,0,.5,0,.6-.1,.25-.19,.45-.43,.6-.7,.08-.12,.11-.26,.1-.4,0-.2-.2-.3-.5-.3-.9-.2-1.4,.3-1.8,1.5"/><path class="cls-2" d="M76.9,10.9c0,.3,.2,.5,.3,.5s.3-.5,.7-1c.4-.53,.68-1.15,.8-1.8,0-.11-.09-.19-.2-.2h0l-.4,.3c-.33,.26-.7,.47-1.1,.6-.4,.1-.5,.3-.5,.5v.3l.3,.6,.1,.2Z"/><path class="cls-2" d="M74.1,8.5c-.11-.11-.25-.17-.4-.2-.11,0-.19,.09-.2,.2v.1c.02,.17,.06,.34,.1,.5,.1,.31,.23,.62,.4,.9l.5,.8c.17,.23,.42,.37,.7,.4h0c.08-.01,.15-.05,.2-.1l.1-.6,.2-.6v-.1c0-.16-.08-.3-.2-.4l-.5-.3-.9-.6Z"/><path class="cls-2" d="M76.2,12.6h-.6c-.12-.09-.25-.16-.4-.2-.15-.09-.33-.13-.5-.1-.26-.02-.48,.18-.5,.44,0,.02,0,.04,0,.06,.05,.46,.18,.9,.4,1.3,.15,.33,.28,.66,.4,1,.4,.9,.7,1.3,1.2,1.3s.7-.3,1-1l.4-1.4c.2-.4,.6-.6,.6-1-.04-.41-.39-.72-.8-.7h-.2l-.5,.3h-.5Z"/><path class="cls-3" d="M76.1,13.5h-.4q-.1,0-.2,.1t-.1,.2l.2,.8,.1,.7c.1,.4,.1,.5,.4,.5,.32,.01,.59-.24,.6-.56,0-.01,0-.03,0-.04l.1-.7c-.02-.24,.02-.48,.1-.7q0-.1-.1-.2c-.05-.05-.12-.09-.2-.1,0,0-.5,0-.5,0Z"/><path class="cls-2" d="M32.4,81.7c.24,.47,.37,.98,.4,1.5l.1,1.3c.1,1.3,.5,2,1.3,2,.25,0,.49-.06,.7-.2l.4-.4h.1c.2,0,.3,.1,.3,.4v.5c0,.5,.03,1,.1,1.5,.08,.43,.12,.86,.1,1.3,.05,.55-.05,1.1-.3,1.6,.23,.61,.36,1.25,.4,1.9,.05,.56-.09,1.13-.4,1.6,.09,.36,.16,.73,.2,1.1,0,.4-.02,.8-.1,1.2-.12,.49-.16,1-.1,1.5v.1c0,.2-.1,.3-.2,.3-.17-.03-.32-.14-.4-.3-.2-.3-.3-.3-.5-.3s-.3,.1-.6,1.1c-.21,.44-.48,.84-.8,1.2-.22,.28-.42,.58-.6,.9-.1,.4-.2,.6-.2,.7s-.1,.1-.2,.2h0c-.5,0-1.1-1.1-1.8-3.3-.2-.6-.4-.9-.7-.9-.25,.03-.47,.18-.6,.4l-.2,.4c0,.1-.1,.1-.2,.1-.3,0-.6-.5-.9-1.1-.2-.48-.3-.99-.3-1.5,0-1,.7-1.8,3-3,1.32-.84,1.7-2.59,.86-3.91-.2-.31-.46-.58-.76-.79-.39-.36-.88-.6-1.4-.7-.26-.02-.48,.18-.5,.44,0,.02,0,.04,0,.06,0,.3,.2,.5,.6,.6,.5,.2,.7,.4,.7,.6-.1,.42-.27,.83-.5,1.2-.25,.43-.59,.81-1,1.1-.2,.87-.74,1.63-1.5,2.1-.14,.43-.34,.83-.6,1.2l-.7,.9c-.19,.32-.35,.66-.5,1-.1,.5-.1,.6-.3,.6s-.8-.5-1.3-1.1c-.28-.3-.42-.69-.4-1.1-.3,.3-.4,.3-1.1,.4-.3,.04-.61,.11-.9,.2-.21,.15-.45,.25-.7,.3-.1,0-.2-.1-.2-.3v-.7c.03-1.05,.38-2.06,1-2.9-.43-.44-.99-.72-1.6-.8q-.2,0-.2-.1c.04-.23,.14-.44,.3-.6,.15-.25,.35-.45,.6-.6,.54-.44,1.21-.68,1.9-.7,.62,.07,1.23,.24,1.8,.5,.25,.11,.52,.18,.8,.2,.29,.04,.56-.16,.6-.45,0-.05,0-.1,0-.15-.14-1.04-.44-2.05-.9-3-.31-.66-.51-1.37-.6-2.1-.07-1.01,.39-1.99,1.2-2.6-.2-.15-.45-.22-.7-.2-.35,.02-.69,.12-1,.3-.5,.3-.7,.5-.7,.7s.1,.2,.3,.3,.3,.2,.3,.5c-.16,1.02-.74,1.92-1.6,2.5-.12,1.01-.77,1.88-1.7,2.3-.08,.56-.32,1.08-.7,1.5-.53,.66-.94,1.4-1.2,2.2-.1,.3-.2,.5-.3,.5-.29-.12-.54-.33-.7-.6-.18-.19-.34-.39-.5-.6-.16-.32-.3-.66-.4-1-.15,.08-.33,.12-.5,.1h-.8c-.62,0-1.24,.14-1.8,.4-.08,.08-.19,.11-.3,.1-.2,0-.4-.4-.4-1-.02-1.16,.37-2.29,1.1-3.2-.25-.15-.45-.35-.6-.6-.1-.1-.2-.2-.3-.2l-.4-.2c-.1-.1-.2-.1-.2-.2s.5-.6,1-1c.46-.36,1.02-.57,1.6-.6,.5,0,.8,.1,1.5,.7,.5,.4,.8,.6,1,.6s.3-.1,.5-.3c.13-.14,.2-.31,.2-.5-.21-.9-.74-1.68-1.5-2.2-.56-.38-1.22-.59-1.9-.6-.86-.07-1.66,.41-2,1.2l-.4,.7c-.1,.2-.2,.3-.3,.3-.2,0-.3-.1-1-.9l-.8-1c-.22-.23-.39-.5-.5-.8-.1-.2-.1-.4-.2-.4l-.3-.3c-.74-.73-1.23-1.67-1.4-2.7,0-.1-.1-.2-.1-.4-.77-.9-1.22-2.02-1.3-3.2,0-.14,.03-.28,.1-.4-.5-.5-.5-.6-.9-1.8-.16-.59-.4-1.17-.7-1.7-.06-.05-.09-.12-.1-.2,0-.2,.3-.3,.7-.4,.19-.06,.4-.1,.6-.1h.6v-.9c-.03-.51,.04-1.02,.2-1.5,.07-.23,.11-.46,.1-.7,0-.2-.04-.41-.1-.6-.02-.17-.06-.34-.1-.5,0-.1-.1-.2-.1-.3,0-.11,.09-.19,.2-.2,.14,0,.28,.03,.4,.1,.6,.3,1,.6,1.4,.8,1.01,.72,1.72,1.79,2,3v.3c-.01,.17-.05,.34-.1,.5,.04,.18,.11,.35,.2,.5l.4,.5c.29,.37,.47,.83,.5,1.3,0,.3-.1,.4-.6,1.2-.31,.4-.49,.89-.5,1.4,.03,.71,.23,1.4,.6,2,.4,.7,.8,1,1.2,1,.7,0,1-.6,1.1-2.3,.04-.81,.14-1.61,.3-2.4v-.4c0-.2-.1-.3-.3-.6l-1-1.1c-.9-1.1-1.2-1.6-1.2-2.4-.06-.77,.51-1.43,1.28-1.5,.04,0,.08,0,.12,0h.4v-.2c.04-.31,.11-.61,.2-.9,.08-.45,.29-.87,.6-1.2,.09,.08,.19,.15,.3,.2,.1,0,.2,.1,.6,.2,.21,.08,.41,.18,.6,.3,.13-.38,.3-.75,.5-1.1,.28-.39,.61-.72,1-1,.1,0,.3,.1,.5,.4l.6,.6c.15,.19,.28,.39,.4,.6l.1,.3c.2-.1,.3-.2,.4-.2,.2-.2,.4-.2,.5-.3l.6-.3c.11-.05,.21-.12,.3-.2,.1,0,.2,.2,.4,1.3,.15,.45,.22,.93,.2,1.4,.86,.02,1.54,.74,1.52,1.6,0,.07,0,.13-.02,.2-.09,1.24-.66,2.39-1.6,3.2-.25,.19-.4,.49-.4,.8,0,2.8,1,3.7,4.5,4.1,1.85,.15,3.66,.56,5.4,1.2,.87,.3,1.78,.5,2.7,.6,.6,0,.9-.2,.9-.6,0-.6-.4-.8-3-1.3-5.9-1.2-8.3-3.3-8.3-7.2-.07-2.64,2.02-4.83,4.66-4.9,.08,0,.16,0,.24,0,1.47,.09,2.88,.58,4.1,1.4,1.6,.9,1.9,1.1,2.3,1.1s.6-.3,.6-1c0-.4,.1-.7,.4-.7s.6,.3,1,.7c.47,.48,.73,1.13,.7,1.8,.05,1.1-.72,2.08-1.8,2.3l-.3,.3c-.56,.68-1.42,1.05-2.3,1-1-.04-1.97-.35-2.8-.9l-1.5-1.1c-.44-.4-1-.65-1.6-.7-.49-.06-.94,.29-1,.79,0,.07,0,.14,0,.21,.01,.66,.46,1.23,1.1,1.4l1.4,.5c.48,.18,.94,.38,1.4,.6,.23-.07,.46-.1,.7-.1,.95-.02,1.88,.22,2.7,.7,.22,.06,.42,.16,.6,.3l.8,.2c1.93,.66,3.25,2.46,3.3,4.5,.12,1.92-1.33,3.58-3.26,3.71-.18,.01-.36,0-.54,0h-.8Z"/><path class="cls-3" d="M31.9,100.8l.2-.4,.5-.5c.42-.46,.63-1.08,.6-1.7-.02-.34-.09-.68-.2-1-.07-.19-.1-.4-.1-.6,0-.18,.13-.34,.3-.4,.11,0,.19,.09,.2,.2l.5,.5c.2,.26,.48,.43,.8,.5v-.9c-.02-.79-.26-1.55-.7-2.2-.3-.3-.4-.5-.4-.6,0-.11,.09-.19,.2-.2,.06,0,.1,.04,.1,.1,.18,.14,.38,.24,.6,.3,.2,0,.3-.4,.3-.8-.04-.66-.28-1.29-.7-1.8-.2-.2-.3-.4-.4-.5s-.1-.1-.1-.2,.1-.2,.3-.2,.2,0,.4,.2c.05,.06,.12,.09,.2,.1,.2,0,.3-.4,.3-1.3v-1c0-.7-.1-.8-.4-.8h-.3c-1.6,0-2.3-1-2.7-3.7-.3-1.9-1-3.3-1.9-3.6-.5-.2-.7-.3-.7-.4s.1-.2,.3-.2c.21,.04,.41,.1,.6,.2,1.04,.46,2.16,.73,3.3,.8,1.44,.05,2.65-1.08,2.7-2.52,0-.03,0-.05,0-.08-.03-1.2-.58-2.33-1.5-3.1-.24-.2-.51-.37-.8-.5h-.1l-.2,.1,.1,.5,.1,.3v.1c0,.1-.1,.1-.2,.1s-.2,0-.2-.1l-.6-.9c-.52-.72-1.32-1.19-2.2-1.3-.3,0-.4,.1-.4,.3,.03,.15,.09,.29,.2,.4,.15,.13,.26,.3,.3,.5v.1c0,.06-.04,.1-.1,.1h0c-.2,0-.2-.1-.9-.9-.61-.71-1.47-1.17-2.4-1.3-.1,0-.2,0-.2,.1l-.1,.1c0,.1,.1,.2,.2,.4s.4,.4,.4,.5-.1,.1-.2,.1-.6-.3-1.4-.9c-1.02-.61-1.67-1.71-1.7-2.9-.05-1.16,.84-2.14,2-2.2,.77,.02,1.51,.31,2.1,.8l1.6,1.2c.73,.52,1.6,.8,2.5,.8,.21,.02,.41-.02,.6-.1l.2-.2c-.08-.07-.19-.1-.3-.1-.49-.05-.94-.26-1.3-.6l-1.6-1.2c-.41-.33-.84-.63-1.3-.9-.8-.4-1-.5-1-.6,.05-.05,.12-.09,.2-.1,.11-.01,.22,.02,.3,.1l.8,.4c.46,.22,.89,.49,1.3,.8,1.7,1.1,2.6,1.5,3.6,1.5,.89,.05,1.65-.63,1.7-1.52,0-.03,0-.06,0-.08,.02-.21-.02-.41-.1-.6l-.2-.3-.2-.2-.1,.1-.1,.7c0,.08-.04,.15-.1,.2-.1,.1-.1,.2-.2,.3s-.3,.2-.6,.2c-.5,0-1.1-.3-2.6-1.2-1.16-.87-2.55-1.39-4-1.5-2.31,.02-4.18,1.89-4.2,4.2,0,3.2,2,4.7,8.1,6,2.3,.5,3.4,1.2,3.4,2.2s-.8,1.5-2,1.5c-.3,.03-.61,0-.9-.1-1.12-.24-2.22-.54-3.3-.9-1.4-.4-2.85-.6-4.3-.6-2.4,0-4,.7-5.1,2.3-.07,.13-.17,.23-.3,.3-.11,.01-.22-.02-.3-.1l-.4-.4c-.36-.24-.77-.37-1.2-.4-.26,.01-.51,.12-.7,.3-.11,.05-.21,.12-.3,.2-.2,0-.5-.4-.8-.9-.34-.68-.52-1.44-.5-2.2,0-.3,.1-.5,.2-.5s.2,.1,.2,.3l.3,.9c.1,.5,.4,.9,.7,.9,.1,0,.3-.1,.5-.4,.12-.15,.22-.32,.3-.5,.2-.6,.2-.7,.4-.7s.3,.1,.4,.7c.04,.18,.11,.35,.2,.5,.1,.2,.3,.4,.4,.6s.2,.2,.3,.2c.3,0,.5-.5,.5-1v-.7c0-.2,0-.3,.2-.3s.1,0,.2,.2c.12,.18,.29,.33,.5,.4,.15,.09,.32,.16,.5,.2,.1,0,.2-.1,.3-.2,.08-.08,.11-.19,.1-.3,0-.1-.1-.2-.5-.6-.3-.38-.5-.83-.6-1.3-.1-.3-.2-.4-.3-.4-.08,0-.15,.04-.2,.1l-.4,.2-.3,.1h-.1c-.11,0-.19-.09-.2-.2,.15-.3,.35-.57,.6-.8,.28-.21,.43-.55,.4-.9,0-.5,.1-1,.2-1l.1-1.1c.07-.75,.24-1.49,.5-2.2,.01-.08,.05-.15,.1-.2,.1,0,.2,.2,.2,.5v.5c0,.4,.1,.6,.2,.6s.3-.2,.4-.6l.3-.7c.08-.19,.12-.39,.1-.6,.06-.55-.34-1.04-.89-1.1,0,0,0,0,0,0h-.2c-.08,.01-.15,.05-.2,.1-.2,0-.3-.2-.3-.4v-1.1l-.1-.7v-.3l-.3,.2-.4,.3-.5,.4-.4,.4c-.05,.06-.12,.09-.2,.1-.2,0-.3-.1-.3-.6v-.1c0-.4-.2-.7-.8-1.5l-.2-.2-.1,.2-.4,.6-.4,.9-.1,.6c0,.11-.03,.22-.1,.3-.1,0-.2-.1-.3-.2-.31-.5-.82-.83-1.4-.9l-.1,.2c-.1,.4-.2,.6-.2,.7v1.1c0,.2-.1,.3-.2,.3h0l-.2-.2c-.1-.1-.2-.1-.4-.1-.6,0-1,.3-1,.8s.1,.7,.7,1.6c.3,.4,.6,.7,.7,.7s.1-.2,.1-.5l-.1-.4c-.07-.16-.11-.33-.1-.5,0-.2,.1-.3,.2-.3,.3,0,.6,.8,.7,2l.1,1.2c.04,.46,.18,.9,.4,1.3,.2,.44,.47,.84,.8,1.2,.3,.2,.5,.4,.5,.5,0,.11-.09,.19-.2,.2-.19-.09-.39-.15-.6-.2h-.3c-.6,0-.9,.4-.9,1.5,.1,1.55,.78,3.02,1.9,4.1l1.5,1.2c.71,.58,1.17,1.4,1.3,2.3,0,.9-1,1.9-2.8,2.5l-1.1,.4c-.8,.3-1.2,.8-1.5,2.4,.29-.1,.59-.17,.9-.2h.6c.36,.02,.66-.25,.7-.6v-.3c0-.1,.1-.2,.3-.3,.15-.04,.28-.11,.4-.2l.4-.3c.1,0,.1-.1,.2-.1,.11,0,.19,.09,.2,.2,.01,.11-.02,.22-.1,.3-.12,.35-.19,.73-.2,1.1-.05,.64,.13,1.28,.5,1.8,0-.14,.04-.28,.1-.4,.13-.32,.3-.62,.5-.9,.44-.58,.72-1.27,.8-2v-.1l-.1-.7c.03-.15,.09-.29,.2-.4q.1-.1,.2-.1c.1,0,.2,.1,.3,.3,.05,.11,.12,.21,.2,.3,.1,0,.3-.3,.5-.6,.1-.22,.17-.46,.2-.7,.01-.14-.02-.28-.1-.4-.07-.12-.1-.26-.1-.4q0-.1,.1-.2t.2-.1,.2,.1l.3,.2c.08,.08,.19,.11,.3,.1,.1,0,.3-.1,.5-.4,.22-.27,.39-.57,.5-.9,0-.1-.1-.1-.2-.3-.59-.39-.98-1.01-1.1-1.7,0-.17,.03-.34,.1-.5l.3-.9c.2-.4,.2-.7,.3-.7h.1c.11,0,.19,.09,.2,.2,0,.14-.03,.28-.1,.4-.07,.19-.11,.4-.1,.6,0,.2,.1,.4,.3,.4,.17,.02,.35-.02,.5-.1,.69-.33,1.44-.53,2.2-.6,.43,0,.85,.15,1.2,.4,.08,.08,.19,.11,.3,.1q.1,0,.2-.1,.1-.1,.1-.2c-.03-.15-.09-.29-.2-.4-.15-.12-.23-.31-.2-.5,0-.11,.09-.19,.2-.2,.5,0,1.3,1.6,2,4.1,.6,2,.8,2.2,2.7,3.3,1.6,.9,2.2,1.8,2.2,3.3-.11,1.95-.51,3.87-1.2,5.7-.23,.54-.37,1.11-.4,1.7,.05,.51,.15,1.01,.3,1.5,.1,.4,.2,.7,.2,.7,.6,.4,.7,.6,.8,.8"/><path class="cls-3" d="M24.4,96.3c.2-.4,.3-.5,.6-1.1,.37-.46,.62-1.01,.7-1.6v-.5c0-.5,.1-.7,.3-.7s.1,0,.2,.1l.2,.3c0,.1,.1,.1,.2,.1,.17-.03,.32-.14,.4-.3,.2-.34,.34-.71,.4-1.1v-.8c-.02-.15,.09-.28,.24-.3,.02,0,.04,0,.06,0,.1,0,.2,0,.3,.3,.05,.11,.12,.21,.2,.3,.1,0,.2-.1,.3-.2l.3-.4,.2-.3v-.2c0-.1-.1-.2-.2-.3-.68-.55-1.03-1.43-.9-2.3,.02-.61-.05-1.21-.2-1.8-.17-.48-.37-.95-.6-1.4-.16-.39-.3-.79-.4-1.2-.1-.3-.2-.4-.4-.4-.84,.01-1.52,.71-1.51,1.55,0,.05,0,.1,0,.15,.06,.91,.29,1.79,.7,2.6,.42,.85,.69,1.76,.8,2.7,0,1.2-.5,1.7-2.1,2.3-1.8,.7-2.7,1.6-3,3.3,.08-.08,.19-.11,.3-.1,.2-.1,.4-.1,.4-.2l.5-.1c.36-.09,.68-.3,.9-.6l.1-.4c0-.11,.09-.19,.2-.2l.3-.1,.3-.1,.1,.1-.1,.4c-.05,.23-.08,.46-.1,.7-.24,.61-.12,1.3,.3,1.8"/><path class="cls-3" d="M7.2,66.6c0,.2,.1,.3,.1,.4,0,.27-.03,.54-.1,.8l-.1,.7c0,.58,.1,1.16,.3,1.7,.12,.22,.18,.46,.2,.7v.1c-.01,.08-.05,.15-.1,.2-.1,0-.2-.1-.3-.2-.34-.29-.76-.47-1.2-.5-.17,0-.34,.03-.5,.1l.2,.4,.5,1.2,.7,1,.7,.5c.1,0,.1,.1,.2,.2,.06,.05,.09,.12,.1,.2,0,.06-.04,.1-.1,.1h-.6c-.08,.01-.15,.05-.2,.1,.07,.34,.17,.68,.3,1l.3,.9,.5,.5,.6,.4c.16,.08,.27,.23,.3,.4-.01,.08-.05,.15-.1,.2h-.3c-.1,0-.2,.1-.2,.3,.09,.45,.3,.86,.6,1.2,.5,.7,.8,.9,1.4,.9h.5c.2,0,.4,.1,.4,.3s-.1,.2-.3,.3c-.4,.1-.6,.2-.6,.4s.1,.2,.2,.3l.3,.4c.14,.23,.35,.41,.6,.5,.2-.04,.37-.15,.5-.3,.26-.32,.61-.56,1-.7,1.1-.3,1.3-.4,1.3-.7,0-.14-.03-.28-.1-.4-.34-.46-.52-1.03-.5-1.6,0-.4-.1-.7-.2-.7s-.2,.1-.3,.3c-.24,.39-.65,.65-1.1,.7-1.1,0-2.4-1.7-3.1-4-.17-.55-.24-1.13-.2-1.7,.02-.67,.09-1.34,.2-2,.08-.55,.21-1.08,.4-1.6v-.4c-.48-1.06-1.24-1.96-2.2-2.6"/><path class="cls-3" d="M9.5,71.1c-.28,.67-.45,1.38-.5,2.1,0,.4,.1,.7,.3,.7s.1-.1,.2-.2l.4-.6c.1-.1,.1-.2,.2-.4,.09-.15,.16-.32,.2-.5-.03-.49-.34-.92-.8-1.1"/><path class="cls-3" d="M13.1,85.6l.2,.2,.3,.3c.6,.6,.7,.7,1,.7,.41-.05,.81-.15,1.2-.3l.2-.2c-.08-.15-.18-.28-.3-.4l-.4-.3c-.27-.22-.57-.39-.9-.5-.4-.1-.7,.1-1.3,.5"/><path class="cls-3" d="M20.5,91.4c.22,.06,.42,.16,.6,.3,.16,.11,.33,.21,.5,.3,.16,.04,.33,.08,.5,.1,.14,.01,.28-.02,.4-.1l.7-.3,.6-.2c.11-.05,.21-.12,.3-.2-.12-.09-.25-.16-.4-.2-.18-.04-.35-.11-.5-.2-.8-.3-.9-.4-1.2-.4-.59,.12-1.12,.44-1.5,.9"/><path class="cls-3" d="M28.6,97.8c.2-.5,.4-.6,1.1-.6s1.6-1.5,1.6-2.5c0-.1,0-.2-.1-.2-.08,0-.15,.04-.2,.1-.2,.2-.4,.2-.5,.3l-.9,.4c-.67,.36-1.12,1.04-1.2,1.8,0,.1,.1,.3,.2,.7"/><path class="cls-2" d="M14.8,69.9l.3,.5c.21,.2,.44,.37,.7,.5,.1,0,.1-.1,.2-.3l.1-.5v-.5c0-.4-.2-.6-1.1-.8-.2-.1-.3,0-.4-.2-.11-.11-.25-.17-.4-.2q-.1,0-.1,.1v.1l.2,.5,.5,.8Z"/><path class="cls-2" d="M18.2,69.9l-.4,.7-.2,.2h0c-.2,0-.3-.4-.4-.8l-.1-.6c0-.3,.2-.4,.6-.5s.5-.1,.6-.2c.3-.2,.5-.3,.5-.4h.1c.1,0,.1,.1,.1,.2h0l-.2,.5-.6,.9Z"/><path class="cls-2" d="M17.4,72.1l.5-.3c.08-.01,.15-.05,.2-.1,.25,.03,.42,.25,.4,.5-.11,.58-.35,1.12-.7,1.6-.4,.8-.7,1.3-1.1,1.3s-1.1-.7-1.7-2c-.11-.29-.18-.59-.2-.9,0-.4,.2-.6,.5-.6,.14-.01,.28,.02,.4,.1l.3,.2c.23,.19,.51,.29,.8,.3,.2,.07,.43,.03,.6-.1"/><path class="cls-3" d="M16.6,72.9l-.4-.1h-.1c-.15-.02-.28,.09-.3,.24,0,.02,0,.04,0,.06,.11,.5,.31,.98,.6,1.4,.05,.06,.12,.09,.2,.1,.2,0,.4-.4,.5-1l.1-.5v-.1c0-.2-.1-.3-.2-.3h-.1"/><path class="cls-2" d="M88.2,81.3c.47,.66,1.19,1.1,2,1.2,.2,0,.5-.1,.9-.1,.2,0,.3-.1,.4-.1s.2,.1,.2,.2c-.04,.21-.1,.41-.2,.6-.11,.18-.18,.39-.2,.6l-.1,.7-.3,.6-.4,.4-.1,.1v.4c.06,.69-.29,1.36-.9,1.7-.1,0-.1,.1-.2,.2l-.1,.3c-.03,.38-.13,.76-.3,1.1-.18,.32-.38,.62-.6,.9-.32,.4-.58,.84-.8,1.3-.1,.3-.2,.4-.4,.4s-.6-.4-.7-.9c-.1,.1-.1,.2-.2,.2l-.4,.3-.6,.4c-.18,.11-.35,.25-.5,.4l-.4,.4q-.1,.1-.2,.1c-.1,0-.3-.3-.5-.8l-.3-1.1c-.09-.33-.12-.66-.1-1-.04-.38,.03-.76,.2-1.1-.6,.1-.8,.1-1.2,.2-.1,0-.2,.1-.3,.1-.11,0-.19-.09-.2-.2,.04-.16,.08-.33,.1-.5l.4-1.1c.41-.88,1.24-1.48,2.2-1.6,.27,.03,.54,.1,.8,.2,.16,.07,.33,.11,.5,.1,.36,.02,.66-.25,.7-.6,0-.2-.1-.4-.3-.4-.41-.1-.81-.23-1.2-.4-.56-.23-1.05-.61-1.4-1.1-.4-.5-.6-.7-.8-.7-.11,0-.19,.09-.2,.2v.6c-.06,1.03-.37,2.02-.9,2.9l-.9,1.6c-.36,.61-.56,1.3-.6,2,0,.6,.3,1.2,.6,1.3l.5,.1q.1,0,.2,.1t.1,.2c0,.1-.1,.2-.2,.3-.19,.25-.39,.48-.6,.7-.38,.57-.95,.99-1.6,1.2-.38,.91-1.15,1.61-2.1,1.9l-.1,.2c-.37,.69-1.03,1.17-1.8,1.3h-.1c-.14,.66-.53,1.24-1.1,1.6-.4,.3-.7,.5-.7,.5-.08,.09-.15,.19-.2,.3-.1,.3-.3,.5-.5,.5s-.6-.3-.8-.9c-.1,.1-.2,.1-.3,.2-.19,.15-.39,.28-.6,.4-.34,.17-.72,.27-1.1,.3-.8,.2-1.5,.5-1.6,.8l-.3,.5-.1,.1c-.2,0-.3-.2-.4-.5-.17-.59-.27-1.19-.3-1.8,.04-1.17,.58-2.27,1.5-3v-.3c0-1.66,1.33-3.01,2.98-3.02,.11,0,.21,0,.32,.02h.3l1.1,.1h.1c.63,0,1.24-.26,1.7-.7,.66-.35,1.05-1.06,1-1.8-.07-.44-.17-.88-.3-1.3-.16-.48-.23-.99-.2-1.5,.16-1.57,1-3,2.3-3.9,.3-.2,.6-.5,.6-.7s0-.1-.1-.1-.2,.1-.4,.2-.4,.3-.8,.5l-.5,.3-.6,.2c-.2,.1-.3,.2-.3,.3-.01,.11,.02,.22,.1,.3,.01,.08,.05,.15,.1,.2,0,.1-.1,.2-.2,.4l-.4,.7c-.3,.55-.75,1-1.3,1.3-.4,1.1-.9,1.6-1.6,1.7-.33,.97-1.18,1.67-2.2,1.8-.17,.59-.52,1.11-1,1.5-.2,.2-.4,.4-.4,.5-.3,.4-.3,.5-.4,.5-.28-.08-.53-.26-.7-.5-.12-.11-.23-.25-.3-.4l-.3-.5c-.1-.2-.2-.2-.3-.2h-.2l-.7,.1c-.49,.11-.94,.35-1.3,.7l-.4,.6c0,.1-.1,.1-.2,.1-.3,0-.5-.6-.5-1.7-.07-.7,.1-1.41,.5-2l.9-1.2c.1-.2,.2-.3,.2-.5-.03-.15-.09-.29-.2-.4-.2-.2-.4-.4-.5-.4l-.7-.1c-.1,0-.2,0-.2-.1s0-.1,.1-.2c.22-.28,.49-.52,.8-.7,.55-.42,1.21-.66,1.9-.7,.6,.04,1.18,.21,1.7,.5l.9,.6c.12,.08,.26,.11,.4,.1,.48-.06,.9-.36,1.1-.8,.26-.46,.4-.97,.4-1.5,.03-1.13-.87-2.07-2-2.1-.03,0-.07,0-.1,0-.62,.02-1.21,.23-1.7,.6-.2,.1-.3,.2-.3,.4l-.3,.6-.2,.2c-.2,0-.5-.5-.8-1.1-.21-.37-.34-.78-.4-1.2-.19-.51-.29-1.05-.3-1.6v-.9c-.39-.59-.6-1.29-.6-2,0-.38,.06-.75,.2-1.1-.29-.4-.44-.9-.4-1.4v-.4l.1-.4,.1-.4c-.4-.63-.64-1.35-.7-2.1-.09-.45-.22-.88-.4-1.3-.06-.05-.09-.12-.1-.2,0-.2,.4-.4,1-.4h.5c-.07-.19-.11-.4-.1-.6,.02-.44,.09-.87,.2-1.3,.13-.25,.2-.52,.2-.8,0-.4-.1-.8-.1-1l-.3-.6c-.08-.08-.11-.19-.1-.3q0-.1,.2-.1c1.06,.26,2.03,.82,2.8,1.6,.83,.72,1.28,1.8,1.2,2.9l-.1,.7c.9,.8,1.3,1.4,1.3,2.1-.03,.49-.24,.96-.6,1.3-.75,.56-1.17,1.46-1.1,2.4,0,1.7,.5,2.6,1.4,2.6s1.5-.9,1.6-2.2l.1-1.2c.03-.4,.1-.81,.2-1.2,.07-.26,.11-.53,.1-.8,0-.4-.3-1-1.1-2s-1.2-1.6-1.2-2.4c-.05-.89,.63-1.65,1.52-1.7,.03,0,.06,0,.08,0,.22-.01,.43,.06,.6,.2-.05-.5,.1-1,.4-1.4,.1-.41,.3-.79,.6-1.1,.08,0,.15,.04,.2,.1,.1,.1,.3,.3,.4,.3,.11,.05,.21,.12,.3,.2l.3,.3c.13-.63,.49-1.2,1-1.6,.4-.4,.6-.6,.7-.6s.1,.1,.2,.2l.4,.5,.5,.6c.25,.28,.39,.63,.4,1l.3-.2,.5-.3c.1-.1,.2-.1,.4-.3,.05-.06,.12-.09,.2-.1,.1,0,.1,.1,.2,.2l.2,.7,.4,.8c.14,.24,.21,.52,.2,.8v.2h.2c.75,.14,1.28,.84,1.2,1.6-.16,1.39-.93,2.63-2.1,3.4-.08,.29-.12,.6-.1,.9,0,2.5,.7,3.1,4.6,3.7,.88,.09,1.75,.26,2.6,.5,.1,0,1,.3,2.5,.8,.61,.24,1.25,.37,1.9,.4,.5,0,.7-.1,.7-.4s-.6-.8-2.6-1.6l-2.8-1.1c-2.8-1.1-4.2-2.8-4.2-5.4-.11-2.76,2.03-5.09,4.79-5.2,.14,0,.27,0,.41,0,1.31,.02,2.6,.3,3.8,.8,.75,.32,1.52,.58,2.3,.8,.4,0,.6-.3,.7-.8s.2-.7,.4-.7c.4,0,.8,.4,1.1,1,.28,.52,.42,1.11,.4,1.7,.07,.98-.62,1.86-1.6,2-.58,.85-1.57,1.34-2.6,1.3-1.3,0-1.9-.3-4.1-1.6-.48-.39-1.08-.6-1.7-.6-.64-.07-1.22,.39-1.29,1.03,0,.02,0,.05,0,.07,0,.6,.5,1,1.5,1.3,.4,.08,.77,.26,1.1,.5,.16-.07,.33-.1,.5-.1,1.26,.13,2.45,.65,3.4,1.5,2.02,.63,3.47,2.4,3.7,4.5-.02,2-1.6,3.63-3.6,3.7,.1,.2-1,.1-1.9-.1"/><path class="cls-3" d="M87,90.1l.1-.4,.1-.5c0-.1,.1-.3,.4-.5,.33-.47,.5-1.03,.5-1.6-.02-.21-.09-.42-.2-.6-.08-.08-.11-.19-.1-.3,0-.06,.04-.1,.1-.1,0-.06,.04-.1,.1-.1h0c.1,0,.2,.1,.3,.2,.07,.13,.17,.23,.3,.3,.1,0,.3-.2,.4-.6,0-.11,.03-.22,.1-.3-.02-.32-.13-.63-.3-.9-.08-.08-.11-.19-.1-.3,0-.11,.09-.19,.2-.2,.1,0,.2,.1,.4,.3,.05,.06,.12,.09,.2,.1,.2,0,.3-.2,.5-.7,.07-.16,.1-.33,.1-.5q0-.1-.1-.1h-.5c-.7-.05-1.34-.37-1.8-.9l-.9-1.1c-.3-.4-.8-1.1-.8-1.1l-.7-.5c-.1-.1-.2-.2-.2-.3s.1-.2,.3-.2c.59,.14,1.16,.34,1.7,.6,1.02,.41,2.1,.65,3.2,.7,1.51,.01,2.76-1.19,2.8-2.7-.09-1-.56-1.93-1.3-2.6-.17-.18-.37-.32-.6-.4-.11,0-.19,.09-.2,.2,0,.14,.03,.28,.1,.4,0,.1,.1,.2,.1,.3,0,.11-.09,.19-.2,.2-.2,0-.4-.3-.6-.9-.2-.7-.6-1.1-1.6-1.6-.32-.17-.65-.3-1-.4-.06,0-.1,.04-.1,.1-.01,.14,.02,.28,.1,.4l.3,.6h0c0,.11-.09,.19-.2,.2-.2,0-.3-.1-.7-.8-.35-.49-.84-.88-1.4-1.1-.16-.07-.33-.11-.5-.1h0c-.08,.01-.15,.05-.2,.1,.07,.08,.1,.19,.1,.3v.2c0,.11-.09,.19-.2,.2-.5-.24-.94-.58-1.3-1-.47-.53-.75-1.19-.8-1.9,.11-1.3,1.2-2.3,2.5-2.3,.28,0,.55,.07,.8,.2l1.1,.6,1.3,.9c.72,.48,1.54,.79,2.4,.9,.34,0,.68-.07,1-.2,.3-.1,.5-.2,.5-.3h0l-.1-.1-.7-.1c-.73-.14-1.41-.45-2-.9l-1.5-1-1.3-.5c-.11,0-.19-.09-.2-.2,0-.1,.1-.1,.2-.1,.14,.02,.27,.05,.4,.1l1.2,.4c.52,.18,1.02,.42,1.5,.7,.85,.54,1.8,.88,2.8,1,.68,.03,1.27-.49,1.3-1.18,0,0,0-.01,0-.02,0-.2-.1-.6-.1-.9-.03-.15-.09-.29-.2-.4q-.1-.1-.2-.1c-.1,0-.1,.1-.1,.3v.4c0,.6-.2,.8-.9,.8-1.01-.13-1.99-.43-2.9-.9-1.07-.49-2.23-.76-3.4-.8-2.37,0-4.34,1.83-4.5,4.2,0,1.9,1.3,3.4,3.9,4.5l2.7,1.1c2.3,.9,3.1,1.6,3.1,2.5,0,.7-.7,1.2-1.7,1.2-.72-.04-1.44-.21-2.1-.5-1.83-.66-3.76-1.03-5.7-1.1-2.02-.13-4,.64-5.4,2.1-.2,.2-.3,.2-.4,.2s-.2,0-.5-.2c-.22-.11-.46-.18-.7-.2-.3,.05-.58,.19-.8,.4l-.3,.4c-.1,.1-.2,.2-.3,.2s-.6-.4-.9-.9c-.17-.23-.27-.51-.3-.8,0-.2-.1-.5-.1-.9v-.6l.1-.6c0-.17,.03-.34,.1-.5,0-.1,.1-.1,.2-.1s.2,.2,.2,.5v.3c0,.9,.4,1.7,.8,1.7s.6-.6,.8-1.7c0-.2,.1-.4,.2-.4s.2,.2,.3,.6c.13,.35,.29,.69,.5,1,.08,.16,.23,.27,.4,.3,.3,0,.4-.4,.6-1.3,.1-.4,.2-.6,.3-.6s.1,0,.1,.1c.09,.12,.16,.25,.2,.4,.11,.12,.25,.23,.4,.3,.12,.07,.26,.1,.4,.1,.11,.01,.22-.02,.3-.1,.1-.1,.2-.2,.2-.3-.08-.09-.15-.19-.2-.3-.29-.31-.49-.69-.6-1.1-.04-.25-.14-.5-.3-.7-.1-.1-.1-.2-.2-.2h-.3s-.3,.1-.7,.2h-.2c-.1,0-.1-.1-.1-.2s.1-.2,.3-.4c.92-.85,1.47-2.04,1.5-3.3,0-.68,.21-1.34,.6-1.9l.2-.2c.1,0,.2,.1,.2,.3,0,.17-.03,.34-.1,.5,0,.1-.1,.3-.1,.4v.1l.1,.2,.4-.1,.4-.4c.24-.39,.37-.84,.4-1.3,0-.27-.1-.52-.3-.7-.2-.2-.3-.3-.5-.3h-.4c-.2,0-.3-.1-.3-.2l.1-.2v-.4l-.2-.8-.2-.4-.1-.3-.2,.2-.5,.3c-.1,.1-.3,.2-.4,.4q-.5,.6-.7,.6t-.2-.1v-.1c.07-.23,.11-.46,.1-.7-.07-.72-.39-1.39-.9-1.9-.62,.48-.99,1.22-1,2v.4c0,.1,0,.2-.1,.2h0c-.11,0-.19-.09-.2-.2l-.4-.5c-.15-.15-.32-.28-.5-.4-.1,0-.1-.1-.3-.2l-.1,.3c-.26,.46-.4,.97-.4,1.5,0,.4-.1,.6-.2,.6-.08,0-.15-.04-.2-.1q-.5-.3-.7-.3c-.52-.03-.97,.36-1,.88,0,.04,0,.08,0,.12,.04,.39,.18,.77,.4,1.1,.3,.5,.7,1,.9,1s.1,0,.1-.2v-.6l-.1-.4v-.1c0-.1,0-.2,.1-.2,.3,0,.5,.8,.8,2.5,.06,1.14,.48,2.22,1.2,3.1l.3,.3c0,.06-.04,.1-.1,.1-.1,0-.2-.1-.4-.2-.08-.08-.19-.11-.3-.1-.39,.07-.68,.4-.7,.8l-.3,1.8-.2,2.6c-.02,.64,.05,1.28,.2,1.9,.1,.7,.2,1.2,.2,1.5-.01,1.91-1.34,3.57-3.2,4l-2.1,.6c-1.3,.4-1.9,1.2-2.1,2.8,.3-.3,.4-.3,.9-.4l.6-.1c.19,.02,.38-.06,.5-.2,.1,0,.2-.2,.4-.4l.5-.6c.2-.2,.4-.4,.5-.4s.1,.1,.1,.2c-.04,.18-.11,.35-.2,.5-.17,.23-.24,.52-.2,.8,.02,.48,.19,.93,.5,1.3,.07-.12,.1-.26,.1-.4,.1-.1,.2-.3,.5-.7,.33-.42,.6-.9,.8-1.4,0-.5,.1-.7,.2-.7s.1,0,.2,.3q0,.1,.1,.2,.1,.1,.2,.1c.11-.01,.21-.05,.3-.1,.19-.11,.35-.24,.5-.4l.3-.6c.08-.19,.15-.39,.2-.6v-.4c0-.1,0-.2,.1-.2s.2,.2,.3,.4,.1,.2,.2,.2h0c.1,0,.2-.1,.3-.1,.34-.32,.55-.74,.6-1.2v-.6l-.1-.5h0c0-.11,.09-.19,.2-.2,.1,0,.3,.2,.5,.7,.1,.2,.2,.3,.3,.3,.2,0,.3-.1,.6-.5l.3-.4c.13-.18,.13-.42,0-.6l-.3-.4c0-.1-.1-.2-.1-.3,.06-.53,.23-1.04,.5-1.5,.16-.26,.29-.52,.4-.8,.1-.1,.1-.2,.2-.2s.1,.1,.1,.2v1c0,.1,.1,.2,.3,.2,.11,.01,.22-.02,.3-.1l.8-.3c.24-.12,.48-.25,.7-.4,.67-.49,1.47-.77,2.3-.8,.54,.02,1.06,.2,1.5,.5,.09,.07,.19,.1,.3,.1,.1,0,.2-.1,.3-.2,.06-.05,.09-.12,.1-.2,.01-.14-.02-.28-.1-.4-.09-.15-.16-.32-.2-.5,0-.06,.04-.1,.1-.1,.11,0,.19,.09,.2,.2,.1,.2,.3,.6,.7,1.3,.43,.91,1.17,1.62,2.1,2l1.4,.3c.4,.1,.5,.3,.5,.8,.01,.97-.48,1.88-1.3,2.4l-1.2,.7c-.48,.4-.76,.98-.8,1.6,.03,.57,.1,1.14,.2,1.7l.2-.2,.5-.3,.5-.5,.3-.7,.3-.6c.1-.3,.3-.5,.4-.5s.2,.2,.2,.5v.2c.3-.2,.4,0,.7,.7"/><path class="cls-3" d="M68.1,99.3c0-1.5,.6-2.2,2.8-3.3,4.4-2.2,6.7-4.2,6.7-5.8-.05-.58-.19-1.16-.4-1.7-.17-.45-.27-.92-.3-1.4,.14-.95,.6-1.83,1.3-2.5l.6-.5c.31-.26,.52-.61,.6-1v-.3c0-.3,.1-.4,.5-.5h.3c.08-.01,.15-.05,.2-.1,.1,0,.2,.1,.3,.2l.2,.3,.2,.3q.1,.1,.2,.1c.08,0,.15-.04,.2-.1,.12-.07,.26-.1,.4-.1,.15-.02,.28,.09,.3,.24,0,.02,0,.04,0,.06-.13,.97-.55,1.87-1.2,2.6-1.2,1.7-1.6,2.6-1.6,3.6-.03,.79,.22,1.57,.7,2.2,.06,.05,.09,.12,.1,.2,0,.1-.1,.2-.2,.4s-.1,.2-.2,.3c-.3,.4-.4,.5-.6,.5s-.2-.1-.3-.3l-.1-.3c0-.11-.09-.19-.2-.2l-.1,.1c-.1,.1-.1,.2-.1,.4v.5c-.02,.21-.09,.42-.2,.6-.1,.2-.3,.3-.4,.5s-.2,.2-.3,.2-.2-.1-.2-.3l-.2-.6c0-.11-.09-.19-.2-.2-.1,0-.2,.2-.2,.5-.1,.7-.2,1.2-.4,1.3l-.5,.4c-.11,.11-.25,.17-.4,.2-.1,0-.2,0-.2-.1l-.2-.5c0-.06-.04-.1-.1-.1-.1,0-.2,.3-.3,.7,.06,.83-.32,1.62-1,2.1-.35,.22-.62,.53-.8,.9-.28-.37-.42-.83-.4-1.3,0-.3,0-.5,.1-.6,.09-.15,.16-.32,.2-.5,0-.06-.04-.1-.1-.1-.08,0-.15,.04-.2,.1-.11,.12-.25,.23-.4,.3-.47,.16-.8,.6-.8,1.1-.06,.78-.71,1.39-1.5,1.4-1.1,.2-1.2,.2-1.5,.6l-.1-.5Z"/><path class="cls-3" d="M66,66.2v.8c.02,.17-.02,.35-.1,.5-.06,.23-.1,.46-.1,.7,0,.53,.13,1.05,.4,1.5,.18,.34,.28,.72,.3,1.1-.01,.08-.05,.15-.1,.2q-.1,0-.2-.1l-.3-.4c-.2-.3-.4-.4-.9-.4h-.6c.2,.5,.3,.8,.4,1.1,.3,1,.3,1.1,.9,1.6s.6,.6,.6,.8-.1,.3-.2,.3h-.3c-.2,0-.3,.3-.3,.7,.03,.27,.1,.54,.2,.8,.1,.2,.2,.3,.2,.4l.3,.3c.08,.08,.11,.19,.1,.3,0,.2-.1,.3-.2,.3-.11,.01-.22-.02-.3-.1-.08-.01-.15-.05-.2-.1-.1,0-.2,.1-.2,.3l.1,.5,.2,.8c0,.2,.2,.4,.4,.6,.14,.16,.31,.3,.5,.4l.6,.3c.1,0,.1,.1,.1,.3,0,.11-.09,.19-.2,.2-.11-.01-.21-.05-.3-.1h-.3q-.3,0-.3,.3c-.02,.17,.02,.35,.1,.5l.1,.5c.1,.5,.3,.8,.5,.8,.08,0,.15-.04,.2-.1,.58-.42,1.28-.67,2-.7,.51-.01,1.01,.06,1.5,.2,.09,.07,.19,.1,.3,.1,.1,0,.1-.1,.1-.4l.1-.6,.1-1,.1-.7v-.4c-.1,.1-.2,.2-.3,.2-.37,.45-.92,.7-1.5,.7-1.5,0-2.3-1.7-2.3-4.5,.05-1.61,.22-3.21,.5-4.8,.07-.29,.11-.6,.1-.9-.09-1.18-.76-2.23-1.8-2.8"/><path class="cls-3" d="M68.2,73.4l.3-.3,.3-.3c.23-.28,.37-.63,.4-1,.02-.17-.02-.35-.1-.5-.1-.2-.3-.5-.5-.5s-.2,.3-.2,.7l-.1,.5-.1,.5v.9h0Z"/><path class="cls-3" d="M65.3,86.5c.3,.1,.4,.2,.7,.6,.29,.43,.79,.66,1.3,.6,.17,.02,.35-.02,.5-.1l.4-.1,.3-.1c.2,0,.3-.1,.3-.2s-.3-.3-.6-.5c-.25-.17-.51-.31-.8-.4-.22-.1-.46-.17-.7-.2-.5,0-.98,.13-1.4,.4"/><path class="cls-3" d="M69.7,95.5c.13-1.15,1.15-1.99,2.3-1.9,.6,0,1,.1,1,.3s-.3,.4-.9,.7c-.32,.13-.62,.3-.9,.5-.42,.31-.9,.55-1.4,.7l-.1-.3Z"/><path class="cls-3" d="M82.7,87.8c.5-.1,.6-.2,.8-.2h.6c.1,0,.2-.1,.4-.3s.3-.2,.4-.3c.6-.4,.7-.5,.7-.6s-.3-.3-.8-.3c-1,0-1.6,.5-2.1,1.7"/><path class="cls-2" d="M73,68.2l.5,.3c.21,.12,.41,.25,.6,.4,.5,.2,.7,.3,.7,.5,0,.14-.03,.28-.1,.4-.04,.16-.08,.33-.1,.5,.02,.26-.18,.48-.44,.5-.02,0-.04,0-.06,0-.2,0-.4-.3-.8-1-.23-.41-.39-.85-.5-1.3v-.1c0-.11,.09-.19,.2-.2"/><path class="cls-2" d="M77.4,69.4l-.7,.7c-.19,.18-.3,.43-.3,.7-.05,.05-.12,.09-.2,.1h0c-.15,.02-.28-.09-.3-.24,0-.02,0-.04,0-.06v-1h0c0-.2,.1-.3,.3-.4l.7-.2,.7-.4c.09-.05,.19-.09,.3-.1,.11,0,.19,.09,.2,.2,0,.08-.04,.15-.1,.2l-.6,.5Z"/><path class="cls-2" d="M74.1,71.5l.5,.4c.12,.08,.26,.11,.4,.1,.27-.03,.54-.1,.8-.2l.4-.2c.08-.01,.15-.05,.2-.1,.3,.03,.52,.3,.5,.6-.09,.63-.37,1.23-.8,1.7l-.4,.7c-.3,.4-.5,.5-.7,.5-.4,0-.6-.2-1.1-1.3-.32-.52-.52-1.1-.6-1.7,0-.3,.2-.6,.4-.6,.12,.07,.26,.1,.4,.1"/><path class="cls-3" d="M74.5,73.3v.6c-.02,.26,.18,.48,.44,.5,.02,0,.04,0,.06,0,.3,0,.5-.4,.6-1.1,.05-.13,.08-.26,.1-.4,0-.2-.1-.3-.4-.3h-.5c-.2,0-.3,.2-.3,.6"/><path class="cls-2" d="M38.5,58.8h3.1v6.4h3.7v-6.4h9.3v6.4h3.7v-6.4h3.1v-16.6h-3.6l-.1-.2c-.36-.6-1-.98-1.7-1-.76,.02-1.42,.5-1.7,1.2h-2.6c-.38-.97-1.47-1.44-2.44-1.06-.49,.19-.87,.58-1.06,1.06h-2.8c-.31-.72-1.02-1.19-1.8-1.2-.76,0-1.45,.48-1.7,1.2h-3.4v16.6Z"/><rect x="39.8" y="43.6" width="20.4" height="14"/><path class="cls-3" d="M41.9,46.8c-.55,0-1,.45-1,1s.45,1,1,1,1-.45,1-1-.45-1-1-1"/><path d="M41.9,48.9c-.61,0-1.1-.49-1.1-1.1s.49-1.1,1.1-1.1,1.1,.49,1.1,1.1c0,.61-.49,1.09-1.1,1.1Zm0-2c-.44,0-.8,.36-.8,.8,0,.44,.36,.8,.8,.8,.44,0,.8-.36,.8-.8h0c.1-.4-.3-.8-.8-.8Z"/><path class="cls-3" d="M57.9,46.8c-.55,0-1,.45-1,1s.45,1,1,1,1-.45,1-1-.45-1-1-1"/><path d="M57.9,48.9c-.61,0-1.1-.49-1.1-1.1s.49-1.1,1.1-1.1,1.1,.49,1.1,1.1c0,.61-.49,1.09-1.1,1.1Zm0-2c-.44,0-.8,.36-.8,.8,0,.44,.36,.8,.8,.8,.44,0,.8-.36,.8-.8h0c.1-.4-.3-.8-.8-.8Z"/><path class="cls-3" d="M41.9,54.4c-.55,0-1,.45-1,1s.45,1,1,1c.51,0,.91-.43,.9-.94,0-.02,0-.04,0-.06,.07-.48-.25-.92-.73-.99-.06,0-.11-.01-.17,0"/><path d="M41.9,56.5c-.61,0-1.1-.49-1.1-1.1s.49-1.1,1.1-1.1,1.1,.49,1.1,1.1h0c0,.61-.49,1.09-1.1,1.1Zm0-2c-.44,0-.79,.34-.8,.78,0,0,0,.01,0,.02,0,.45,.38,.81,.84,.8,.02,0,.04,0,.06,0,.43-.03,.77-.37,.8-.8-.04-.46-.44-.81-.9-.8Z"/><path class="cls-3" d="M57.9,54.4c-.55,0-1,.45-1,1s.45,1,1,1,1-.45,1-1-.45-1-1-1"/><path d="M57.9,56.5c-.61,0-1.1-.49-1.1-1.1s.49-1.1,1.1-1.1,1.1,.49,1.1,1.1h0c0,.61-.49,1.09-1.1,1.1Zm0-2c-.44,0-.8,.36-.8,.8,0,.44,.36,.8,.8,.8,.44,0,.8-.36,.8-.8h0c.1-.4-.3-.8-.8-.8Z"/><path class="cls-3" d="M45,51.5c1.19,1.57,3.03,2.49,5,2.5,1.9,0,3.2-.7,4.7-2.5-1.19-1.42-2.95-2.22-4.8-2.2-1.9-.15-3.75,.68-4.9,2.2"/><path class="cls-2" d="M45.9,51.5c2.22-2,5.58-2,7.8,0-.98,1.12-2.41,1.74-3.9,1.7-1.46-.07-2.85-.68-3.9-1.7"/><path class="cls-3" d="M47.6,51.1c.65,.44,1.41,.69,2.2,.7,.82,.03,1.63-.22,2.3-.7-.71-.38-1.5-.59-2.3-.6-.76,.08-1.5,.28-2.2,.6"/><rect class="cls-1" x="39.5" y="44.3" width="21" height=".7"/><path d="M60.5,45.1h-21v-.8h21v.8Zm-20.9-.1h20.9v-.6h-20.9v.6Z"/><path class="cls-3" d="M42.7,43.4v2c0,.45,.38,.81,.84,.8,.02,0,.04,0,.06,0,.6,0,.9-.3,.9-.8v-2c0-.8-.3-1.2-.8-1.2-.14-.01-.28,.02-.4,.1-.08,.01-.15,.05-.2,.1-.1,.1-.1,.2-.2,.3-.07,.12-.1,.26-.1,.4"/><path class="cls-3" d="M49,45.1v.4c0,.45,.38,.81,.84,.8,.02,0,.04,0,.06,0,.6,0,.9-.3,.9-.8v-2c0-.8-.3-1.2-.8-1.2s-.9,.5-.9,1.2"/><path class="cls-3" d="M55.1,43.4v2c0,.45,.38,.81,.84,.8,.02,0,.04,0,.06,0,.6,0,.9-.3,.9-.8v-2c0-.8-.3-1.2-.8-1.2-.14-.01-.28,.02-.4,.1-.08,.01-.15,.05-.2,.1-.1,.1-.1,.2-.2,.3-.07,.12-.1,.26-.1,.4"/><rect class="cls-3" x="42.3" y="60.3" width="1.9" height="2.5"/><rect class="cls-3" x="42.3" y="63.3" width="1.9" height=".8"/><rect class="cls-3" x="55.3" y="60.3" width="1.9" height="2.5"/><rect class="cls-3" x="55.3" y="63.3" width="1.9" height=".8"/></g>
  </symbol>

  <symbol id="villanova-svg" height="223.3" viewBox="0 0 249.99998 223.30072" width="250">
    <g transform="matrix(1.25 0 0 -1.25 -1279.2 608.55)"><g transform="translate(.32246 -.64491)"><path d="m1220 486.21-84.078-0.0342 0.01-19.007 2.7526-1.0052c1.3535-0.49065 2.3109-1.6985 2.7526-2.6627 0.1742-0.37908 0.2573-0.81736 0.2607-1.3342 0-0.77069-0.1969-1.6826-0.5806-2.7082 0 0 0.1719 0.12181 0.2084 0.14572-0.5601-1.0963-1.2944-3.0224-2.6388-6.597l-15.455-41.064c-3.5461 9.4008-17.921 47.499-17.921 47.499-0.3859 1.0268-0.5828 1.9398-0.5828 2.7162 0 0.51114 0.089 0.95625 0.2572 1.3251 0.4451 0.96763 1.4003 2.1766 2.747 2.665l2.7526 1.0029-0.01 19.019-86.472-0.0342 0.01-18.814 2.311-1.1657c0.1821-0.0979 5.2138-2.8642 8.1816-11.567 2.147-6.3078 33.902-90.523 43.584-116.19 0 0.007 0.2357-0.62839 0.2357-0.62839 2.6615-7.0523 1.8852-7.4178 0.3404-8.1543-0.01-0.005-2.3872-1.1452-2.3872-1.1452l0.01-18.411 93.957 0.0364-0.01 18.329-2.2768 1.168c-0.6921 0.35176-1.3569 0.69328-1.3569 2.1368 0 1.1452 0.4178 2.9826 1.5789 6.0699l1.4287 3.7931c26.243 69.739 40.874 108.83 42.311 113.05 2.9621 8.7167 8.1554 11.571 8.2078 11.6 0 0.001 2.2495 1.1361 2.2495 1.1361s0.024 2.5716 0.024 2.5728v16.252h-2.3975z" fill="#002664"/><path d="m1181.6 478.04-58.48-147.13-57.388 147.13h-7.9084l61.843-159.71 6.5935 0.15596 63.312 159.55h-7.9722z" fill="#3db7e4"/><path d="m1211.4 473.71c-3.0645-2.6433-7.1832-7.4041-9.871-15.317-1.3991-4.0925-17.527-47.184-43.155-115.27l-0.4679-1.242-0.4758-1.2602c-1.6791-4.36-3.5791-9.3075-0.9836-14.096 0.6945-1.2818 1.637-2.3587 2.7948-3.2547v-1.7554l-71.304-0.0273v1.7565c1.1543 0.89477 2.098 1.9717 2.7868 3.2569 2.5955 4.7972 0.6955 9.7321-0.9825 14.089l-0.4838 1.2659-0.4462 1.1805c-25.688 68.096-41.858 111.2-43.257 115.29-2.6969 7.9152-6.8156 12.671-9.8892 15.312v1.267l63.827 0.0239v-1.1589c-2.3508-1.7725-3.7066-3.8136-4.4637-5.4666-1.2021-2.616-2.1743-6.9522 0.019-12.77l21.839-57.897 6.2452-17.757 7.1184 17.76 21.804 57.916c2.1823 5.8172 1.2135 10.157 0 12.765-0.7593 1.6575-2.1094 3.6975-4.4647 5.4677v1.1555l63.818 0.0216v-1.2636zm6.8395 8.3125-78.099-0.0262v-11.895c4.3532-1.9011 7.1001-6.2976 4.911-12.112-8.596-22.868-21.796-57.912-21.796-57.912s-13.221 35.034-21.84 57.893c-2.1925 5.816 0 10.33 4.9088 12.118l-0.01 11.897-78.103-0.0296v-12.049s6.6084-3.2114 10.271-13.967c2.3553-6.9123 41.108-109.61 43.781-116.69 2.1948-5.8183 3.7589-10.774-1.7816-13.408v-11.588l85.589 0.033v11.584c-5.108 2.6058-3.9776 7.5885-1.7884 13.409 2.6672 7.0854 41.343 109.81 43.695 116.72 3.6543 10.756 10.257 13.974 10.257 13.974l-0.01 12.046z" fill="#fff"/></g></g>
  </symbol>

  <symbol id="ursinus-svg" viewBox="0 0 195.98 249.92">
    <defs><style>.cls-1{fill:#fbaf34;}.cls-2{fill:#97012e;}</style></defs><g id="Layer_1-2"><g><path class="cls-1" d="M.07,160.99C.07,108.75,.1,56.51,0,4.26,0,1.18,.17,0,3.91,0c62.72,.16,125.44,.16,188.16,0,3.73,0,3.92,1.17,3.91,4.26-.1,51.58-.07,103.15-.07,154.73-1.55,6.55-1.4,13.39-4.19,19.78-6.59,15.12-17.06,27.16-29.23,37.89-10.88,9.6-23.26,17.05-35.96,23.94-8.33,4.51-17.1,7.91-26.54,9.32h-4c-24.3-4.44-43.79-17.94-62.59-32.9-10.82-8.62-19.24-19.14-26.05-31.06-3.06-5.36-5.44-10.94-6-17.23-.23-2.59-.18-5.29-1.28-7.75Z"/><path class="cls-2" d="M98.06,14.94c26.14,0,52.29,.08,78.43-.09,4.07-.03,5.38,1,5.36,5.24-.16,41.96-.04,83.93-.11,125.9-.04,23.94-11.68,42.15-29.02,57.35-15.31,13.42-32.84,23.17-51.71,30.63-1.89,.75-3.66,1.26-5.76,.42-24.22-9.71-46.48-22.38-63.83-42.39-11.57-13.36-17.33-28.85-17.26-46.66,.17-41.63,.12-83.26-.04-124.9-.02-4.33,1.02-5.66,5.51-5.62,26.14,.22,52.29,.11,78.43,.11Z"/><path class="cls-1" d="M54.19,96.95c0-13.32,.12-26.64-.08-39.96-.05-3.77,.78-5.6,4.93-5.13,4.42,.5,10.16-1.82,13.01,.93,2.89,2.78,.9,8.53,.92,12.96,.1,21.48,.02,42.96,.08,64.44,0,3.15,.2,6.33,.72,9.43,2.19,12.87,11.34,20.53,24.26,20.52,12.99,0,22.05-7.62,24.23-20.55,.52-3.1,.68-6.29,.68-9.44,.05-24.31,.11-48.62-.06-72.93-.03-3.96,.74-5.48,5.11-5.43,13.8,.17,13.8-.02,13.8,13.71,0,22.98,.08,45.96-.03,68.94-.07,14.51-4.35,27.38-16.54,36.27-14.75,10.75-30.91,12.01-47.19,4.3-16.15-7.66-23.53-21.48-23.81-39.1-.2-12.98-.04-25.98-.04-38.96Z"/></g></g>
  </symbol>
</svg>