<?xml version="1.0" encoding="UTF-8"?><svg id="Layer_2" xmlns="http://www.w3.org/2000/svg" viewBox="0 0 196.48 250.42"><defs><style>.cls-1{fill:#dddcdb;}</style></defs><g id="Layer_1-2"><g><path class="cls-1" d="M192.32,.25c3.73-.01,3.92,1.17,3.91,4.26-.1,51.58-.07,103.16-.07,154.73-1.55,6.56-1.4,13.39-4.19,19.78-6.59,15.12-17.06,27.16-29.23,37.89-10.88,9.61-23.25,17.06-35.96,23.94-8.32,4.51-17.1,7.9-26.54,9.32h-4c-24.29-4.43-43.79-17.93-62.59-32.89-10.82-8.62-19.23-19.15-26.05-31.06-3.06-5.36-5.43-10.94-6-17.23-.23-2.58-.17-5.28-1.28-7.75C.32,109,.35,56.76,.25,4.51,.24,1.43,.42,.24,4.16,.25c62.72,.16,125.44,.16,188.16,0Zm-10.22,20.1c.02-4.25-1.28-5.27-5.36-5.24-26.14,.17-52.28,.08-78.43,.08s-52.29,.11-78.43-.1c-4.48-.04-5.52,1.28-5.51,5.61,.17,41.64,.21,83.27,.05,124.9-.07,17.81,5.68,33.3,17.25,46.66,17.35,20.01,39.61,32.68,63.83,42.39,2.1,.84,3.87,.32,5.76-.42,18.87-7.46,36.4-17.21,51.71-30.63,17.34-15.2,28.98-33.42,29.02-57.36,.07-41.96-.04-83.93,.11-125.89Z"/><path d="M176.74,15.11c4.08-.03,5.38,.99,5.36,5.24-.15,41.96-.04,83.93-.11,125.89-.04,23.94-11.68,42.16-29.02,57.36-15.31,13.42-32.84,23.17-51.71,30.63-1.89,.74-3.66,1.26-5.76,.42-24.22-9.71-46.48-22.38-63.83-42.39-11.57-13.36-17.32-28.85-17.25-46.66,.16-41.63,.12-83.26-.05-124.9-.01-4.33,1.03-5.65,5.51-5.61,26.14,.21,52.29,.1,78.43,.1s52.29,.09,78.43-.08Zm-34.73,119.59c.11-22.98,.03-45.96,.03-68.93,0-13.73,0-13.54-13.8-13.72-4.37-.05-5.13,1.47-5.11,5.43,.17,24.31,.11,48.62,.06,72.93-.01,3.15-.16,6.34-.68,9.44-2.18,12.93-11.24,20.54-24.23,20.55-12.92,.01-22.08-7.66-24.26-20.52-.53-3.1-.72-6.29-.73-9.44-.06-21.48,.03-42.96-.08-64.44-.02-4.43,1.97-10.18-.91-12.96-2.86-2.74-8.59-.42-13.01-.93-4.15-.47-4.98,1.37-4.93,5.13,.2,13.32,.08,26.64,.08,39.96s-.16,25.98,.04,38.97c.28,17.62,7.66,31.43,23.81,39.09,16.27,7.72,32.44,6.45,47.19-4.29,12.19-8.88,16.46-21.76,16.53-36.27Z"/><path class="cls-1" d="M142.04,65.77c0,22.97,.08,45.95-.03,68.93-.07,14.51-4.34,27.39-16.53,36.27-14.75,10.74-30.92,12.01-47.19,4.29-16.15-7.66-23.53-21.47-23.81-39.09-.2-12.99-.04-25.98-.04-38.97s.12-26.64-.08-39.96c-.05-3.76,.78-5.6,4.93-5.13,4.42,.51,10.15-1.81,13.01,.93,2.88,2.78,.89,8.53,.91,12.96,.11,21.48,.02,42.96,.08,64.44,.01,3.15,.2,6.34,.73,9.44,2.18,12.86,11.34,20.53,24.26,20.52,12.99-.01,22.05-7.62,24.23-20.55,.52-3.1,.67-6.29,.68-9.44,.05-24.31,.11-48.62-.06-72.93-.02-3.96,.74-5.48,5.11-5.43,13.8,.18,13.8-.01,13.8,13.72Z"/></g></g></svg>